<?xml version="1.0" encoding="UTF-8"?>
<svg version="1.1" xmlns="http://www.w3.org/2000/svg" width="512" height="512">
<path d="M0 0 C4.89737666 2.88389672 8.7176884 6.43163111 12.70800781 10.44921875 C13.34940704 11.08711334 13.99080627 11.72500793 14.65164185 12.38223267 C16.75717413 14.47900674 18.85535832 16.58295879 20.953125 18.6875 C22.41920241 20.1522294 23.88557654 21.61666186 25.35223389 23.08081055 C28.41842369 26.14405737 31.48098074 29.21087851 34.54101562 32.28027344 C38.46400808 36.21468002 42.39593784 40.14001295 46.330616 44.06272888 C49.35735839 47.08224762 52.37932527 50.10650949 55.3998642 53.13223267 C56.84808286 54.58178537 58.29778835 56.02985418 59.74900055 57.47640991 C61.77406827 59.49640201 63.79261991 61.52268836 65.80957031 63.55078125 C66.41010223 64.14726471 67.01063416 64.74374817 67.62936401 65.35830688 C72.25107245 70.02745656 74.28904393 73.11885298 74.375 79.875 C74.40335937 80.88304687 74.43171875 81.89109375 74.4609375 82.9296875 C73.46386497 89.57120449 68.1314321 94.15844683 63.55078125 98.70800781 C62.91288666 99.34940704 62.27499207 99.99080627 61.61776733 100.65164185 C59.52099326 102.75717413 57.41704121 104.85535832 55.3125 106.953125 C53.8477706 108.41920241 52.38333814 109.88557654 50.91918945 111.35223389 C47.85594263 114.41842369 44.78912149 117.48098074 41.71972656 120.54101562 C37.78531998 124.46400808 33.85998705 128.39593784 29.93727112 132.330616 C26.91775238 135.35735839 23.89349051 138.37932527 20.86776733 141.3998642 C19.41821463 142.84808286 17.97014582 144.29778835 16.52359009 145.74900055 C14.50359799 147.77406827 12.47731164 149.79261991 10.44921875 151.80957031 C9.85273529 152.41010223 9.25625183 153.01063416 8.64169312 153.62936401 C3.97254344 158.25107245 0.88114702 160.28904393 -5.875 160.375 C-11.08266907 160.27363418 -14.10580633 159.69948398 -18 156 C-22.41415841 151.35351746 -22.46758261 147.11206934 -22.53125 141 C-21.2425791 133.72279963 -14.99680782 128.73160516 -9.953125 123.7578125 C-9.18192322 122.98944061 -8.41072144 122.22106873 -7.6161499 121.42941284 C-5.16544318 118.98985106 -2.70785503 116.55735761 -0.25 114.125 C1.41842869 112.46660843 3.08640255 110.80775914 4.75390625 109.1484375 C8.8306855 105.09364317 12.91312879 101.04462098 17 97 C11.89950926 96.94970312 6.79916998 96.91386745 1.69848633 96.89013672 C-0.02842734 96.8802202 -1.75532489 96.86668287 -3.48217773 96.84912109 C-29.99895015 96.58665522 -53.32158227 99.89335187 -74 118 C-74.65355469 118.55816406 -75.30710937 119.11632812 -75.98046875 119.69140625 C-82.57276742 125.76719492 -87.33219546 133.34392856 -92.38818359 140.68261719 C-95.0388768 144.4936411 -97.77082487 148.24498786 -100.5 152 C-104.70777339 157.80498941 -108.87609852 163.63513747 -113 169.5 C-117.66136749 176.12922712 -122.38944431 182.70728537 -127.14453125 189.26953125 C-130.79995588 194.32082208 -134.41357962 199.39952352 -138 204.5 C-142.66136749 211.12922712 -147.38944431 217.70728537 -152.14453125 224.26953125 C-155.79995893 229.3208263 -159.41329986 234.39971714 -163 239.5 C-168.73666911 247.64996775 -174.53413355 255.753654 -180.40625 263.80664062 C-181.95797604 265.94216556 -183.49484732 268.08781241 -185.03125 270.234375 C-203.8791023 296.3040414 -228.84032893 314.02368112 -261.02238464 319.51579285 C-265.60669061 320.15798808 -270.16505558 320.16305459 -274.78735352 320.17700195 C-275.74434143 320.18357315 -276.70132935 320.19014435 -277.68731689 320.19691467 C-280.83451427 320.21652741 -283.98166438 320.22827888 -287.12890625 320.23828125 C-288.74637914 320.24439454 -288.74637914 320.24439454 -290.39652824 320.25063133 C-296.09630005 320.27143353 -301.79604814 320.28576451 -307.49584961 320.29516602 C-313.37937088 320.30626162 -319.26251721 320.34071462 -325.14590549 320.38033772 C-329.67637337 320.40646523 -334.20675093 320.41485407 -338.73728752 320.41844749 C-340.90661103 320.42331776 -343.07593039 320.43494419 -345.24518013 320.45348549 C-348.27777272 320.4778103 -351.30938092 320.47692473 -354.34204102 320.4699707 C-355.68177223 320.48918579 -355.68177223 320.48918579 -357.04856873 320.50878906 C-362.53629588 320.46294108 -365.64024078 319.64375039 -370 316 C-373.62833663 312.18069828 -374.31000458 309.11720994 -374.5 304 C-374.31000458 298.88279006 -373.62833663 295.81930172 -370 292 C-365.31410687 288.22270738 -361.65231427 287.42161887 -355.78588867 287.48583984 C-354.58195465 287.47515221 -354.58195465 287.47515221 -353.35369873 287.46424866 C-350.70820302 287.44500461 -348.06351112 287.45324712 -345.41796875 287.4609375 C-343.56153715 287.45101808 -341.70511539 287.43907212 -339.84870911 287.42520142 C-334.95781289 287.39284208 -330.06714016 287.38245157 -325.17614746 287.37835693 C-317.38890454 287.36961008 -309.60184589 287.33350121 -301.81475258 287.2861824 C-299.12034027 287.27379326 -296.42616965 287.27433954 -293.73173523 287.27645874 C-268.1836498 287.21959599 -245.83735296 283.37018638 -226 266 C-225.34644531 265.44183594 -224.69289062 264.88367188 -224.01953125 264.30859375 C-217.42723258 258.23280508 -212.66780454 250.65607144 -207.61181641 243.31738281 C-204.9611232 239.5063589 -202.22917513 235.75501214 -199.5 232 C-195.29222661 226.19501059 -191.12390148 220.36486253 -187 214.5 C-182.33863251 207.87077288 -177.61055569 201.29271463 -172.85546875 194.73046875 C-169.20004412 189.67917792 -165.58642038 184.60047648 -162 179.5 C-157.33863251 172.87077288 -152.61055569 166.29271463 -147.85546875 159.73046875 C-144.20004107 154.6791737 -140.58670014 149.60028286 -137 144.5 C-131.26333089 136.35003225 -125.46586645 128.246346 -119.59375 120.19335938 C-118.04202396 118.05783444 -116.50515268 115.91218759 -114.96875 113.765625 C-95.96913062 87.48603988 -71.32092556 70.48926829 -39.10568237 64.45814514 C-36.18170131 64.02680428 -33.40610663 63.8441214 -30.45361328 63.79467773 C-28.86264328 63.7647599 -28.86264328 63.7647599 -27.23953247 63.73423767 C-26.11118988 63.71752518 -24.98284729 63.70081268 -23.8203125 63.68359375 C-22.6524118 63.66281265 -21.48451111 63.64203156 -20.28121948 63.62062073 C-16.56253762 63.55540825 -12.84378711 63.49637199 -9.125 63.4375 C-6.59895133 63.39428787 -4.07290951 63.35067272 -1.546875 63.30664062 C4.63534478 63.19975592 10.81763236 63.09793764 17 63 C16.5409024 62.54534363 16.08180481 62.09068726 15.60879517 61.62225342 C10.83374359 56.891431 6.06573247 52.15359734 1.30175781 47.41162109 C-0.47736713 45.64255687 -2.25828255 43.87529143 -4.04101562 42.10986328 C-6.60238335 39.57274013 -9.15725352 37.02922901 -11.7109375 34.484375 C-12.50994476 33.69569031 -13.30895203 32.90700562 -14.13217163 32.09442139 C-14.87278839 31.35395569 -15.61340515 30.61348999 -16.37646484 29.85058594 C-17.02932465 29.20216736 -17.68218445 28.55374878 -18.35482788 27.88568115 C-22.43517169 23.20882861 -22.42970868 18.93565861 -22.3125 12.9140625 C-21.74397844 7.61259899 -19.22134216 5.16027505 -15.5 1.625 C-10.44221514 -0.72325726 -5.48314207 -0.97097307 0 0 Z " fill="#000000" transform="translate(406,64)"/>
<path d="M0 0 C4.13383738 3.87172813 7.29910148 8.02798459 10.5 12.6875 C11.55931519 14.20353089 12.61923192 15.71914159 13.6796875 17.234375 C15.34136717 19.61831047 17.00204085 22.0029347 18.66113281 24.38867188 C33.00226021 44.93387734 48.81848559 60.11769136 73.6875 66.3125 C85.61917613 68.38731783 97.68801231 68.12231337 109.75 68.0625 C111.5260404 68.05747286 113.30208218 68.05291211 115.078125 68.04882812 C119.38545148 68.03792357 123.69271005 68.02072652 128 68 C127.5409024 67.54534363 127.08180481 67.09068726 126.60879517 66.62225342 C121.83374359 61.891431 117.06573247 57.15359734 112.30175781 52.41162109 C110.52263287 50.64255687 108.74171745 48.87529143 106.95898438 47.10986328 C104.39761665 44.57274013 101.84274648 42.02922901 99.2890625 39.484375 C98.09055161 38.30134796 98.09055161 38.30134796 96.86782837 37.09442139 C96.12721161 36.35395569 95.38659485 35.61348999 94.62353516 34.85058594 C93.97067535 34.20216736 93.31781555 33.55374878 92.64517212 32.88568115 C88.56482831 28.20882861 88.57029132 23.93565861 88.6875 17.9140625 C89.25602156 12.61259899 91.77865784 10.16027505 95.5 6.625 C100.55778486 4.27674274 105.51685793 4.02902693 111 5 C115.89737666 7.88389672 119.7176884 11.43163111 123.70800781 15.44921875 C124.34940704 16.08711334 124.99080627 16.72500793 125.65164185 17.38223267 C127.75717413 19.47900674 129.85535832 21.58295879 131.953125 23.6875 C133.41920241 25.1522294 134.88557654 26.61666186 136.35223389 28.08081055 C139.41842369 31.14405737 142.48098074 34.21087851 145.54101562 37.28027344 C149.46400808 41.21468002 153.39593784 45.14001295 157.330616 49.06272888 C160.35735839 52.08224762 163.37932527 55.10650949 166.3998642 58.13223267 C167.84808286 59.58178537 169.29778835 61.02985418 170.74900055 62.47640991 C172.77406827 64.49640201 174.79261991 66.52268836 176.80957031 68.55078125 C177.41010223 69.14726471 178.01063416 69.74374817 178.62936401 70.35830688 C183.25107245 75.02745656 185.28904393 78.11885298 185.375 84.875 C185.40335938 85.88304687 185.43171875 86.89109375 185.4609375 87.9296875 C184.46386497 94.57120449 179.1314321 99.15844683 174.55078125 103.70800781 C173.91288666 104.34940704 173.27499207 104.99080627 172.61776733 105.65164185 C170.52099326 107.75717413 168.41704121 109.85535832 166.3125 111.953125 C164.8477706 113.41920241 163.38333814 114.88557654 161.91918945 116.35223389 C158.85594263 119.41842369 155.78912149 122.48098074 152.71972656 125.54101562 C148.78531998 129.46400808 144.85998705 133.39593784 140.93727112 137.330616 C137.91775238 140.35735839 134.89349051 143.37932527 131.86776733 146.3998642 C130.41821463 147.84808286 128.97014582 149.29778835 127.52359009 150.74900055 C125.50359799 152.77406827 123.47731164 154.79261991 121.44921875 156.80957031 C120.85273529 157.41010223 120.25625183 158.01063416 119.64169312 158.62936401 C114.97254344 163.25107245 111.88114702 165.28904393 105.125 165.375 C99.91733093 165.27363418 96.89419367 164.69948398 93 161 C88.58584159 156.35351746 88.53241739 152.11206934 88.46875 146 C89.7574209 138.72279963 96.00319218 133.73160516 101.046875 128.7578125 C101.81807678 127.98944061 102.58927856 127.22106873 103.3838501 126.42941284 C105.83455682 123.98985106 108.29214497 121.55735761 110.75 119.125 C112.41842869 117.46660843 114.08640255 115.80775914 115.75390625 114.1484375 C119.8306855 110.09364317 123.91312879 106.04462098 128 102 C127.07277382 101.99120064 127.07277382 101.99120064 126.1268158 101.98222351 C119.61998661 101.91766653 113.11362395 101.83309712 106.60717773 101.73754883 C104.18764445 101.70455007 101.76803882 101.67644258 99.34838867 101.65356445 C73.54810545 101.40307627 73.54810545 101.40307627 61 98 C60.25258545 97.81236084 59.5051709 97.62472168 58.73510742 97.43139648 C29.5516734 89.65797368 8.23846002 69.39716403 -8.45117188 45.19824219 C-9.95606251 43.0623602 -11.51586967 40.98440456 -13.109375 38.9140625 C-13.82734253 37.96648071 -13.82734253 37.96648071 -14.55981445 36.99975586 C-15.45388794 35.82366025 -16.36065993 34.65707091 -17.28198242 33.50219727 C-18.46484375 31.91796875 -18.46484375 31.91796875 -20 29 C-19.21480159 24.13018358 -15.21003937 20.02472177 -12.25 16.1875 C-11.48042969 15.17719727 -11.48042969 15.17719727 -10.6953125 14.14648438 C-9.66152421 12.78931257 -8.62572506 11.43367006 -7.58789062 10.07958984 C-5.03560965 6.73698078 -2.51767462 3.36871165 0 0 Z " fill="#000000" transform="translate(295,283)"/>
<path d="M0 0 C1.42097992 -0.01051392 1.42097992 -0.01051392 2.8706665 -0.02124023 C5.99838746 -0.03882023 9.12519965 -0.02718578 12.25292969 -0.01367188 C14.4432594 -0.01636946 16.63358794 -0.02025409 18.82391357 -0.02526855 C23.42048515 -0.0311659 28.01674585 -0.02260274 32.61328125 -0.00390625 C38.4565007 0.01872153 44.29897857 0.00586478 50.14216995 -0.01819611 C54.67231629 -0.03278634 59.20229275 -0.02798538 63.73244476 -0.01768494 C65.88345175 -0.01504553 68.03447496 -0.01818738 70.18546295 -0.02760315 C103.2200978 -0.14034574 131.92547047 10.21805915 155.92480469 33.51757812 C162.82840401 40.43575738 168.34237173 48.29595521 173.87597656 56.31933594 C175.3808672 58.45521792 176.94067436 60.53317357 178.53417969 62.60351562 C179.01282471 63.23523682 179.49146973 63.86695801 179.98461914 64.51782227 C180.87869263 65.69391787 181.78546461 66.86050721 182.70678711 68.01538086 C183.88964844 69.59960938 183.88964844 69.59960938 185.42480469 72.51757812 C184.63960628 77.38739454 180.63484406 81.49285636 177.67480469 85.33007812 C177.16175781 86.00361328 176.64871094 86.67714844 176.12011719 87.37109375 C175.0863289 88.72826556 174.05052975 90.08390807 173.01269531 91.43798828 C170.46041433 94.78059735 167.94247931 98.14886648 165.42480469 101.51757812 C161.2909673 97.64585 158.1257032 93.48959354 154.92480469 88.83007812 C153.8654895 87.31404724 152.80557277 85.79843653 151.74511719 84.28320312 C150.08343751 81.89926765 148.42276384 79.51464343 146.76367188 77.12890625 C132.42254448 56.58370078 116.6063191 41.39988677 91.73730469 35.20507812 C80.77448061 33.29554451 69.68622124 33.37183642 58.59778214 33.34891319 C55.81429121 33.34165123 53.03096695 33.32592047 50.24752808 33.30757141 C42.34309972 33.25551148 34.43877642 33.20705865 26.53417969 33.19165039 C21.67667296 33.1815674 16.81960839 33.15225778 11.96227646 33.11033058 C10.11957008 33.09804412 8.27680132 33.09289501 6.43405533 33.09512901 C3.86164173 33.09748361 1.29050281 33.07531249 -1.28173828 33.04760742 C-2.41332115 33.05750954 -2.41332115 33.05750954 -3.56776428 33.06761169 C-8.71067058 32.97680426 -11.59695479 31.72897924 -15.57519531 28.51757812 C-19.20353195 24.6982764 -19.88519989 21.63478806 -20.07519531 16.51757812 C-19.88519989 11.40036819 -19.20353195 8.33687985 -15.57519531 4.51757812 C-10.38387204 0.19369131 -6.46143523 -0.05910118 0 0 Z " fill="#000000" transform="translate(51.5751953125,127.482421875)"/>
</svg>
