<?xml version="1.0" standalone="no"?>
<!DOCTYPE svg PUBLIC "-//W3C//DTD SVG 20010904//EN"
 "http://www.w3.org/TR/2001/REC-SVG-20010904/DTD/svg10.dtd">
<svg version="1.0" xmlns="http://www.w3.org/2000/svg"
 width="512.000000pt" height="512.000000pt" viewBox="0 0 512.000000 512.000000"
 preserveAspectRatio="xMidYMid meet">

<g transform="translate(0.000000,512.000000) scale(0.100000,-0.100000)"
fill="#000000" stroke="none">
<path d="M2450 4615 c-632 -89 -1172 -439 -1503 -975 -64 -104 -159 -308 -193
-412 -15 -49 -31 -88 -35 -88 -3 0 -28 34 -56 75 l-49 74 -132 -87 c-72 -48
-132 -89 -132 -92 0 -16 339 -507 362 -523 38 -28 116 -34 159 -12 33 18 475
309 493 326 6 5 -26 62 -77 139 -99 148 -81 141 -189 68 -32 -21 -58 -37 -58
-35 0 23 64 179 115 282 314 629 1000 1016 1698 957 316 -27 590 -122 853
-297 119 -80 286 -231 377 -342 432 -532 519 -1261 222 -1879 -225 -468 -653
-816 -1160 -942 -158 -40 -226 -47 -430 -47 -167 1 -219 5 -315 24 -281 56
-520 162 -742 329 -89 67 -244 218 -320 311 l-36 44 -126 -92 c-69 -51 -126
-96 -126 -100 0 -14 202 -239 267 -297 509 -453 1172 -635 1826 -499 933 193
1611 993 1654 1950 21 487 -143 984 -455 1379 -30 39 -103 118 -161 176 -331
329 -754 532 -1231 590 -115 14 -384 11 -500 -5z"/>
<path d="M2560 3105 c0 -471 3 -581 14 -608 8 -18 126 -144 263 -280 l249
-248 112 113 113 112 -216 216 -215 215 0 528 0 527 -160 0 -160 0 0 -575z"/>
</g>
</svg>
