<svg width="474" height="252" viewBox="0 0 474 252" fill="none" xmlns="http://www.w3.org/2000/svg">
<path d="M112.208 22.768C111.376 22.768 110.672 22.7467 110.096 22.704C109.541 22.64 108.805 22.544 107.888 22.416L107.856 25.776C107.835 26.352 107.824 27.1733 107.824 28.24C107.824 28.7947 107.664 29.232 107.344 29.552C107.045 29.8507 106.704 30 106.32 30C105.616 30 105.093 29.9147 104.752 29.744C104.411 29.552 104.24 29.2213 104.24 28.752C104.24 28.1333 104.293 27.2587 104.4 26.128C104.635 23.696 104.752 21.2 104.752 18.64C104.752 16.2507 104.677 14 104.528 11.888C104.549 11.5893 104.699 11.248 104.976 10.864C105.275 10.48 105.648 10.2667 106.096 10.224C106.587 10.224 107.365 10.1387 108.432 9.968C109.541 9.79733 110.384 9.712 110.96 9.712C112.709 9.712 114.064 9.88267 115.024 10.224C116.005 10.5653 116.987 11.1307 117.968 11.92C119.035 13.584 119.568 14.7573 119.568 15.44C119.568 16.8693 119.28 18.1387 118.704 19.248C118.128 20.3573 117.285 21.2213 116.176 21.84C115.067 22.4587 113.744 22.768 112.208 22.768ZM111.472 12.432C110.789 12.432 110.192 12.4747 109.68 12.56C109.189 12.624 108.592 12.7413 107.888 12.912C107.973 14.8747 108.016 16.304 108.016 17.2C108.016 18.1173 107.984 18.8853 107.92 19.504C108.837 19.696 109.563 19.824 110.096 19.888C110.629 19.9307 111.227 19.952 111.888 19.952C113.467 19.952 114.576 19.5467 115.216 18.736C115.877 17.904 116.208 16.944 116.208 15.856C116.208 15.536 116.112 15.1413 115.92 14.672C115.728 14.2027 115.557 13.8933 115.408 13.744C114.832 13.232 114.267 12.8907 113.712 12.72C113.179 12.528 112.432 12.432 111.472 12.432ZM138.201 12.816C138.521 13.2 138.745 13.5093 138.873 13.744C139.001 13.9787 139.065 14.2027 139.065 14.416C139.065 14.672 138.895 14.9707 138.553 15.312C138.233 15.6533 137.913 15.824 137.593 15.824C137.167 15.824 136.825 15.76 136.569 15.632C136.313 15.504 136.1 15.3013 135.929 15.024C135.524 14.384 135.055 13.8187 134.521 13.328C133.988 12.816 133.273 12.56 132.377 12.56C131.503 12.56 130.521 12.7627 129.433 13.168C128.345 13.5733 127.545 14.0747 127.033 14.672C125.881 16.08 125.305 17.9467 125.305 20.272C125.305 22.128 125.881 23.7173 127.033 25.04C128.249 26.4053 129.785 27.088 131.641 27.088C132.495 27.088 133.423 26.9387 134.425 26.64C135.449 26.32 136.26 25.808 136.857 25.104H136.825C137.209 24.6987 137.689 24.496 138.265 24.496C138.607 24.496 138.927 24.6453 139.225 24.944C139.545 25.2427 139.705 25.5413 139.705 25.84C139.705 26.16 139.652 26.448 139.545 26.704C139.46 26.9387 139.289 27.2053 139.033 27.504C138.159 28.464 137.039 29.136 135.673 29.52C134.329 29.8827 132.793 30.064 131.065 30.064C129.636 30.064 128.26 29.7227 126.937 29.04C125.636 28.3573 124.559 27.4933 123.705 26.448C123.279 25.8293 122.863 24.944 122.457 23.792C122.073 22.6187 121.881 21.6693 121.881 20.944C121.881 19.088 122.159 17.328 122.713 15.664C123.289 13.9787 124.143 12.6347 125.273 11.632C126.02 10.9493 127.097 10.4373 128.505 10.096C129.913 9.75467 131.204 9.584 132.377 9.584C133.316 9.584 134.116 9.72267 134.777 10C135.46 10.256 136.047 10.608 136.537 11.056C137.028 11.4827 137.583 12.0693 138.201 12.816ZM158.047 13.168C157.834 17.3493 157.727 20.6773 157.727 23.152C157.727 24.432 157.759 25.648 157.823 26.8C157.994 26.928 158.325 26.992 158.815 26.992L159.551 26.96C159.85 26.9173 160.127 26.896 160.383 26.896C160.938 26.896 161.365 26.992 161.663 27.184C161.983 27.376 162.143 27.7493 162.143 28.304C162.143 28.8373 161.983 29.2533 161.663 29.552C161.365 29.8507 160.735 30 159.775 30C158.965 30 157.983 29.936 156.831 29.808C156.554 29.7867 156.287 29.7653 156.031 29.744C155.775 29.7227 155.541 29.712 155.327 29.712C154.154 29.7333 153.279 29.776 152.703 29.84C152.127 29.904 151.477 29.936 150.751 29.936C150.09 29.936 149.759 29.4347 149.759 28.432C149.759 27.472 150.378 26.992 151.615 26.992C151.807 26.992 152.117 27.0133 152.543 27.056C152.906 27.12 153.29 27.152 153.695 27.152C153.93 27.152 154.122 27.1413 154.271 27.12C154.293 25.6907 154.367 23.6107 154.495 20.88C154.623 17.68 154.687 15.312 154.687 13.776C154.581 13.7973 154.207 13.9467 153.567 14.224C152.586 14.7147 151.861 14.96 151.391 14.96C151.135 14.96 150.901 14.832 150.687 14.576C150.474 14.2987 150.367 13.9787 150.367 13.616C150.367 13.2533 150.591 12.9013 151.039 12.56C151.487 12.2187 152.213 11.7707 153.215 11.216C153.77 10.9387 154.303 10.6293 154.815 10.288C154.943 10.2027 155.125 10.1173 155.359 10.032C155.615 9.94667 155.807 9.904 155.935 9.904C156.49 9.904 156.991 10.0213 157.439 10.256C157.909 10.4693 158.143 10.7573 158.143 11.12L158.047 13.168ZM168.987 26.672C169.712 26.7147 170.192 26.736 170.427 26.736C171.152 26.736 171.792 26.7253 172.347 26.704C172.923 26.6827 173.414 26.6613 173.819 26.64C174.864 26.576 175.803 26.544 176.635 26.544C177.446 26.544 178.043 26.7573 178.427 27.184C178.811 27.6107 179.003 28.176 179.003 28.88C179.003 29.2213 178.779 29.4987 178.331 29.712C177.883 29.904 177.424 30 176.955 30C176.55 30 175.707 29.9573 174.427 29.872C172.891 29.744 171.686 29.68 170.811 29.68C170.342 29.68 169.787 29.712 169.147 29.776C168.891 29.7973 168.582 29.8187 168.219 29.84C167.856 29.8613 167.451 29.872 167.003 29.872C166.15 29.872 165.499 29.7547 165.051 29.52C164.603 29.2853 164.379 28.8587 164.379 28.24C164.379 27.7067 164.592 27.1627 165.019 26.608C165.446 26.0533 166.043 25.392 166.811 24.624L167.579 23.856C167.92 23.4933 168.55 22.8747 169.467 22C170.982 20.6347 172.155 19.4293 172.987 18.384C173.84 17.3387 174.267 16.304 174.267 15.28C174.267 14.6187 173.947 14.0853 173.307 13.68C172.688 13.2533 171.974 13.04 171.163 13.04C169.926 13.04 169.03 13.3173 168.475 13.872C167.942 14.4053 167.675 15.184 167.675 16.208C167.675 16.464 167.526 16.6987 167.227 16.912C166.95 17.104 166.598 17.2 166.171 17.2C165.574 17.2 165.158 16.9867 164.923 16.56C164.688 16.1333 164.571 15.6107 164.571 14.992C164.571 14.0107 164.87 13.1467 165.467 12.4C166.064 11.632 166.875 11.0347 167.899 10.608C168.944 10.1813 170.096 9.968 171.355 9.968C172.251 9.968 173.179 10.192 174.139 10.64C175.12 11.0667 175.931 11.6533 176.571 12.4C177.232 13.1253 177.563 13.9253 177.563 14.8C177.563 16.1227 177.232 17.3813 176.571 18.576C175.91 19.7707 175.131 20.8373 174.235 21.776C173.36 22.6933 172.219 23.7813 170.811 25.04C170.128 25.616 169.52 26.16 168.987 26.672ZM189.799 17.2C191.548 17.584 192.999 18.3413 194.151 19.472C195.303 20.6027 195.879 21.9147 195.879 23.408C195.879 24.304 195.665 25.1787 195.239 26.032C194.556 27.3973 193.532 28.4213 192.167 29.104C190.823 29.7867 189.265 30.128 187.495 30.128C186.385 30.128 185.393 29.9253 184.519 29.52C183.644 29.0933 182.78 28.528 181.927 27.824C181.607 27.5253 181.319 27.0987 181.063 26.544C180.828 25.9893 180.711 25.5307 180.711 25.168C180.711 24.6987 180.839 24.3253 181.095 24.048C181.372 23.7493 181.735 23.6 182.183 23.6C182.631 23.6 182.983 23.7067 183.239 23.92C183.495 24.1333 183.804 24.4747 184.167 24.944C184.508 25.392 184.817 25.7547 185.095 26.032C185.372 26.288 185.745 26.512 186.215 26.704C186.684 26.896 187.271 26.992 187.975 26.992C189.404 26.992 190.524 26.64 191.335 25.936C192.145 25.232 192.551 24.24 192.551 22.96C192.551 22.4693 192.284 21.9787 191.751 21.488C191.217 20.976 190.716 20.6133 190.247 20.4C189.969 20.2507 189.457 20.1013 188.711 19.952C187.708 19.696 186.951 19.4507 186.439 19.216C185.948 18.96 185.703 18.5653 185.703 18.032C185.703 17.6693 185.863 17.3173 186.183 16.976C186.503 16.6133 186.983 16.1653 187.623 15.632C188.263 15.0987 188.743 14.6613 189.063 14.32C189.383 13.9573 189.543 13.5947 189.543 13.232C189.137 13.1253 188.529 13.072 187.719 13.072C187.356 13.072 186.812 13.0933 186.087 13.136C185.447 13.1787 184.956 13.2 184.615 13.2C183.847 13.2 183.185 13.072 182.631 12.816C182.097 12.56 181.831 12.2293 181.831 11.824C181.831 11.376 181.873 11.024 181.959 10.768C182.044 10.4907 182.204 10.32 182.439 10.256C182.588 10.192 182.855 10.16 183.239 10.16C184.284 10.16 185.191 10.192 185.959 10.256C186.812 10.2987 187.463 10.32 187.911 10.32L190.567 10.288C192.743 10.288 193.831 10.8107 193.831 11.856C193.831 12.6453 193.425 13.5413 192.615 14.544C191.825 15.5253 190.887 16.4107 189.799 17.2ZM204.708 10.8C204.708 11.8453 204.516 13.0613 204.132 14.448C203.77 15.8133 203.236 17.4987 202.532 19.504L201.796 21.712C202.159 21.776 202.532 21.808 202.916 21.808C203.578 21.808 204.57 21.744 205.892 21.616C207.215 21.488 208.164 21.424 208.74 21.424L208.708 17.904C208.666 15.472 208.644 13.68 208.644 12.528C208.644 11.0133 209.146 10.256 210.148 10.256C210.938 10.256 211.439 10.4587 211.652 10.864C211.887 11.2693 212.004 11.8773 212.004 12.688C212.004 13.52 211.94 14.8107 211.812 16.56C211.791 16.9013 211.759 17.4667 211.716 18.256C211.674 19.0453 211.652 19.728 211.652 20.304L211.684 21.328L212.324 21.296C212.836 21.2533 213.231 21.232 213.508 21.232C214.02 21.232 214.511 21.4027 214.98 21.744C215.45 22.064 215.684 22.448 215.684 22.896C215.684 23.4293 215.599 23.8453 215.428 24.144C215.279 24.4427 215.098 24.592 214.884 24.592C214.522 24.592 214.063 24.5493 213.508 24.464C213.38 24.464 213.188 24.4533 212.932 24.432C212.676 24.3893 212.431 24.368 212.196 24.368L211.652 24.4L211.684 28.72C211.684 29.168 211.535 29.5093 211.236 29.744C210.938 29.9787 210.596 30.096 210.212 30.096C209.743 30.096 209.327 29.9467 208.964 29.648C208.602 29.3493 208.42 28.976 208.42 28.528C208.42 27.0987 208.442 25.9787 208.484 25.168C208.506 24.976 208.516 24.7413 208.516 24.464C207.876 24.4427 206.767 24.5173 205.188 24.688C203.695 24.8587 202.564 24.944 201.796 24.944C200.815 24.944 199.983 24.8053 199.3 24.528C198.639 24.2507 198.308 23.8133 198.308 23.216C198.308 22.64 198.426 21.936 198.66 21.104C198.895 20.272 199.247 19.152 199.716 17.744C199.93 17.1893 200.09 16.7307 200.196 16.368C200.58 15.28 200.868 14.3627 201.06 13.616C201.252 12.848 201.466 11.92 201.7 10.832C201.786 10.4907 201.967 10.2347 202.244 10.064C202.522 9.89333 202.842 9.808 203.204 9.808C203.588 9.808 203.93 9.904 204.228 10.096C204.548 10.2667 204.708 10.5013 204.708 10.8ZM222.455 13.232C222.306 13.8293 222.21 14.6187 222.167 15.6C222.124 16.4533 222.06 17.0933 221.975 17.52C222.594 17.264 223.18 17.104 223.735 17.04C224.29 16.9547 224.994 16.912 225.847 16.912C227.17 16.912 228.322 17.2213 229.303 17.84C230.284 18.4373 231.031 19.248 231.543 20.272C232.055 21.2747 232.311 22.352 232.311 23.504C232.311 23.952 232.162 24.56 231.863 25.328C231.564 26.0747 231.255 26.6507 230.935 27.056C230.188 28.0373 229.324 28.7947 228.343 29.328C227.362 29.84 226.295 30.096 225.143 30.096C224.268 30.096 223.468 29.9787 222.743 29.744C222.039 29.488 221.282 29.1467 220.471 28.72C219.639 28.272 219.031 27.8133 218.647 27.344C218.284 26.8533 218.103 26.2453 218.103 25.52C218.103 25.136 218.263 24.8267 218.583 24.592C218.924 24.336 219.244 24.208 219.543 24.208C219.735 24.208 219.906 24.2613 220.055 24.368C220.204 24.4747 220.45 24.688 220.791 25.008L221.591 25.776C222.103 26.2027 222.604 26.5227 223.095 26.736C223.607 26.9493 224.226 27.056 224.951 27.056C225.612 27.056 226.146 26.9707 226.551 26.8C227.362 26.48 227.991 26.064 228.439 25.552C228.908 25.04 229.143 24.2187 229.143 23.088C229.143 22 228.78 21.1573 228.055 20.56C227.33 19.9413 226.103 19.632 224.375 19.632C224.14 19.632 223.799 19.696 223.351 19.824C222.903 19.952 222.466 20.0907 222.039 20.24C221.015 20.5813 220.386 20.752 220.151 20.752C219.852 20.752 219.554 20.624 219.255 20.368C218.956 20.112 218.807 19.7707 218.807 19.344C219.191 16.7627 219.383 14.6187 219.383 12.912L219.351 12.112C219.308 11.728 219.287 11.408 219.287 11.152C219.287 10.768 219.49 10.48 219.895 10.288C220.322 10.0747 220.759 9.968 221.207 9.968C221.591 9.968 222.423 10.032 223.703 10.16L225.239 10.288C225.431 10.3093 225.719 10.32 226.103 10.32L227.287 10.288C227.522 10.2667 227.863 10.256 228.311 10.256C228.951 10.256 229.484 10.352 229.911 10.544C230.338 10.736 230.551 11.0453 230.551 11.472C230.551 12.1333 230.444 12.6133 230.231 12.912C230.018 13.2107 229.772 13.36 229.495 13.36C229.239 13.36 228.812 13.3173 228.215 13.232C227.426 13.1467 226.498 13.104 225.431 13.104C224.684 13.104 223.692 13.1467 222.455 13.232ZM246.487 26.672C247.212 26.7147 247.692 26.736 247.927 26.736C248.652 26.736 249.292 26.7253 249.847 26.704C250.423 26.6827 250.914 26.6613 251.319 26.64C252.364 26.576 253.303 26.544 254.135 26.544C254.946 26.544 255.543 26.7573 255.927 27.184C256.311 27.6107 256.503 28.176 256.503 28.88C256.503 29.2213 256.279 29.4987 255.831 29.712C255.383 29.904 254.924 30 254.455 30C254.05 30 253.207 29.9573 251.927 29.872C250.391 29.744 249.186 29.68 248.311 29.68C247.842 29.68 247.287 29.712 246.647 29.776C246.391 29.7973 246.082 29.8187 245.719 29.84C245.356 29.8613 244.951 29.872 244.503 29.872C243.65 29.872 242.999 29.7547 242.551 29.52C242.103 29.2853 241.879 28.8587 241.879 28.24C241.879 27.7067 242.092 27.1627 242.519 26.608C242.946 26.0533 243.543 25.392 244.311 24.624L245.079 23.856C245.42 23.4933 246.05 22.8747 246.967 22C248.482 20.6347 249.655 19.4293 250.487 18.384C251.34 17.3387 251.767 16.304 251.767 15.28C251.767 14.6187 251.447 14.0853 250.807 13.68C250.188 13.2533 249.474 13.04 248.663 13.04C247.426 13.04 246.53 13.3173 245.975 13.872C245.442 14.4053 245.175 15.184 245.175 16.208C245.175 16.464 245.026 16.6987 244.727 16.912C244.45 17.104 244.098 17.2 243.671 17.2C243.074 17.2 242.658 16.9867 242.423 16.56C242.188 16.1333 242.071 15.6107 242.071 14.992C242.071 14.0107 242.37 13.1467 242.967 12.4C243.564 11.632 244.375 11.0347 245.399 10.608C246.444 10.1813 247.596 9.968 248.855 9.968C249.751 9.968 250.679 10.192 251.639 10.64C252.62 11.0667 253.431 11.6533 254.071 12.4C254.732 13.1253 255.063 13.9253 255.063 14.8C255.063 16.1227 254.732 17.3813 254.071 18.576C253.41 19.7707 252.631 20.8373 251.735 21.776C250.86 22.6933 249.719 23.7813 248.311 25.04C247.628 25.616 247.02 26.16 246.487 26.672ZM267.299 17.2C269.048 17.584 270.499 18.3413 271.651 19.472C272.803 20.6027 273.379 21.9147 273.379 23.408C273.379 24.304 273.165 25.1787 272.739 26.032C272.056 27.3973 271.032 28.4213 269.667 29.104C268.323 29.7867 266.765 30.128 264.995 30.128C263.885 30.128 262.893 29.9253 262.019 29.52C261.144 29.0933 260.28 28.528 259.427 27.824C259.107 27.5253 258.819 27.0987 258.563 26.544C258.328 25.9893 258.211 25.5307 258.211 25.168C258.211 24.6987 258.339 24.3253 258.595 24.048C258.872 23.7493 259.235 23.6 259.683 23.6C260.131 23.6 260.483 23.7067 260.739 23.92C260.995 24.1333 261.304 24.4747 261.667 24.944C262.008 25.392 262.317 25.7547 262.595 26.032C262.872 26.288 263.245 26.512 263.715 26.704C264.184 26.896 264.771 26.992 265.475 26.992C266.904 26.992 268.024 26.64 268.835 25.936C269.645 25.232 270.051 24.24 270.051 22.96C270.051 22.4693 269.784 21.9787 269.251 21.488C268.717 20.976 268.216 20.6133 267.747 20.4C267.469 20.2507 266.957 20.1013 266.211 19.952C265.208 19.696 264.451 19.4507 263.939 19.216C263.448 18.96 263.203 18.5653 263.203 18.032C263.203 17.6693 263.363 17.3173 263.683 16.976C264.003 16.6133 264.483 16.1653 265.123 15.632C265.763 15.0987 266.243 14.6613 266.563 14.32C266.883 13.9573 267.043 13.5947 267.043 13.232C266.637 13.1253 266.029 13.072 265.219 13.072C264.856 13.072 264.312 13.0933 263.587 13.136C262.947 13.1787 262.456 13.2 262.115 13.2C261.347 13.2 260.685 13.072 260.131 12.816C259.597 12.56 259.331 12.2293 259.331 11.824C259.331 11.376 259.373 11.024 259.459 10.768C259.544 10.4907 259.704 10.32 259.939 10.256C260.088 10.192 260.355 10.16 260.739 10.16C261.784 10.16 262.691 10.192 263.459 10.256C264.312 10.2987 264.963 10.32 265.411 10.32L268.067 10.288C270.243 10.288 271.331 10.8107 271.331 11.856C271.331 12.6453 270.925 13.5413 270.115 14.544C269.325 15.5253 268.387 16.4107 267.299 17.2ZM297.492 11.952C298.196 13.04 298.761 14.288 299.188 15.696C299.614 17.0827 299.828 18.5013 299.828 19.952C299.828 21.68 299.529 23.3227 298.932 24.88C298.356 26.4373 297.481 27.7067 296.308 28.688C295.156 29.6693 293.748 30.16 292.084 30.16C290.526 30.16 289.097 29.7653 287.796 28.976C286.494 28.1653 285.513 27.2267 284.852 26.16C284.361 25.3707 283.988 24.4853 283.732 23.504C283.476 22.5013 283.348 21.4987 283.348 20.496C283.348 18.7467 283.71 17.04 284.436 15.376C285.182 13.712 286.206 12.3787 287.508 11.376C288.745 10.4587 290.164 10 291.764 10C293.534 10 295.444 10.6507 297.492 11.952ZM288.916 14.16C288.724 14.48 288.532 14.768 288.34 15.024C287.87 15.728 287.529 16.3253 287.316 16.816C287.102 17.2853 286.91 18.0107 286.74 18.992C286.654 19.44 286.612 19.9627 286.612 20.56C286.612 22.0747 286.91 23.3867 287.508 24.496C288.126 25.584 288.969 26.32 290.036 26.704C290.548 26.896 291.124 26.992 291.764 26.992C293.364 26.992 294.569 26.288 295.38 24.88C296.212 23.4507 296.628 21.6907 296.628 19.6C296.628 17.6587 296.265 16.0693 295.54 14.832C294.814 13.5733 293.694 12.944 292.18 12.944C291.561 12.944 291.028 13.04 290.58 13.232C290.153 13.424 289.598 13.7333 288.916 14.16ZM317.211 11.952C317.915 13.04 318.48 14.288 318.907 15.696C319.333 17.0827 319.547 18.5013 319.547 19.952C319.547 21.68 319.248 23.3227 318.651 24.88C318.075 26.4373 317.2 27.7067 316.027 28.688C314.875 29.6693 313.467 30.16 311.803 30.16C310.245 30.16 308.816 29.7653 307.515 28.976C306.213 28.1653 305.232 27.2267 304.571 26.16C304.08 25.3707 303.707 24.4853 303.451 23.504C303.195 22.5013 303.067 21.4987 303.067 20.496C303.067 18.7467 303.429 17.04 304.155 15.376C304.901 13.712 305.925 12.3787 307.227 11.376C308.464 10.4587 309.883 10 311.483 10C313.253 10 315.163 10.6507 317.211 11.952ZM308.635 14.16C308.443 14.48 308.251 14.768 308.059 15.024C307.589 15.728 307.248 16.3253 307.035 16.816C306.821 17.2853 306.629 18.0107 306.459 18.992C306.373 19.44 306.331 19.9627 306.331 20.56C306.331 22.0747 306.629 23.3867 307.227 24.496C307.845 25.584 308.688 26.32 309.755 26.704C310.267 26.896 310.843 26.992 311.483 26.992C313.083 26.992 314.288 26.288 315.099 24.88C315.931 23.4507 316.347 21.6907 316.347 19.6C316.347 17.6587 315.984 16.0693 315.259 14.832C314.533 13.5733 313.413 12.944 311.899 12.944C311.28 12.944 310.747 13.04 310.299 13.232C309.872 13.424 309.317 13.7333 308.635 14.16ZM336.929 11.952C337.633 13.04 338.199 14.288 338.625 15.696C339.052 17.0827 339.265 18.5013 339.265 19.952C339.265 21.68 338.967 23.3227 338.369 24.88C337.793 26.4373 336.919 27.7067 335.745 28.688C334.593 29.6693 333.185 30.16 331.521 30.16C329.964 30.16 328.535 29.7653 327.233 28.976C325.932 28.1653 324.951 27.2267 324.289 26.16C323.799 25.3707 323.425 24.4853 323.169 23.504C322.913 22.5013 322.785 21.4987 322.785 20.496C322.785 18.7467 323.148 17.04 323.873 15.376C324.62 13.712 325.644 12.3787 326.945 11.376C328.183 10.4587 329.601 10 331.201 10C332.972 10 334.881 10.6507 336.929 11.952ZM328.353 14.16C328.161 14.48 327.969 14.768 327.777 15.024C327.308 15.728 326.967 16.3253 326.753 16.816C326.54 17.2853 326.348 18.0107 326.177 18.992C326.092 19.44 326.049 19.9627 326.049 20.56C326.049 22.0747 326.348 23.3867 326.945 24.496C327.564 25.584 328.407 26.32 329.473 26.704C329.985 26.896 330.561 26.992 331.201 26.992C332.801 26.992 334.007 26.288 334.817 24.88C335.649 23.4507 336.065 21.6907 336.065 19.6C336.065 17.6587 335.703 16.0693 334.977 14.832C334.252 13.5733 333.132 12.944 331.617 12.944C330.999 12.944 330.465 13.04 330.017 13.232C329.591 13.424 329.036 13.7333 328.353 14.16ZM356.648 11.952C357.352 13.04 357.917 14.288 358.344 15.696C358.771 17.0827 358.984 18.5013 358.984 19.952C358.984 21.68 358.685 23.3227 358.088 24.88C357.512 26.4373 356.637 27.7067 355.464 28.688C354.312 29.6693 352.904 30.16 351.24 30.16C349.683 30.16 348.253 29.7653 346.952 28.976C345.651 28.1653 344.669 27.2267 344.008 26.16C343.517 25.3707 343.144 24.4853 342.888 23.504C342.632 22.5013 342.504 21.4987 342.504 20.496C342.504 18.7467 342.867 17.04 343.592 15.376C344.339 13.712 345.363 12.3787 346.664 11.376C347.901 10.4587 349.32 10 350.92 10C352.691 10 354.6 10.6507 356.648 11.952ZM348.072 14.16C347.88 14.48 347.688 14.768 347.496 15.024C347.027 15.728 346.685 16.3253 346.472 16.816C346.259 17.2853 346.067 18.0107 345.896 18.992C345.811 19.44 345.768 19.9627 345.768 20.56C345.768 22.0747 346.067 23.3867 346.664 24.496C347.283 25.584 348.125 26.32 349.192 26.704C349.704 26.896 350.28 26.992 350.92 26.992C352.52 26.992 353.725 26.288 354.536 24.88C355.368 23.4507 355.784 21.6907 355.784 19.6C355.784 17.6587 355.421 16.0693 354.696 14.832C353.971 13.5733 352.851 12.944 351.336 12.944C350.717 12.944 350.184 13.04 349.736 13.232C349.309 13.424 348.755 13.7333 348.072 14.16ZM370.735 13.168C370.521 17.3493 370.415 20.6773 370.415 23.152C370.415 24.432 370.447 25.648 370.511 26.8C370.681 26.928 371.012 26.992 371.503 26.992L372.239 26.96C372.537 26.9173 372.815 26.896 373.071 26.896C373.625 26.896 374.052 26.992 374.351 27.184C374.671 27.376 374.831 27.7493 374.831 28.304C374.831 28.8373 374.671 29.2533 374.351 29.552C374.052 29.8507 373.423 30 372.463 30C371.652 30 370.671 29.936 369.519 29.808C369.241 29.7867 368.975 29.7653 368.719 29.744C368.463 29.7227 368.228 29.712 368.015 29.712C366.841 29.7333 365.967 29.776 365.391 29.84C364.815 29.904 364.164 29.936 363.439 29.936C362.777 29.936 362.447 29.4347 362.447 28.432C362.447 27.472 363.065 26.992 364.303 26.992C364.495 26.992 364.804 27.0133 365.231 27.056C365.593 27.12 365.977 27.152 366.383 27.152C366.617 27.152 366.809 27.1413 366.959 27.12C366.98 25.6907 367.055 23.6107 367.183 20.88C367.311 17.68 367.375 15.312 367.375 13.776C367.268 13.7973 366.895 13.9467 366.255 14.224C365.273 14.7147 364.548 14.96 364.079 14.96C363.823 14.96 363.588 14.832 363.375 14.576C363.161 14.2987 363.055 13.9787 363.055 13.616C363.055 13.2533 363.279 12.9013 363.727 12.56C364.175 12.2187 364.9 11.7707 365.903 11.216C366.457 10.9387 366.991 10.6293 367.503 10.288C367.631 10.2027 367.812 10.1173 368.047 10.032C368.303 9.94667 368.495 9.904 368.623 9.904C369.177 9.904 369.679 10.0213 370.127 10.256C370.596 10.4693 370.831 10.7573 370.831 11.12L370.735 13.168Z" fill="#000091"/>
<path fill-rule="evenodd" clip-rule="evenodd" d="M95 184C94.4486 184 94 183.551 94 183C94 182.449 94.4486 182 95 182C95.5514 182 96 182.449 96 183C96 183.551 95.5514 184 95 184Z" fill="#CACAFB"/>
<path fill-rule="evenodd" clip-rule="evenodd" d="M99 112C98.4486 112 98 111.551 98 111C98 110.449 98.4486 110 99 110C99.5514 110 100 110.449 100 111C100 111.551 99.5514 112 99 112Z" fill="#CACAFB"/>
<path fill-rule="evenodd" clip-rule="evenodd" d="M65 184C64.4486 184 64 183.551 64 183C64 182.449 64.4486 182 65 182C65.5514 182 66 182.449 66 183C66 183.551 65.5514 184 65 184Z" fill="#CACAFB"/>
<path d="M82.9933 115.883C82.9355 115.386 82.5128 115 82 115C81.4477 115 81 115.448 81 116V120L81.0067 120.117C81.0645 120.614 81.4872 121 82 121C82.5523 121 83 120.552 83 120V116L82.9933 115.883Z" fill="#E1000F"/>
<path d="M58 141C58 140.448 57.5523 140 57 140H51L50.8834 140.007C50.386 140.064 50 140.487 50 141C50 141.552 50.4477 142 51 142H57L57.1166 141.993C57.614 141.936 58 141.513 58 141Z" fill="#E1000F"/>
<path fill-rule="evenodd" clip-rule="evenodd" d="M78 140C76.3431 140 75 141.343 75 143C75 144.657 76.3431 146 78 146C79.6569 146 81 144.657 81 143C81 141.343 79.6569 140 78 140ZM78 142C78.5523 142 79 142.448 79 143C79 143.552 78.5523 144 78 144C77.4477 144 77 143.552 77 143C77 142.448 77.4477 142 78 142Z" fill="#E1000F"/>
<path d="M57 144C57.5523 144 58 144.448 58 145C58 145.513 57.614 145.936 57.1166 145.993L57 146H51C50.4477 146 50 145.552 50 145C50 144.487 50.386 144.064 50.8834 144.007L51 144H57Z" fill="#E1000F"/>
<path d="M70 141C70 140.448 69.5523 140 69 140H63L62.8834 140.007C62.386 140.064 62 140.487 62 141C62 141.552 62.4477 142 63 142H69L69.1166 141.993C69.614 141.936 70 141.513 70 141Z" fill="#E1000F"/>
<path d="M69 144C69.5523 144 70 144.448 70 145C70 145.513 69.614 145.936 69.1166 145.993L69 146H63C62.4477 146 62 145.552 62 145C62 144.487 62.386 144.064 62.8834 144.007L63 144H69Z" fill="#E1000F"/>
<path d="M94 141C94 140.448 93.5523 140 93 140H87L86.8834 140.007C86.386 140.064 86 140.487 86 141C86 141.552 86.4477 142 87 142H93L93.1166 141.993C93.614 141.936 94 141.513 94 141Z" fill="#E1000F"/>
<path d="M93 144C93.5523 144 94 144.448 94 145C94 145.513 93.614 145.936 93.1166 145.993L93 146H87C86.4477 146 86 145.552 86 145C86 144.487 86.386 144.064 86.8834 144.007L87 144H93Z" fill="#E1000F"/>
<path d="M106 141C106 140.448 105.552 140 105 140H99L98.8834 140.007C98.386 140.064 98 140.487 98 141C98 141.552 98.4477 142 99 142H105L105.117 141.993C105.614 141.936 106 141.513 106 141Z" fill="#E1000F"/>
<path d="M105 144C105.552 144 106 144.448 106 145C106 145.513 105.614 145.936 105.117 145.993L105 146H99C98.4477 146 98 145.552 98 145C98 144.487 98.386 144.064 98.8834 144.007L99 144H105Z" fill="#E1000F"/>
<path d="M78.9933 115.883C78.9355 115.386 78.5128 115 78 115C77.4477 115 77 115.448 77 116V120L77.0067 120.117C77.0645 120.614 77.4872 121 78 121C78.5523 121 79 120.552 79 120V116L78.9933 115.883Z" fill="#000091"/>
<path d="M78.9933 122.883C78.9355 122.386 78.5128 122 78 122C77.4477 122 77 122.448 77 123V126H55L54.8834 126.007C54.386 126.064 54 126.487 54 127V132H41L40.8834 132.007C40.386 132.064 40 132.487 40 133C40 133.552 40.4477 134 41 134H115L115.117 133.993C115.614 133.936 116 133.513 116 133C116 132.448 115.552 132 115 132H102V127L101.993 126.883C101.936 126.386 101.513 126 101 126C100.448 126 100 126.448 100 127V132H56V128H91L91.1166 127.993C91.614 127.936 92 127.513 92 127C92 126.448 91.5523 126 91 126H79V123L78.9933 122.883Z" fill="#000091"/>
<path d="M63 150C63.5128 150 63.9355 150.386 63.9933 150.883L64 151V171C64 171.552 63.5523 172 63 172C62.4872 172 62.0645 171.614 62.0067 171.117L62 171V151C62 150.448 62.4477 150 63 150Z" fill="#000091"/>
<path d="M59.9933 154.883C59.9355 154.386 59.5128 154 59 154C58.4477 154 58 154.448 58 155V174H50V155L49.9933 154.883C49.9355 154.386 49.5128 154 49 154C48.4477 154 48 154.448 48 155V174H45L44.8834 174.007C44.386 174.064 44 174.487 44 175C44 175.552 44.4477 176 45 176H59C59.069 176 59.1364 175.993 59.2015 175.98C59.6572 175.886 60 175.483 60 175V155L59.9933 154.883Z" fill="#000091"/>
<path d="M53 150C53.5128 150 53.9355 150.386 53.9933 150.883L54 151V167C54 167.552 53.5523 168 53 168C52.4872 168 52.0645 167.614 52.0067 167.117L52 167V151C52 150.448 52.4477 150 53 150Z" fill="#000091"/>
<path d="M97 126C97.5523 126 98 126.448 98 127C98 127.513 97.614 127.936 97.1166 127.993L97 128H95C94.4477 128 94 127.552 94 127C94 126.487 94.386 126.064 94.8834 126.007L95 126H97Z" fill="#000091"/>
<path d="M45 136C45.5128 136 45.9355 136.386 45.9933 136.883L46 137V171C46 171.552 45.5523 172 45 172C44.4872 172 44.0645 171.614 44.0067 171.117L44 171V137C44 136.448 44.4477 136 45 136Z" fill="#000091"/>
<path fill-rule="evenodd" clip-rule="evenodd" d="M85.9933 154.883C85.9355 154.386 85.5128 154 85 154H71L70.8834 154.007C70.386 154.064 70 154.487 70 155V170H67L66.8834 170.007C66.386 170.064 66 170.487 66 171C66 171.552 66.4477 172 67 172H89L89.1166 171.993C89.614 171.936 90 171.513 90 171C90 170.448 89.5523 170 89 170H86V155L85.9933 154.883ZM77 170H72V155.999H84V170H79V161L78.9933 160.883C78.9355 160.386 78.5128 160 78 160C77.4477 160 77 160.448 77 161V170Z" fill="#000091"/>
<path d="M83 150C83.5523 150 84 150.448 84 151C84 151.513 83.614 151.936 83.1166 151.993L83 152H73C72.4477 152 72 151.552 72 151C72 150.487 72.386 150.064 72.8834 150.007L73 150H83Z" fill="#000091"/>
<path d="M93 150C92.4872 150 92.0645 150.386 92.0067 150.883L92 151V171C92 171.552 92.4477 172 93 172C93.5128 172 93.9355 171.614 93.9933 171.117L94 171V151C94 150.448 93.5523 150 93 150Z" fill="#000091"/>
<path d="M96.0067 154.883C96.0645 154.386 96.4872 154 97 154C97.5523 154 98 154.448 98 155V167L97.9933 167.117C97.9355 167.614 97.5128 168 97 168C96.4477 168 96 167.552 96 167V155L96.0067 154.883Z" fill="#000091"/>
<path d="M103 150C102.487 150 102.064 150.386 102.007 150.883L102 151V171C102 171.552 102.448 172 103 172C103.513 172 103.936 171.614 103.993 171.117L104 171V151C104 150.448 103.552 150 103 150Z" fill="#000091"/>
<path d="M106.007 154.883C106.064 154.386 106.487 154 107 154C107.552 154 108 154.448 108 155V175C108 175.039 107.998 175.078 107.993 175.117C107.94 175.576 107.576 175.94 107.117 175.993C107.078 175.998 107.039 176 107 176H63C62.4477 176 62 175.552 62 175C62 174.487 62.386 174.064 62.8834 174.007L63 174H106V155L106.007 154.883Z" fill="#000091"/>
<path d="M111 136C111.513 136 111.936 136.386 111.993 136.883L112 137V175C112 175.552 111.552 176 111 176C110.487 176 110.064 175.614 110.007 175.117L110 175V137C110 136.448 110.448 136 111 136Z" fill="#000091"/>
<path d="M31.8477 211.551H30.1582L31.457 207.156H32.834L31.8477 211.551ZM35.5781 211.551H33.8984L35.1875 207.156H36.5645L35.5781 211.551ZM52.2871 222H49.377L41.7402 211.346V222H39.1621V207.352H42.0723L49.709 218.016V207.352H52.2871V222ZM59.4258 222.195C58.4297 222.195 57.5378 221.974 56.75 221.531C55.9688 221.089 55.3503 220.486 54.8945 219.725C54.4453 218.956 54.2207 218.087 54.2207 217.117C54.2207 216.147 54.4453 215.281 54.8945 214.52C55.3503 213.751 55.9688 213.146 56.75 212.703C57.5378 212.26 58.4297 212.039 59.4258 212.039C60.4154 212.039 61.3008 212.26 62.082 212.703C62.8633 213.146 63.4753 213.751 63.918 214.52C64.3672 215.281 64.5918 216.147 64.5918 217.117C64.5918 218.087 64.3672 218.956 63.918 219.725C63.4753 220.486 62.8633 221.089 62.082 221.531C61.3008 221.974 60.4154 222.195 59.4258 222.195ZM59.4062 220.037C59.9271 220.037 60.3926 219.91 60.8027 219.656C61.2129 219.402 61.5352 219.054 61.7695 218.611C62.0104 218.169 62.1309 217.667 62.1309 217.107C62.1309 216.554 62.0104 216.059 61.7695 215.623C61.5352 215.18 61.2129 214.832 60.8027 214.578C60.3926 214.324 59.9271 214.197 59.4062 214.197C58.8919 214.197 58.4264 214.324 58.0098 214.578C57.5996 214.832 57.2741 215.18 57.0332 215.623C56.7988 216.059 56.6816 216.554 56.6816 217.107C56.6816 217.667 56.7988 218.169 57.0332 218.611C57.2741 219.054 57.5996 219.402 58.0098 219.656C58.4264 219.91 58.8919 220.037 59.4062 220.037ZM75.8711 222H73.8887L73.8105 220.428C73.459 221.001 72.9967 221.44 72.4238 221.746C71.8509 222.046 71.1738 222.195 70.3926 222.195C69.1361 222.195 68.1432 221.811 67.4141 221.043C66.6914 220.268 66.3301 219.204 66.3301 217.85V212.234H68.7324V217.391C68.7324 218.204 68.9375 218.849 69.3477 219.324C69.7643 219.793 70.3275 220.027 71.0371 220.027C71.7728 220.027 72.362 219.777 72.8047 219.275C73.2474 218.774 73.4688 218.107 73.4688 217.273V212.234H75.8711V222ZM88.0781 212.234L84.0449 222H81.7207L77.6973 212.234H80.2754L82.8926 219.559L85.5195 212.234H88.0781ZM98.4688 220.867C97.2513 221.753 95.9199 222.195 94.4746 222.195C93.4264 222.195 92.4857 221.967 91.6523 221.512C90.819 221.056 90.1582 220.434 89.6699 219.646C89.1882 218.852 88.9473 217.96 88.9473 216.971C88.9473 216.027 89.1654 215.184 89.6016 214.441C90.0443 213.699 90.6465 213.113 91.4082 212.684C92.1764 212.254 93.0423 212.039 94.0059 212.039C95.0085 212.039 95.8874 212.277 96.6426 212.752C97.4043 213.221 97.9967 213.875 98.4199 214.715C98.8431 215.548 99.0547 216.518 99.0547 217.625V217.938H91.5352C91.6523 218.38 91.8574 218.771 92.1504 219.109C92.4499 219.448 92.821 219.712 93.2637 219.9C93.7064 220.089 94.2044 220.184 94.7578 220.184C95.7995 220.184 96.763 219.845 97.6484 219.168L98.4688 220.867ZM91.4375 216.531H96.8281C96.776 216.043 96.6263 215.617 96.3789 215.252C96.138 214.887 95.8223 214.604 95.4316 214.402C95.0475 214.194 94.6146 214.09 94.1328 214.09C93.6445 214.09 93.2083 214.194 92.8242 214.402C92.4401 214.611 92.1276 214.9 91.8867 215.271C91.6458 215.636 91.4961 216.056 91.4375 216.531ZM109.436 222H107.346L107.209 220.799C106.851 221.242 106.405 221.587 105.871 221.834C105.337 222.075 104.745 222.195 104.094 222.195C103.404 222.195 102.788 222.062 102.248 221.795C101.708 221.521 101.281 221.15 100.969 220.682C100.663 220.213 100.51 219.679 100.51 219.08C100.51 218.449 100.676 217.895 101.008 217.42C101.346 216.938 101.805 216.561 102.385 216.287C102.971 216.014 103.638 215.877 104.387 215.877C104.842 215.877 105.298 215.929 105.754 216.033C106.216 216.137 106.643 216.284 107.033 216.473V216.16C107.033 215.73 106.916 215.359 106.682 215.047C106.447 214.734 106.132 214.493 105.734 214.324C105.337 214.148 104.891 214.061 104.396 214.061C103.947 214.061 103.498 214.139 103.049 214.295C102.6 214.445 102.18 214.669 101.789 214.969L101.105 213.084C101.73 212.739 102.368 212.479 103.02 212.303C103.677 212.127 104.318 212.039 104.943 212.039C105.861 212.039 106.656 212.221 107.326 212.586C107.997 212.944 108.514 213.458 108.879 214.129C109.25 214.793 109.436 215.577 109.436 216.482V222ZM104.592 220.262C105.015 220.262 105.406 220.174 105.764 219.998C106.128 219.822 106.424 219.578 106.652 219.266C106.887 218.947 107.01 218.582 107.023 218.172V218.064C106.717 217.843 106.372 217.674 105.988 217.557C105.604 217.433 105.217 217.371 104.826 217.371C104.227 217.371 103.736 217.508 103.352 217.781C102.967 218.048 102.775 218.4 102.775 218.836C102.775 219.103 102.854 219.347 103.01 219.568C103.166 219.783 103.381 219.952 103.654 220.076C103.934 220.2 104.247 220.262 104.592 220.262ZM121.184 222H119.201L119.123 220.428C118.771 221.001 118.309 221.44 117.736 221.746C117.163 222.046 116.486 222.195 115.705 222.195C114.449 222.195 113.456 221.811 112.727 221.043C112.004 220.268 111.643 219.204 111.643 217.85V212.234H114.045V217.391C114.045 218.204 114.25 218.849 114.66 219.324C115.077 219.793 115.64 220.027 116.35 220.027C117.085 220.027 117.674 219.777 118.117 219.275C118.56 218.774 118.781 218.107 118.781 217.273V212.234H121.184V222ZM10.002 245.496C9.52669 246.036 8.95052 246.456 8.27344 246.756C7.59635 247.049 6.85742 247.195 6.05664 247.195C5.06706 247.195 4.17839 246.974 3.39062 246.531C2.60938 246.089 1.99089 245.486 1.53516 244.725C1.08594 243.956 0.861328 243.087 0.861328 242.117C0.861328 241.147 1.08594 240.281 1.53516 239.52C1.99089 238.751 2.60938 238.146 3.39062 237.703C4.17839 237.26 5.06706 237.039 6.05664 237.039C6.85091 237.039 7.58333 237.186 8.25391 237.479C8.93099 237.771 9.50716 238.185 9.98242 238.719L8.57617 240.213C8.2832 239.894 7.92839 239.646 7.51172 239.471C7.10156 239.295 6.66536 239.207 6.20312 239.207C5.64323 239.207 5.14518 239.331 4.70898 239.578C4.2793 239.826 3.94076 240.167 3.69336 240.604C3.45247 241.04 3.33203 241.541 3.33203 242.107C3.33203 242.674 3.45247 243.178 3.69336 243.621C3.94076 244.057 4.2793 244.402 4.70898 244.656C5.14518 244.904 5.64323 245.027 6.20312 245.027C6.66536 245.027 7.10482 244.939 7.52148 244.764C7.93815 244.581 8.28971 244.334 8.57617 244.021L10.002 245.496ZM11.8965 247V232.352H14.2988V238.484C15.015 237.521 16.0664 237.039 17.4531 237.039C18.7031 237.039 19.6797 237.423 20.3828 238.191C21.0859 238.953 21.4375 240.014 21.4375 241.375V247H19.0352V241.99C19.0352 241.105 18.8301 240.418 18.4199 239.93C18.0098 239.435 17.4336 239.188 16.6914 239.188C15.9427 239.188 15.3568 239.438 14.9336 239.939C14.5104 240.434 14.2988 241.118 14.2988 241.99V247H11.8965ZM32.2871 247H30.1973L30.0605 245.799C29.7025 246.242 29.2565 246.587 28.7227 246.834C28.1888 247.075 27.5964 247.195 26.9453 247.195C26.2552 247.195 25.64 247.062 25.0996 246.795C24.5592 246.521 24.1328 246.15 23.8203 245.682C23.5143 245.213 23.3613 244.679 23.3613 244.08C23.3613 243.449 23.5273 242.895 23.8594 242.42C24.1979 241.938 24.6569 241.561 25.2363 241.287C25.8223 241.014 26.4896 240.877 27.2383 240.877C27.694 240.877 28.1497 240.929 28.6055 241.033C29.0677 241.137 29.4941 241.284 29.8848 241.473V241.16C29.8848 240.73 29.7676 240.359 29.5332 240.047C29.2988 239.734 28.9831 239.493 28.5859 239.324C28.1888 239.148 27.7428 239.061 27.248 239.061C26.7988 239.061 26.3496 239.139 25.9004 239.295C25.4512 239.445 25.0312 239.669 24.6406 239.969L23.957 238.084C24.582 237.739 25.2201 237.479 25.8711 237.303C26.5286 237.127 27.1699 237.039 27.7949 237.039C28.7129 237.039 29.5072 237.221 30.1777 237.586C30.8483 237.944 31.3659 238.458 31.7305 239.129C32.1016 239.793 32.2871 240.577 32.2871 241.482V247ZM27.4434 245.262C27.8665 245.262 28.2572 245.174 28.6152 244.998C28.9798 244.822 29.276 244.578 29.5039 244.266C29.7383 243.947 29.862 243.582 29.875 243.172V243.064C29.569 242.843 29.224 242.674 28.8398 242.557C28.4557 242.433 28.0684 242.371 27.6777 242.371C27.0788 242.371 26.5872 242.508 26.2031 242.781C25.819 243.048 25.627 243.4 25.627 243.836C25.627 244.103 25.7051 244.347 25.8613 244.568C26.0176 244.783 26.2324 244.952 26.5059 245.076C26.7858 245.2 27.0983 245.262 27.4434 245.262ZM44.2305 247H41.8281V241.844C41.8281 241.03 41.6198 240.389 41.2031 239.92C40.7865 239.445 40.2233 239.207 39.5137 239.207C38.7845 239.207 38.1986 239.458 37.7559 239.959C37.3132 240.454 37.0918 241.121 37.0918 241.961V247H34.6895V237.234H36.6719L36.75 238.807C37.1016 238.234 37.5638 237.798 38.1367 237.498C38.7161 237.192 39.3932 237.039 40.168 237.039C41.431 237.039 42.4238 237.423 43.1465 238.191C43.8691 238.96 44.2305 240.021 44.2305 241.375V247ZM52.8828 246.746C52.1667 247.046 51.4733 247.195 50.8027 247.195C50.1191 247.195 49.5169 247.049 48.9961 246.756C48.4818 246.463 48.0781 246.056 47.7852 245.535C47.4987 245.008 47.3555 244.396 47.3555 243.699V239.383H45.6465V237.234H47.4824V234.793H49.7578V237.234H52.541V239.383H49.7578V243.26C49.7578 243.813 49.9076 244.249 50.207 244.568C50.513 244.887 50.8939 245.047 51.3496 245.047C51.7533 245.047 52.1536 244.923 52.5508 244.676L52.8828 246.746ZM55.6172 234.646C55.2786 234.646 54.9922 234.529 54.7578 234.295C54.5299 234.054 54.416 233.764 54.416 233.426C54.416 233.094 54.5299 232.811 54.7578 232.576C54.9922 232.335 55.2786 232.215 55.6172 232.215C55.9622 232.215 56.252 232.335 56.4863 232.576C56.7207 232.811 56.8379 233.094 56.8379 233.426C56.8379 233.764 56.7207 234.054 56.4863 234.295C56.252 234.529 55.9622 234.646 55.6172 234.646ZM56.8184 247H54.416V237.234H56.8184V247ZM68.3125 245.867C67.0951 246.753 65.7637 247.195 64.3184 247.195C63.2702 247.195 62.3294 246.967 61.4961 246.512C60.6628 246.056 60.002 245.434 59.5137 244.646C59.0319 243.852 58.791 242.96 58.791 241.971C58.791 241.027 59.0091 240.184 59.4453 239.441C59.888 238.699 60.4902 238.113 61.252 237.684C62.0202 237.254 62.8861 237.039 63.8496 237.039C64.8522 237.039 65.7311 237.277 66.4863 237.752C67.248 238.221 67.8405 238.875 68.2637 239.715C68.6868 240.548 68.8984 241.518 68.8984 242.625V242.938H61.3789C61.4961 243.38 61.7012 243.771 61.9941 244.109C62.2936 244.448 62.6647 244.712 63.1074 244.9C63.5501 245.089 64.0482 245.184 64.6016 245.184C65.6432 245.184 66.6068 244.845 67.4922 244.168L68.3125 245.867ZM61.2812 241.531H66.6719C66.6198 241.043 66.4701 240.617 66.2227 240.252C65.9818 239.887 65.666 239.604 65.2754 239.402C64.8913 239.194 64.4583 239.09 63.9766 239.09C63.4883 239.09 63.0521 239.194 62.668 239.402C62.2839 239.611 61.9714 239.9 61.7305 240.271C61.4896 240.636 61.3398 241.056 61.2812 241.531ZM73.2441 247H70.8418V237.234H72.9316L73.0195 239.012C73.3581 238.387 73.8138 237.902 74.3867 237.557C74.9661 237.212 75.6302 237.039 76.3789 237.039C76.5742 237.039 76.7728 237.052 76.9746 237.078C77.1829 237.104 77.388 237.143 77.5898 237.195L77.2969 239.363C76.8932 239.246 76.5026 239.188 76.125 239.188C75.5521 239.188 75.0475 239.321 74.6113 239.588C74.1816 239.855 73.8464 240.226 73.6055 240.701C73.3646 241.17 73.2441 241.717 73.2441 242.342V247ZM86.0566 251.883H83.6543V237.234H85.7734L85.8906 238.602C86.3203 238.113 86.8379 237.732 87.4434 237.459C88.0488 237.179 88.7096 237.039 89.4258 237.039C90.3372 237.039 91.151 237.26 91.8672 237.703C92.5898 238.146 93.1562 238.751 93.5664 239.52C93.9831 240.281 94.1914 241.147 94.1914 242.117C94.1914 243.087 93.9831 243.956 93.5664 244.725C93.1562 245.486 92.5898 246.089 91.8672 246.531C91.151 246.974 90.3372 247.195 89.4258 247.195C88.7552 247.195 88.1335 247.075 87.5605 246.834C86.9876 246.593 86.4863 246.255 86.0566 245.818V251.883ZM88.9082 245.027C89.4551 245.027 89.9401 244.904 90.3633 244.656C90.793 244.402 91.125 244.057 91.3594 243.621C91.6003 243.178 91.7207 242.674 91.7207 242.107C91.7207 241.541 91.6003 241.04 91.3594 240.604C91.1185 240.161 90.7865 239.816 90.3633 239.568C89.9401 239.314 89.4551 239.188 88.9082 239.188C88.3939 239.188 87.9284 239.305 87.5117 239.539C87.0951 239.767 86.7598 240.083 86.5059 240.486C86.252 240.883 86.1022 241.339 86.0566 241.854V242.391C86.1022 242.905 86.2487 243.361 86.4961 243.758C86.75 244.155 87.0853 244.467 87.502 244.695C87.9186 244.917 88.3874 245.027 88.9082 245.027ZM98.5371 247H96.1348V237.234H98.2246L98.3125 239.012C98.651 238.387 99.1068 237.902 99.6797 237.557C100.259 237.212 100.923 237.039 101.672 237.039C101.867 237.039 102.066 237.052 102.268 237.078C102.476 237.104 102.681 237.143 102.883 237.195L102.59 239.363C102.186 239.246 101.796 239.188 101.418 239.188C100.845 239.188 100.34 239.321 99.9043 239.588C99.4746 239.855 99.1393 240.226 98.8984 240.701C98.6576 241.17 98.5371 241.717 98.5371 242.342V247ZM113.156 245.867C111.939 246.753 110.607 247.195 109.162 247.195C108.114 247.195 107.173 246.967 106.34 246.512C105.507 246.056 104.846 245.434 104.357 244.646C103.876 243.852 103.635 242.96 103.635 241.971C103.635 241.027 103.853 240.184 104.289 239.441C104.732 238.699 105.334 238.113 106.096 237.684C106.864 237.254 107.73 237.039 108.693 237.039C109.696 237.039 110.575 237.277 111.33 237.752C112.092 238.221 112.684 238.875 113.107 239.715C113.531 240.548 113.742 241.518 113.742 242.625V242.938H106.223C106.34 243.38 106.545 243.771 106.838 244.109C107.137 244.448 107.508 244.712 107.951 244.9C108.394 245.089 108.892 245.184 109.445 245.184C110.487 245.184 111.451 244.845 112.336 244.168L113.156 245.867ZM106.125 241.531H111.516C111.464 241.043 111.314 240.617 111.066 240.252C110.826 239.887 110.51 239.604 110.119 239.402C109.735 239.194 109.302 239.09 108.82 239.09C108.332 239.09 107.896 239.194 107.512 239.402C107.128 239.611 106.815 239.9 106.574 240.271C106.333 240.636 106.184 241.056 106.125 241.531ZM109.572 235.633H107.854L109.289 232.352H111.496L109.572 235.633ZM124.992 237.234L120.959 247H118.635L114.611 237.234H117.189L119.807 244.559L122.434 237.234H124.992ZM136.164 247H134.182L134.104 245.428C133.752 246.001 133.29 246.44 132.717 246.746C132.144 247.046 131.467 247.195 130.686 247.195C129.429 247.195 128.436 246.811 127.707 246.043C126.984 245.268 126.623 244.204 126.623 242.85V237.234H129.025V242.391C129.025 243.204 129.23 243.849 129.641 244.324C130.057 244.793 130.62 245.027 131.33 245.027C132.066 245.027 132.655 244.777 133.098 244.275C133.54 243.774 133.762 243.107 133.762 242.273V237.234H136.164V247ZM145.07 243.006H143.83L143.459 232.352H145.441L145.07 243.006ZM144.445 247.195C144.1 247.195 143.811 247.081 143.576 246.854C143.342 246.619 143.225 246.333 143.225 245.994C143.225 245.669 143.342 245.392 143.576 245.164C143.811 244.93 144.1 244.812 144.445 244.812C144.79 244.812 145.08 244.93 145.314 245.164C145.549 245.392 145.666 245.669 145.666 245.994C145.666 246.333 145.549 246.619 145.314 246.854C145.08 247.081 144.79 247.195 144.445 247.195ZM153.176 236.551H151.809L152.795 232.156H154.475L153.176 236.551ZM149.445 236.551H148.068L149.055 232.156H150.744L149.445 236.551Z" fill="#6A6AF4"/>
<path d="M355.031 211.551H353.342L354.641 207.156H356.018L355.031 211.551ZM358.762 211.551H357.082L358.371 207.156H359.748L358.762 211.551ZM374.934 220.145C374.257 220.822 373.449 221.349 372.512 221.727C371.581 222.104 370.562 222.293 369.455 222.293C368.355 222.293 367.336 222.104 366.398 221.727C365.461 221.349 364.647 220.818 363.957 220.135C363.267 219.445 362.73 218.637 362.346 217.713C361.968 216.782 361.779 215.77 361.779 214.676C361.779 213.576 361.968 212.563 362.346 211.639C362.73 210.714 363.267 209.91 363.957 209.227C364.647 208.536 365.461 208.003 366.398 207.625C367.336 207.247 368.355 207.059 369.455 207.059C370.555 207.059 371.571 207.247 372.502 207.625C373.433 208.003 374.237 208.527 374.914 209.197L373.117 211.023C372.668 210.49 372.128 210.073 371.496 209.773C370.865 209.474 370.171 209.324 369.416 209.324C368.7 209.324 368.036 209.458 367.424 209.725C366.818 209.992 366.291 210.366 365.842 210.848C365.393 211.329 365.041 211.896 364.787 212.547C364.54 213.198 364.416 213.908 364.416 214.676C364.416 215.444 364.54 216.154 364.787 216.805C365.041 217.449 365.393 218.016 365.842 218.504C366.291 218.986 366.818 219.36 367.424 219.627C368.036 219.894 368.7 220.027 369.416 220.027C370.171 220.027 370.865 219.878 371.496 219.578C372.128 219.279 372.668 218.862 373.117 218.328L374.934 220.145ZM385.949 220.867C384.732 221.753 383.4 222.195 381.955 222.195C380.907 222.195 379.966 221.967 379.133 221.512C378.299 221.056 377.639 220.434 377.15 219.646C376.669 218.852 376.428 217.96 376.428 216.971C376.428 216.027 376.646 215.184 377.082 214.441C377.525 213.699 378.127 213.113 378.889 212.684C379.657 212.254 380.523 212.039 381.486 212.039C382.489 212.039 383.368 212.277 384.123 212.752C384.885 213.221 385.477 213.875 385.9 214.715C386.324 215.548 386.535 216.518 386.535 217.625V217.938H379.016C379.133 218.38 379.338 218.771 379.631 219.109C379.93 219.448 380.301 219.712 380.744 219.9C381.187 220.089 381.685 220.184 382.238 220.184C383.28 220.184 384.243 219.845 385.129 219.168L385.949 220.867ZM378.918 216.531H384.309C384.257 216.043 384.107 215.617 383.859 215.252C383.618 214.887 383.303 214.604 382.912 214.402C382.528 214.194 382.095 214.09 381.613 214.09C381.125 214.09 380.689 214.194 380.305 214.402C379.921 214.611 379.608 214.9 379.367 215.271C379.126 215.636 378.977 216.056 378.918 216.531ZM401.604 220.496C401.128 221.036 400.552 221.456 399.875 221.756C399.198 222.049 398.459 222.195 397.658 222.195C396.669 222.195 395.78 221.974 394.992 221.531C394.211 221.089 393.592 220.486 393.137 219.725C392.688 218.956 392.463 218.087 392.463 217.117C392.463 216.147 392.688 215.281 393.137 214.52C393.592 213.751 394.211 213.146 394.992 212.703C395.78 212.26 396.669 212.039 397.658 212.039C398.452 212.039 399.185 212.186 399.855 212.479C400.533 212.771 401.109 213.185 401.584 213.719L400.178 215.213C399.885 214.894 399.53 214.646 399.113 214.471C398.703 214.295 398.267 214.207 397.805 214.207C397.245 214.207 396.747 214.331 396.311 214.578C395.881 214.826 395.542 215.167 395.295 215.604C395.054 216.04 394.934 216.541 394.934 217.107C394.934 217.674 395.054 218.178 395.295 218.621C395.542 219.057 395.881 219.402 396.311 219.656C396.747 219.904 397.245 220.027 397.805 220.027C398.267 220.027 398.706 219.939 399.123 219.764C399.54 219.581 399.891 219.334 400.178 219.021L401.604 220.496ZM403.498 222V207.352H405.9V213.484C406.617 212.521 407.668 212.039 409.055 212.039C410.305 212.039 411.281 212.423 411.984 213.191C412.688 213.953 413.039 215.014 413.039 216.375V222H410.637V216.99C410.637 216.105 410.432 215.418 410.021 214.93C409.611 214.435 409.035 214.188 408.293 214.188C407.544 214.188 406.958 214.438 406.535 214.939C406.112 215.434 405.9 216.118 405.9 216.99V222H403.498ZM423.889 222H421.799L421.662 220.799C421.304 221.242 420.858 221.587 420.324 221.834C419.79 222.075 419.198 222.195 418.547 222.195C417.857 222.195 417.242 222.062 416.701 221.795C416.161 221.521 415.734 221.15 415.422 220.682C415.116 220.213 414.963 219.679 414.963 219.08C414.963 218.449 415.129 217.895 415.461 217.42C415.799 216.938 416.258 216.561 416.838 216.287C417.424 216.014 418.091 215.877 418.84 215.877C419.296 215.877 419.751 215.929 420.207 216.033C420.669 216.137 421.096 216.284 421.486 216.473V216.16C421.486 215.73 421.369 215.359 421.135 215.047C420.9 214.734 420.585 214.493 420.188 214.324C419.79 214.148 419.344 214.061 418.85 214.061C418.4 214.061 417.951 214.139 417.502 214.295C417.053 214.445 416.633 214.669 416.242 214.969L415.559 213.084C416.184 212.739 416.822 212.479 417.473 212.303C418.13 212.127 418.771 212.039 419.396 212.039C420.314 212.039 421.109 212.221 421.779 212.586C422.45 212.944 422.967 213.458 423.332 214.129C423.703 214.793 423.889 215.577 423.889 216.482V222ZM419.045 220.262C419.468 220.262 419.859 220.174 420.217 219.998C420.581 219.822 420.878 219.578 421.105 219.266C421.34 218.947 421.464 218.582 421.477 218.172V218.064C421.171 217.843 420.826 217.674 420.441 217.557C420.057 217.433 419.67 217.371 419.279 217.371C418.68 217.371 418.189 217.508 417.805 217.781C417.421 218.048 417.229 218.4 417.229 218.836C417.229 219.103 417.307 219.347 417.463 219.568C417.619 219.783 417.834 219.952 418.107 220.076C418.387 220.2 418.7 220.262 419.045 220.262ZM435.832 222H433.43V216.844C433.43 216.03 433.221 215.389 432.805 214.92C432.388 214.445 431.825 214.207 431.115 214.207C430.386 214.207 429.8 214.458 429.357 214.959C428.915 215.454 428.693 216.121 428.693 216.961V222H426.291V212.234H428.273L428.352 213.807C428.703 213.234 429.165 212.798 429.738 212.498C430.318 212.192 430.995 212.039 431.77 212.039C433.033 212.039 434.025 212.423 434.748 213.191C435.471 213.96 435.832 215.021 435.832 216.375V222ZM444.484 221.746C443.768 222.046 443.075 222.195 442.404 222.195C441.721 222.195 441.118 222.049 440.598 221.756C440.083 221.463 439.68 221.056 439.387 220.535C439.1 220.008 438.957 219.396 438.957 218.699V214.383H437.248V212.234H439.084V209.793H441.359V212.234H444.143V214.383H441.359V218.26C441.359 218.813 441.509 219.249 441.809 219.568C442.115 219.887 442.495 220.047 442.951 220.047C443.355 220.047 443.755 219.923 444.152 219.676L444.484 221.746ZM447.219 209.646C446.88 209.646 446.594 209.529 446.359 209.295C446.132 209.054 446.018 208.764 446.018 208.426C446.018 208.094 446.132 207.811 446.359 207.576C446.594 207.335 446.88 207.215 447.219 207.215C447.564 207.215 447.854 207.335 448.088 207.576C448.322 207.811 448.439 208.094 448.439 208.426C448.439 208.764 448.322 209.054 448.088 209.295C447.854 209.529 447.564 209.646 447.219 209.646ZM448.42 222H446.018V212.234H448.42V222ZM459.914 220.867C458.697 221.753 457.365 222.195 455.92 222.195C454.872 222.195 453.931 221.967 453.098 221.512C452.264 221.056 451.604 220.434 451.115 219.646C450.633 218.852 450.393 217.96 450.393 216.971C450.393 216.027 450.611 215.184 451.047 214.441C451.49 213.699 452.092 213.113 452.854 212.684C453.622 212.254 454.488 212.039 455.451 212.039C456.454 212.039 457.333 212.277 458.088 212.752C458.85 213.221 459.442 213.875 459.865 214.715C460.288 215.548 460.5 216.518 460.5 217.625V217.938H452.98C453.098 218.38 453.303 218.771 453.596 219.109C453.895 219.448 454.266 219.712 454.709 219.9C455.152 220.089 455.65 220.184 456.203 220.184C457.245 220.184 458.208 219.845 459.094 219.168L459.914 220.867ZM452.883 216.531H458.273C458.221 216.043 458.072 215.617 457.824 215.252C457.583 214.887 457.268 214.604 456.877 214.402C456.493 214.194 456.06 214.09 455.578 214.09C455.09 214.09 454.654 214.194 454.27 214.402C453.885 214.611 453.573 214.9 453.332 215.271C453.091 215.636 452.941 216.056 452.883 216.531ZM464.846 222H462.443V212.234H464.533L464.621 214.012C464.96 213.387 465.415 212.902 465.988 212.557C466.568 212.212 467.232 212.039 467.98 212.039C468.176 212.039 468.374 212.052 468.576 212.078C468.785 212.104 468.99 212.143 469.191 212.195L468.898 214.363C468.495 214.246 468.104 214.188 467.727 214.188C467.154 214.188 466.649 214.321 466.213 214.588C465.783 214.855 465.448 215.226 465.207 215.701C464.966 216.17 464.846 216.717 464.846 217.342V222ZM387.209 245.867C385.992 246.753 384.66 247.195 383.215 247.195C382.167 247.195 381.226 246.967 380.393 246.512C379.559 246.056 378.898 245.434 378.41 244.646C377.928 243.852 377.688 242.96 377.688 241.971C377.688 241.027 377.906 240.184 378.342 239.441C378.785 238.699 379.387 238.113 380.148 237.684C380.917 237.254 381.783 237.039 382.746 237.039C383.749 237.039 384.628 237.277 385.383 237.752C386.145 238.221 386.737 238.875 387.16 239.715C387.583 240.548 387.795 241.518 387.795 242.625V242.938H380.275C380.393 243.38 380.598 243.771 380.891 244.109C381.19 244.448 381.561 244.712 382.004 244.9C382.447 245.089 382.945 245.184 383.498 245.184C384.54 245.184 385.503 244.845 386.389 244.168L387.209 245.867ZM380.178 241.531H385.568C385.516 241.043 385.367 240.617 385.119 240.252C384.878 239.887 384.562 239.604 384.172 239.402C383.788 239.194 383.355 239.09 382.873 239.09C382.385 239.09 381.949 239.194 381.564 239.402C381.18 239.611 380.868 239.9 380.627 240.271C380.386 240.636 380.236 241.056 380.178 241.531ZM389.055 246.16L389.602 244.07C389.816 244.285 390.083 244.48 390.402 244.656C390.721 244.832 391.06 244.972 391.418 245.076C391.783 245.174 392.137 245.223 392.482 245.223C392.945 245.223 393.316 245.128 393.596 244.939C393.876 244.744 394.016 244.49 394.016 244.178C394.016 243.93 393.931 243.725 393.762 243.562C393.592 243.393 393.371 243.247 393.098 243.123C392.824 242.993 392.525 242.866 392.199 242.742C391.77 242.586 391.333 242.4 390.891 242.186C390.448 241.964 390.077 241.674 389.777 241.316C389.484 240.952 389.338 240.47 389.338 239.871C389.338 239.292 389.484 238.79 389.777 238.367C390.077 237.944 390.493 237.618 391.027 237.391C391.561 237.156 392.183 237.039 392.893 237.039C394.012 237.039 395.129 237.319 396.242 237.879L395.549 239.852C395.34 239.695 395.087 239.552 394.787 239.422C394.488 239.292 394.182 239.188 393.869 239.109C393.557 239.031 393.273 238.992 393.02 238.992C392.648 238.992 392.352 239.074 392.131 239.236C391.91 239.399 391.799 239.614 391.799 239.881C391.799 240.063 391.861 240.229 391.984 240.379C392.108 240.522 392.3 240.662 392.561 240.799C392.821 240.936 393.156 241.089 393.566 241.258C394.009 241.427 394.452 241.626 394.895 241.854C395.344 242.075 395.718 242.371 396.018 242.742C396.324 243.107 396.477 243.592 396.477 244.197C396.477 244.796 396.314 245.32 395.988 245.77C395.669 246.219 395.22 246.57 394.641 246.824C394.068 247.072 393.397 247.195 392.629 247.195C391.353 247.195 390.161 246.85 389.055 246.16ZM404.729 246.746C404.012 247.046 403.319 247.195 402.648 247.195C401.965 247.195 401.363 247.049 400.842 246.756C400.327 246.463 399.924 246.056 399.631 245.535C399.344 245.008 399.201 244.396 399.201 243.699V239.383H397.492V237.234H399.328V234.793H401.604V237.234H404.387V239.383H401.604V243.26C401.604 243.813 401.753 244.249 402.053 244.568C402.359 244.887 402.74 245.047 403.195 245.047C403.599 245.047 403.999 244.923 404.396 244.676L404.729 246.746ZM414.357 247H411.955V239.383H410.246V237.234H411.955V235.525C411.955 234.848 412.108 234.249 412.414 233.729C412.727 233.208 413.15 232.801 413.684 232.508C414.224 232.208 414.846 232.059 415.549 232.059C415.985 232.059 416.428 232.12 416.877 232.244C417.326 232.368 417.766 232.56 418.195 232.82L417.287 234.695C417.072 234.533 416.848 234.412 416.613 234.334C416.385 234.249 416.158 234.207 415.93 234.207C415.48 234.207 415.106 234.367 414.807 234.686C414.507 235.005 414.357 235.441 414.357 235.994V237.234H417.307V239.383H414.357V247ZM420.393 234.646C420.054 234.646 419.768 234.529 419.533 234.295C419.305 234.054 419.191 233.764 419.191 233.426C419.191 233.094 419.305 232.811 419.533 232.576C419.768 232.335 420.054 232.215 420.393 232.215C420.738 232.215 421.027 232.335 421.262 232.576C421.496 232.811 421.613 233.094 421.613 233.426C421.613 233.764 421.496 234.054 421.262 234.295C421.027 234.529 420.738 234.646 420.393 234.646ZM421.594 247H419.191V237.234H421.594V247ZM433.771 247H431.369V241.844C431.369 241.03 431.161 240.389 430.744 239.92C430.327 239.445 429.764 239.207 429.055 239.207C428.326 239.207 427.74 239.458 427.297 239.959C426.854 240.454 426.633 241.121 426.633 241.961V247H424.23V237.234H426.213L426.291 238.807C426.643 238.234 427.105 237.798 427.678 237.498C428.257 237.192 428.934 237.039 429.709 237.039C430.972 237.039 431.965 237.423 432.688 238.191C433.41 238.96 433.771 240.021 433.771 241.375V247ZM437.404 234.646C437.066 234.646 436.779 234.529 436.545 234.295C436.317 234.054 436.203 233.764 436.203 233.426C436.203 233.094 436.317 232.811 436.545 232.576C436.779 232.335 437.066 232.215 437.404 232.215C437.749 232.215 438.039 232.335 438.273 232.576C438.508 232.811 438.625 233.094 438.625 233.426C438.625 233.764 438.508 234.054 438.273 234.295C438.039 234.529 437.749 234.646 437.404 234.646ZM438.605 247H436.203V237.234H438.605V247ZM446.35 236.551H444.982L445.969 232.156H447.648L446.35 236.551ZM442.619 236.551H441.242L442.229 232.156H443.918L442.619 236.551Z" fill="#F95C5E"/>
<path d="M61.576 79.832C61.8 79.832 62.072 79.984 62.392 80.288C62.728 80.576 62.896 80.824 62.896 81.032C62.896 82.008 62.864 83.344 62.8 85.04C62.784 85.456 62.768 85.96 62.752 86.552C62.736 87.128 62.728 87.8 62.728 88.568C62.728 91 62.872 92.792 63.16 93.944C63.144 94.328 62.992 94.608 62.704 94.784C62.416 94.944 62.128 95.024 61.84 95.024C61.2 95.024 60.776 94.8 60.568 94.352C60.376 93.904 60.28 93.264 60.28 92.432C60.28 89.344 60.312 86.504 60.376 83.912C58.536 85.96 57.104 87.68 56.08 89.072C56.08 89.072 55.936 89.168 55.648 89.36C55.376 89.6 55.152 89.72 54.976 89.72C54.56 89.72 54.216 89.616 53.944 89.408C53.672 89.2 53.408 88.896 53.152 88.496L52 86.864C51.2 85.744 50.616 84.896 50.248 84.32C50.248 85.792 50.32 87.792 50.464 90.32C50.576 91.776 50.632 92.872 50.632 93.608C50.632 93.992 50.536 94.32 50.344 94.592C50.152 94.848 49.848 94.976 49.432 94.976C49.016 94.976 48.672 94.896 48.4 94.736C48.144 94.576 48.008 94.336 47.992 94.016C48.008 93.744 48.016 93.296 48.016 92.672C48.016 91.424 47.976 89.904 47.896 88.112L47.848 86.816L47.8 85.136C47.784 84.64 47.768 84.064 47.752 83.408C47.736 82.736 47.728 82.008 47.728 81.224C47.728 80.264 48.248 79.784 49.288 79.784C49.608 79.784 49.928 79.864 50.248 80.024C50.584 80.184 50.832 80.416 50.992 80.72C51.12 81.28 51.592 82.208 52.408 83.504C53.224 84.8 54.024 86.016 54.808 87.152C55.512 86.256 56.088 85.584 56.536 85.136C57.304 84.352 57.936 83.624 58.432 82.952C58.944 82.28 59.496 81.472 60.088 80.528C60.232 80.336 60.44 80.176 60.712 80.048C60.984 79.904 61.272 79.832 61.576 79.832ZM77.0592 93.848C77.0592 94.2 76.8672 94.496 76.4832 94.736C76.1152 94.976 75.7712 95.096 75.4512 95.096C74.8432 95.096 74.3552 95.024 73.9872 94.88C73.6352 94.72 73.3072 94.432 73.0032 94.016C72.5872 94.384 72.0192 94.664 71.2992 94.856C70.5792 95.032 69.9152 95.12 69.3072 95.12C68.3152 95.12 67.4992 94.856 66.8592 94.328C66.2192 93.784 65.8992 92.992 65.8992 91.952C65.8992 91.504 66.0192 91.096 66.2592 90.728C66.4992 90.344 66.8272 90.008 67.2432 89.72C67.7072 89.416 68.2352 89.184 68.8272 89.024C69.4192 88.848 70.0352 88.76 70.6752 88.76C71.0112 88.76 71.4112 88.824 71.8752 88.952C72.3392 89.08 72.6992 89.216 72.9552 89.36V88.976C72.9552 88.112 72.7472 87.52 72.3312 87.2C71.9152 86.864 71.2432 86.696 70.3152 86.696C70.0432 86.696 69.7712 86.752 69.4992 86.864C69.2432 86.976 68.9472 87.128 68.6112 87.32C68.1632 87.56 67.7392 87.68 67.3392 87.68C67.1952 87.68 67.0592 87.584 66.9312 87.392C66.8032 87.184 66.7392 87 66.7392 86.84C66.7392 86.376 66.9552 85.976 67.3872 85.64C67.8352 85.304 68.3632 85.056 68.9712 84.896C69.5792 84.72 70.1232 84.632 70.6032 84.632C71.0832 84.632 71.6352 84.728 72.2592 84.92C72.8832 85.096 73.3952 85.344 73.7952 85.664C74.2752 86.08 74.6432 86.568 74.8992 87.128C75.1712 87.672 75.3072 88.272 75.3072 88.928C75.3072 89.136 75.2912 89.448 75.2592 89.864C75.2272 90.312 75.2112 90.696 75.2112 91.016C75.2112 91.16 75.1952 91.376 75.1632 91.664C75.1312 92.016 75.1152 92.296 75.1152 92.504C75.1152 92.696 75.1872 92.864 75.3312 93.008C75.4752 93.136 75.6432 93.2 75.8352 93.2L76.5072 93.176C76.6832 93.176 76.8192 93.24 76.9152 93.368C77.0112 93.496 77.0592 93.656 77.0592 93.848ZM69.3312 93.224C70.0192 93.224 70.5952 93.152 71.0592 93.008C71.5232 92.864 72.0832 92.6 72.7392 92.216C72.8032 91.944 72.8432 91.584 72.8592 91.136C71.9792 90.72 71.2512 90.512 70.6752 90.512C70.0192 90.512 69.4352 90.632 68.9232 90.872C68.4112 91.112 68.1552 91.536 68.1552 92.144C68.1552 92.448 68.2832 92.704 68.5392 92.912C68.7952 93.12 69.0592 93.224 69.3312 93.224ZM79.8788 79.592C80.4388 79.64 80.9268 79.792 81.3428 80.048C81.7588 80.288 81.9668 80.656 81.9668 81.152C81.9668 81.52 81.7908 81.816 81.4388 82.04C81.1028 82.248 80.6948 82.352 80.2148 82.352C79.7508 82.352 79.4308 82.232 79.2548 81.992C79.0788 81.752 78.9908 81.504 78.9908 81.248C78.9908 80.768 79.0388 80.368 79.1348 80.048C79.2468 79.728 79.4948 79.576 79.8788 79.592ZM81.7988 90.224V90.92C81.7988 91.544 81.8148 92.136 81.8468 92.696C81.8948 93.24 81.9508 93.792 82.0148 94.352C82.0148 94.544 81.9028 94.72 81.6788 94.88C81.4548 95.024 81.2468 95.096 81.0548 95.096C80.7508 95.096 80.4388 95.04 80.1188 94.928C79.8148 94.8 79.6308 94.648 79.5668 94.472C79.4708 93.96 79.4228 93.504 79.4228 93.104C79.4228 91.792 79.3828 90.32 79.3028 88.688C79.2388 87.248 79.2068 86.24 79.2068 85.664C79.2068 85.376 79.3508 85.128 79.6388 84.92C79.9268 84.712 80.2308 84.608 80.5508 84.608C81.0148 84.608 81.3348 84.712 81.5108 84.92C81.7028 85.128 81.7988 85.456 81.7988 85.904V90.224ZM88.3474 94.04C88.3474 94.312 88.2434 94.552 88.0354 94.76C87.8274 94.968 87.5714 95.072 87.2674 95.072C86.7874 95.072 86.4354 94.984 86.2114 94.808C85.9874 94.616 85.8754 94.272 85.8754 93.776C85.8754 93.184 85.8594 92.408 85.8274 91.448C85.7954 90.648 85.7794 89.976 85.7794 89.432C85.7794 89.176 85.7954 88.84 85.8274 88.424C85.8594 88.04 85.8754 87.752 85.8754 87.56C85.8274 87.256 85.7074 87.008 85.5154 86.816C85.3234 86.608 85.0754 86.504 84.7714 86.504C84.6274 86.504 84.5074 86.44 84.4114 86.312C84.3154 86.168 84.2674 86.024 84.2674 85.88C84.2674 85.512 84.4114 85.232 84.6994 85.04C85.0034 84.848 85.3634 84.752 85.7794 84.752C86.6434 84.752 87.2434 85.264 87.5794 86.288C87.9954 85.808 88.4674 85.424 88.9954 85.136C89.5394 84.832 90.0594 84.68 90.5554 84.68C91.1474 84.68 91.6834 84.84 92.1634 85.16C92.6594 85.48 92.9074 85.912 92.9074 86.456C92.9074 86.76 92.7714 87.072 92.4994 87.392C92.2434 87.712 91.9794 87.872 91.7074 87.872C91.5634 87.872 91.4354 87.84 91.3234 87.776C91.2274 87.696 91.1074 87.584 90.9634 87.44C90.8034 87.28 90.6674 87.168 90.5554 87.104C90.4434 87.024 90.3154 86.984 90.1714 86.984C89.9154 86.984 89.6754 87.024 89.4514 87.104C89.2274 87.184 89.0754 87.28 88.9954 87.392C88.7394 87.792 88.5474 88.152 88.4194 88.472C88.3074 88.792 88.2514 89.136 88.2514 89.504C88.2514 89.776 88.2434 89.992 88.2274 90.152L88.2034 91.52C88.2034 91.728 88.2114 91.96 88.2274 92.216C88.2434 92.472 88.2594 92.664 88.2754 92.792C88.3234 93.224 88.3474 93.64 88.3474 94.04ZM95.5105 79.592C96.0705 79.64 96.5505 79.792 96.9505 80.048C97.3665 80.288 97.5745 80.656 97.5745 81.152C97.5745 81.52 97.4065 81.816 97.0705 82.04C96.7345 82.248 96.3185 82.352 95.8225 82.352C95.3585 82.352 95.0385 82.232 94.8625 81.992C94.6865 81.752 94.5985 81.504 94.5985 81.248C94.5985 80.784 94.6545 80.392 94.7665 80.072C94.8785 79.736 95.1265 79.576 95.5105 79.592ZM95.0305 89.504V88.808C95.0305 88.008 94.9905 87.28 94.9105 86.624C94.8465 85.952 94.8065 85.536 94.7905 85.376C94.8065 85.2 94.9265 85.032 95.1505 84.872C95.3745 84.712 95.5745 84.632 95.7505 84.632C96.0545 84.632 96.3585 84.696 96.6625 84.824C96.9825 84.936 97.1825 85.08 97.2625 85.256C97.3425 85.848 97.3825 86.304 97.3825 86.624C97.3825 87.328 97.4145 88.48 97.4785 90.08L97.5025 91.016L97.5505 91.928C97.5665 92.184 97.5825 92.488 97.5985 92.84C97.6145 93.192 97.6225 93.592 97.6225 94.04C97.6225 94.344 97.4705 94.6 97.1665 94.808C96.8785 95.016 96.5745 95.12 96.2545 95.12C95.7905 95.12 95.4625 95.016 95.2705 94.808C95.0945 94.6 95.0065 94.272 95.0065 93.824L95.0305 89.504ZM100.236 89.912C100.236 89.304 100.348 88.696 100.572 88.088C100.796 87.464 101.092 86.896 101.46 86.384C101.828 85.872 102.412 85.456 103.212 85.136C104.012 84.8 104.724 84.632 105.348 84.632C105.988 84.632 106.636 84.72 107.292 84.896C107.964 85.072 108.428 85.344 108.684 85.712C109.276 86.544 109.572 87.36 109.572 88.16C109.572 88.592 109.476 88.96 109.284 89.264C109.108 89.568 108.852 89.896 108.516 90.248C108.244 90.536 107.812 90.728 107.22 90.824C106.644 90.92 106.068 90.968 105.492 90.968C105.124 90.968 104.676 90.936 104.148 90.872C103.62 90.792 103.108 90.696 102.612 90.584C102.644 90.904 102.724 91.216 102.852 91.52C102.98 91.824 103.132 92.056 103.308 92.216C103.628 92.52 103.956 92.712 104.292 92.792C104.644 92.872 105.092 92.912 105.636 92.912C106.212 92.912 106.748 92.816 107.244 92.624C107.644 92.48 107.972 92.408 108.228 92.408C108.532 92.408 108.764 92.504 108.924 92.696C109.084 92.872 109.164 93.104 109.164 93.392C109.164 93.792 108.932 94.12 108.468 94.376C108.004 94.632 107.468 94.824 106.86 94.952C106.268 95.064 105.788 95.12 105.42 95.12C104.668 95.12 103.94 94.984 103.236 94.712C102.532 94.44 101.948 94.056 101.484 93.56C101.1 93.112 100.796 92.576 100.572 91.952C100.348 91.312 100.236 90.632 100.236 89.912ZM105.468 86.672C105.116 86.672 104.764 86.744 104.412 86.888C104.06 87.016 103.772 87.2 103.548 87.44C103.26 87.744 103.06 87.992 102.948 88.184C102.852 88.36 102.788 88.608 102.756 88.928C103.156 89.056 103.988 89.12 105.252 89.12C105.94 89.12 106.468 89.016 106.836 88.808C107.22 88.6 107.412 88.328 107.412 87.992C107.412 87.656 107.204 87.352 106.788 87.08C106.372 86.808 105.932 86.672 105.468 86.672Z" fill="#000091"/>
<path d="M385.16 79.784C387.336 79.784 389.056 80.088 390.32 80.696C391.6 81.288 392.568 81.952 393.224 82.688C393.752 83.296 394.184 84 394.52 84.8C394.856 85.584 395.024 86.528 395.024 87.632C395.024 88.448 394.84 89.304 394.472 90.2C394.104 91.08 393.624 91.792 393.032 92.336C392.408 92.928 391.816 93.408 391.256 93.776C390.712 94.144 389.968 94.448 389.024 94.688C388.096 94.912 386.912 95.024 385.472 95.024C384.384 95.024 383.4 94.904 382.52 94.664C381.64 94.408 381.2 93.984 381.2 93.392C381.2 93.152 381.304 92.968 381.512 92.84C381.736 92.696 381.976 92.624 382.232 92.624C382.376 92.624 382.472 92.632 382.52 92.648C382.632 91.592 382.688 90.472 382.688 89.288C382.688 87.96 382.656 86.864 382.592 86C382.528 85.12 382.44 84.248 382.328 83.384C382.312 83.272 382.272 82.96 382.208 82.448C382.16 81.936 382.136 81.416 382.136 80.888C382.136 80.552 382.304 80.272 382.64 80.048C382.976 79.808 383.32 79.688 383.672 79.688C383.88 79.688 384.16 79.704 384.512 79.736C384.8 79.768 385.016 79.784 385.16 79.784ZM384.848 92.768C385.232 92.832 385.736 92.864 386.36 92.864C387.416 92.864 388.416 92.648 389.36 92.216C390.304 91.768 391.064 91.152 391.64 90.368C392.216 89.568 392.504 88.648 392.504 87.608C392.504 86.52 392.312 85.592 391.928 84.824C391.544 84.056 390.952 83.424 390.152 82.928C389.56 82.56 388.832 82.296 387.968 82.136C387.104 81.96 386.064 81.872 384.848 81.872C384.848 82.256 384.872 82.736 384.92 83.312C384.92 83.504 384.936 83.84 384.968 84.32C385.064 86.176 385.112 87.672 385.112 88.808C385.112 90.456 385.024 91.776 384.848 92.768ZM408.635 83.888C408.395 83.728 408.163 83.544 407.939 83.336C407.363 82.888 406.875 82.56 406.475 82.352C406.075 82.128 405.627 82.016 405.131 82.016C404.427 82.016 403.723 82.104 403.019 82.28C402.331 82.456 401.763 82.704 401.315 83.024C400.643 83.52 400.187 84.176 399.947 84.992C399.707 85.792 399.587 86.776 399.587 87.944C399.587 89.176 399.971 90.272 400.739 91.232C401.203 91.76 401.763 92.168 402.419 92.456C403.091 92.744 403.763 92.888 404.435 92.888C405.987 92.888 407.139 92.456 407.891 91.592C408.435 90.904 408.707 90.064 408.707 89.072C408.707 88.896 408.579 88.776 408.323 88.712C408.067 88.648 407.699 88.616 407.219 88.616C406.979 88.616 406.603 88.584 406.091 88.52C405.947 88.504 405.787 88.488 405.611 88.472C405.451 88.456 405.283 88.448 405.107 88.448C404.643 88.448 404.275 88.36 404.003 88.184C403.731 88.008 403.595 87.784 403.595 87.512C403.595 87.128 403.723 86.848 403.979 86.672C404.235 86.48 404.579 86.384 405.011 86.384C405.507 86.384 406.267 86.416 407.291 86.48C408.251 86.544 408.931 86.576 409.331 86.576C409.891 86.576 410.339 86.752 410.675 87.104C411.027 87.456 411.203 87.968 411.203 88.64C411.203 89.264 411.067 89.992 410.795 90.824C410.523 91.656 410.139 92.4 409.643 93.056C409.163 93.712 408.451 94.216 407.507 94.568C406.579 94.92 405.555 95.096 404.435 95.096C403.523 95.096 402.619 94.936 401.723 94.616C400.827 94.28 400.075 93.832 399.467 93.272C398.731 92.584 398.147 91.768 397.715 90.824C397.299 89.864 397.091 88.912 397.091 87.968C397.091 86.512 397.347 85.152 397.859 83.888C398.387 82.608 399.187 81.616 400.259 80.912C400.739 80.592 401.475 80.328 402.467 80.12C403.459 79.912 404.331 79.808 405.083 79.808C406.139 79.808 407.099 80.04 407.963 80.504C408.827 80.968 409.499 81.544 409.979 82.232C410.171 82.52 410.267 82.776 410.267 83C410.267 83.256 410.155 83.496 409.931 83.72C409.707 83.944 409.483 84.056 409.259 84.056C409.163 84.056 409.051 84.04 408.923 84.008C408.795 83.976 408.699 83.936 408.635 83.888ZM416.901 94.136C416.853 94.376 416.709 94.584 416.469 94.76C416.245 94.92 415.925 95 415.509 95C415.157 95 414.877 94.904 414.669 94.712C414.477 94.52 414.373 94.32 414.357 94.112C414.453 93.44 414.501 92.432 414.501 91.088C414.501 90.288 414.453 89.056 414.357 87.392C414.245 85.824 414.189 84.432 414.189 83.216C414.189 82.56 414.221 81.888 414.285 81.2C414.285 80.976 414.413 80.736 414.669 80.48C414.941 80.224 415.309 80.064 415.773 80C416.717 79.904 417.973 79.856 419.541 79.856L422.133 79.88C422.693 79.88 423.221 79.992 423.717 80.216C424.229 80.424 424.485 80.784 424.485 81.296C424.485 82.016 424.109 82.376 423.357 82.376C423.133 82.376 422.901 82.36 422.661 82.328C422.421 82.296 422.253 82.272 422.157 82.256C421.613 82.16 421.165 82.112 420.813 82.112H419.637C418.213 82.112 417.205 82.192 416.613 82.352C416.613 82.88 416.629 83.736 416.661 84.92L416.685 86.456C417.533 86.456 418.669 86.4 420.093 86.288C420.957 86.224 421.525 86.192 421.797 86.192C422.181 86.192 422.501 86.272 422.757 86.432C423.013 86.592 423.141 86.848 423.141 87.2C423.141 88.016 422.581 88.424 421.461 88.424C420.901 88.424 420.477 88.432 420.189 88.448L418.773 88.472C418.037 88.472 417.413 88.496 416.901 88.544C416.901 89.136 416.925 89.76 416.973 90.416C416.973 90.624 416.981 90.944 416.997 91.376C417.029 91.808 417.045 92.2 417.045 92.552C417.045 92.856 417.037 93.136 417.021 93.392C417.005 93.648 416.965 93.896 416.901 94.136ZM427.144 79.592C427.704 79.64 428.192 79.792 428.608 80.048C429.024 80.288 429.232 80.656 429.232 81.152C429.232 81.52 429.056 81.816 428.704 82.04C428.368 82.248 427.96 82.352 427.48 82.352C427.016 82.352 426.696 82.232 426.52 81.992C426.344 81.752 426.256 81.504 426.256 81.248C426.256 80.768 426.304 80.368 426.4 80.048C426.512 79.728 426.76 79.576 427.144 79.592ZM429.064 90.224V90.92C429.064 91.544 429.08 92.136 429.112 92.696C429.16 93.24 429.216 93.792 429.28 94.352C429.264 94.512 429.144 94.68 428.92 94.856C428.696 95.016 428.496 95.096 428.32 95.096C428.016 95.096 427.704 95.04 427.384 94.928C427.08 94.8 426.896 94.648 426.832 94.472C426.736 93.96 426.688 93.504 426.688 93.104C426.688 91.792 426.648 90.32 426.568 88.688C426.504 87.248 426.472 86.24 426.472 85.664C426.472 85.376 426.616 85.128 426.904 84.92C427.192 84.712 427.496 84.608 427.816 84.608C428.28 84.608 428.6 84.712 428.776 84.92C428.968 85.128 429.064 85.456 429.064 85.904V90.224ZM438.445 89.576C437.821 89.576 437.293 89.56 436.861 89.528C436.445 89.48 435.893 89.408 435.205 89.312L435.181 91.832C435.165 92.264 435.157 92.88 435.157 93.68C435.157 94.096 435.037 94.424 434.797 94.664C434.573 94.888 434.317 95 434.029 95C433.501 95 433.109 94.936 432.853 94.808C432.597 94.664 432.469 94.416 432.469 94.064C432.469 93.6 432.509 92.944 432.589 92.096C432.765 90.272 432.853 88.4 432.853 86.48C432.853 84.688 432.797 83 432.685 81.416C432.701 81.192 432.813 80.936 433.021 80.648C433.245 80.36 433.525 80.2 433.861 80.168C434.229 80.168 434.813 80.104 435.613 79.976C436.445 79.848 437.077 79.784 437.509 79.784C438.821 79.784 439.837 79.912 440.557 80.168C441.293 80.424 442.029 80.848 442.765 81.44C443.565 82.688 443.965 83.568 443.965 84.08C443.965 85.152 443.749 86.104 443.317 86.936C442.885 87.768 442.253 88.416 441.421 88.88C440.589 89.344 439.597 89.576 438.445 89.576ZM437.893 81.824C437.381 81.824 436.933 81.856 436.549 81.92C436.181 81.968 435.733 82.056 435.205 82.184C435.269 83.656 435.301 84.728 435.301 85.4C435.301 86.088 435.277 86.664 435.229 87.128C435.917 87.272 436.461 87.368 436.861 87.416C437.261 87.448 437.709 87.464 438.205 87.464C439.389 87.464 440.221 87.16 440.701 86.552C441.197 85.928 441.445 85.208 441.445 84.392C441.445 84.152 441.373 83.856 441.229 83.504C441.085 83.152 440.957 82.92 440.845 82.808C440.413 82.424 439.989 82.168 439.573 82.04C439.173 81.896 438.613 81.824 437.893 81.824Z" fill="#000091"/>
<path d="M230.504 155.64C231.064 156.584 231.624 157.424 232.184 158.16C232.76 158.88 233.512 159.768 234.44 160.824C234.552 160.936 234.608 161.064 234.608 161.208C234.608 161.432 234.48 161.624 234.224 161.784C233.984 161.944 233.688 162.024 233.336 162.024C232.84 162.024 232.304 161.816 231.728 161.4C231.216 161.032 230.76 160.544 230.36 159.936C229.96 159.328 229.496 158.536 228.968 157.56C228.552 156.808 228.304 156.368 228.224 156.24C227.6 156.496 226.624 156.656 225.296 156.72C225.296 157.264 225.344 158 225.44 158.928C225.536 159.888 225.584 160.584 225.584 161.016C225.584 161.304 225.44 161.544 225.152 161.736C224.88 161.928 224.568 162.024 224.216 162.024C223.8 162.024 223.48 161.856 223.256 161.52C223.032 161.072 222.888 160.536 222.824 159.912C222.76 159.288 222.728 158.544 222.728 157.68C222.728 156.768 222.784 155.736 222.896 154.584C222.992 153.304 223.04 152.36 223.04 151.752C223.04 151.256 222.992 150.592 222.896 149.76C222.88 149.616 222.856 149.368 222.824 149.016C222.792 148.664 222.776 148.344 222.776 148.056C222.776 147.832 222.856 147.64 223.016 147.48C223.192 147.304 223.376 147.184 223.568 147.12C224.864 146.912 226.128 146.808 227.36 146.808C229.456 146.808 231.192 147.2 232.568 147.984C233.944 148.768 234.632 149.96 234.632 151.56C234.632 152.056 234.52 152.536 234.296 153C234.088 153.448 233.8 153.824 233.432 154.128C232.456 154.88 231.48 155.384 230.504 155.64ZM232.112 151.488C232.112 150.72 231.704 150.096 230.888 149.616C230.072 149.12 228.912 148.872 227.408 148.872C226.736 148.872 226.072 148.952 225.416 149.112L225.44 150.336C225.44 151.04 225.416 151.728 225.368 152.4C225.32 153.072 225.296 153.792 225.296 154.56C225.568 154.496 225.856 154.456 226.16 154.44C226.464 154.408 226.664 154.384 226.76 154.368C227.464 154.304 228.008 154.224 228.392 154.128C229.112 153.904 229.704 153.704 230.168 153.528C230.648 153.336 231.088 153.072 231.488 152.736C231.904 152.384 232.112 151.968 232.112 151.488ZM247.244 148.512C247.244 148.048 247.348 147.648 247.556 147.312C247.78 146.96 248.108 146.784 248.54 146.784C248.908 146.784 249.236 146.856 249.524 147C249.812 147.144 249.956 147.384 249.956 147.72C249.956 148.376 249.924 149.296 249.86 150.48C249.796 151.632 249.764 152.488 249.764 153.048C249.764 153.928 249.796 155.104 249.86 156.576C249.924 157.984 249.956 159.016 249.956 159.672C249.956 160.2 249.948 160.592 249.932 160.848C249.932 161.104 249.788 161.36 249.5 161.616C249.228 161.856 248.804 161.976 248.228 161.976C247.924 161.976 247.66 161.928 247.436 161.832C247.228 161.72 247.084 161.6 247.004 161.472C246.252 160.56 245.156 159.008 243.716 156.816C242.1 154.368 240.78 152.496 239.756 151.2C239.884 152.352 239.948 153.76 239.948 155.424C239.948 156.16 239.932 157.12 239.9 158.304C239.884 159.472 239.852 160.24 239.804 160.608C239.74 161.072 239.596 161.432 239.372 161.688C239.164 161.928 238.828 162.048 238.364 162.048C238.012 162.048 237.748 161.952 237.572 161.76C237.412 161.552 237.316 161.2 237.284 160.704C237.268 160.048 237.308 159.064 237.404 157.752C237.42 157.544 237.444 157.184 237.476 156.672C237.508 156.16 237.524 155.704 237.524 155.304C237.524 154.2 237.468 152.936 237.356 151.512C237.26 149.944 237.212 148.784 237.212 148.032C237.212 147.648 237.348 147.352 237.62 147.144C237.908 146.936 238.236 146.832 238.604 146.832C238.924 146.832 239.26 146.912 239.612 147.072C240.988 148.8 242.852 151.376 245.204 154.8L247.46 158.256C247.476 158 247.484 157.64 247.484 157.176C247.484 156.36 247.468 155.48 247.436 154.536C247.404 153.592 247.38 152.952 247.364 152.616C247.284 151.064 247.244 149.696 247.244 148.512ZM263.008 153.912C264.16 154.072 265.024 154.496 265.6 155.184C266.176 155.856 266.464 156.648 266.464 157.56C266.464 158.456 266.168 159.264 265.576 159.984C265 160.704 264.256 161.2 263.344 161.472C262.88 161.648 262.184 161.792 261.256 161.904C260.344 162 259.52 162.048 258.784 162.048C257.504 162.048 256.192 161.928 254.848 161.688C254.608 161.64 254.352 161.52 254.08 161.328C253.824 161.136 253.696 160.856 253.696 160.488C253.68 159.8 253.688 158.84 253.72 157.608C253.752 156.68 253.768 155.992 253.768 155.544C253.768 155.016 253.76 154.616 253.744 154.344C253.744 153.912 253.728 153.248 253.696 152.352C253.648 151.392 253.624 150.408 253.624 149.4C253.256 149.08 253.072 148.696 253.072 148.248C253.072 147.912 253.216 147.64 253.504 147.432C253.808 147.208 254.168 147.08 254.584 147.048L255.496 146.976C257.304 146.8 258.512 146.712 259.12 146.712C260.24 146.712 261.272 146.864 262.216 147.168C263.176 147.456 263.968 147.912 264.592 148.536C264.816 148.792 265 149.12 265.144 149.52C265.288 149.904 265.36 150.28 265.36 150.648C265.376 151.416 265.176 152.104 264.76 152.712C264.344 153.304 263.76 153.704 263.008 153.912ZM259.264 148.752C258.72 148.752 258.152 148.784 257.56 148.848C256.984 148.912 256.496 148.992 256.096 149.088L256.24 153.288L257.104 153.264L257.536 153.24L258.496 153.264C258.944 153.296 259.264 153.312 259.456 153.312C259.648 153.312 259.888 153.296 260.176 153.264C261.92 152.896 262.792 152.168 262.792 151.08C262.792 150.84 262.744 150.6 262.648 150.36C262.552 150.104 262.448 149.92 262.336 149.808C261.904 149.392 261.464 149.112 261.016 148.968C260.568 148.824 259.984 148.752 259.264 148.752ZM256.192 159.84C256.512 159.888 256.96 159.928 257.536 159.96C258.128 159.992 258.64 160.008 259.072 160.008C260.368 160.008 261.456 159.8 262.336 159.384C263.216 158.968 263.656 158.352 263.656 157.536C263.656 157.2 263.52 156.856 263.248 156.504C262.976 156.152 262.616 155.864 262.168 155.64C261.72 155.416 261.248 155.304 260.752 155.304L259.432 155.328C258.6 155.36 257.952 155.376 257.488 155.376C257.12 155.376 256.728 155.36 256.312 155.328C256.296 156.256 256.256 157.76 256.192 159.84Z" fill="#000091"/>
<rect x="186.5" y="118.5" width="115" height="70" stroke="#000091" stroke-width="3"/>
<path d="M185.061 144.061C185.646 143.475 185.646 142.525 185.061 141.939L175.515 132.393C174.929 131.808 173.979 131.808 173.393 132.393C172.808 132.979 172.808 133.929 173.393 134.515L181.879 143L173.393 151.485C172.808 152.071 172.808 153.021 173.393 153.607C173.979 154.192 174.929 154.192 175.515 153.607L185.061 144.061ZM123 144.5L184 144.5L184 141.5L123 141.5L123 144.5Z" fill="#6A6AF4"/>
<path d="M121.939 166.939C121.354 167.525 121.354 168.475 121.939 169.061L131.485 178.607C132.071 179.192 133.021 179.192 133.607 178.607C134.192 178.021 134.192 177.071 133.607 176.485L125.121 168L133.607 159.515C134.192 158.929 134.192 157.979 133.607 157.393C133.021 156.808 132.071 156.808 131.485 157.393L121.939 166.939ZM185 166.5L123 166.5L123 169.5L185 169.5L185 166.5Z" fill="#F95C5E"/>
<path fill-rule="evenodd" clip-rule="evenodd" d="M444.375 184.312C443.789 184.312 443.312 183.836 443.312 183.25C443.312 182.664 443.789 182.188 444.375 182.188C444.961 182.188 445.438 182.664 445.438 183.25C445.438 183.836 444.961 184.312 444.375 184.312Z" fill="#CACAFB"/>
<path fill-rule="evenodd" clip-rule="evenodd" d="M442.25 124.812C441.664 124.812 441.188 124.336 441.188 123.75C441.188 123.164 441.664 122.688 442.25 122.688C442.836 122.688 443.312 123.164 443.312 123.75C443.312 124.336 442.836 124.812 442.25 124.812Z" fill="#CACAFB"/>
<path fill-rule="evenodd" clip-rule="evenodd" d="M384.875 184.312C384.289 184.312 383.812 183.836 383.812 183.25C383.812 182.664 384.289 182.188 384.875 182.188C385.461 182.188 385.938 182.664 385.938 183.25C385.938 183.836 385.461 184.312 384.875 184.312Z" fill="#CACAFB"/>
<path fill-rule="evenodd" clip-rule="evenodd" d="M390.609 123.757C390.82 123.752 391.034 123.75 391.25 123.75L391.572 123.752C391.679 123.753 391.785 123.754 391.891 123.757L392.518 123.777L393.13 123.81C393.432 123.83 393.727 123.854 394.015 123.884L394.581 123.951C397.64 124.351 399.75 125.351 399.75 126.938V133.312C399.75 133.899 399.274 134.375 398.688 134.375C398.143 134.375 397.694 133.965 397.632 133.436L397.625 133.312V129.196C396.795 129.527 395.759 129.77 394.581 129.924L394.015 129.991C393.727 130.021 393.432 130.045 393.13 130.065L392.518 130.098L391.891 130.118C391.68 130.123 391.466 130.125 391.25 130.125C391.034 130.125 390.82 130.123 390.609 130.118L389.982 130.098L389.37 130.065C389.068 130.045 388.773 130.021 388.485 129.991L387.919 129.924C384.86 129.524 382.75 128.524 382.75 126.938C382.75 125.351 384.86 124.351 387.919 123.951L388.485 123.884C388.773 123.854 389.068 123.83 389.37 123.81L389.982 123.777L390.609 123.757ZM397.625 126.938L397.602 126.923C397.361 126.786 397.02 126.647 396.598 126.52L396.381 126.457C395.055 126.09 393.219 125.875 391.251 125.875C389.282 125.875 387.446 126.09 386.12 126.457C385.672 126.581 385.302 126.717 385.028 126.854L384.875 126.938L385.056 127.035C385.28 127.144 385.565 127.253 385.903 127.355L386.12 127.418C387.446 127.785 389.282 128 391.251 128C393.219 128 395.055 127.785 396.381 127.418C396.829 127.294 397.199 127.158 397.473 127.021L397.625 126.938Z" fill="#E1000F"/>
<path d="M433.465 163.917C432.339 162.7 430.799 162 429.155 162C426.525 162 424.295 163.777 423.468 166.25H422.062L421.939 166.257C421.41 166.319 421 166.768 421 167.312C421 167.899 421.476 168.375 422.062 168.375H423.125C423.125 168.737 423.154 169.092 423.208 169.438H422.062L421.939 169.445C421.41 169.506 421 169.955 421 170.5C421 171.087 421.476 171.562 422.062 171.562H423.932C424.973 173.466 426.92 174.75 429.155 174.75C430.655 174.75 432.071 174.167 433.167 173.134C433.586 172.739 433.616 172.067 433.233 171.633C432.851 171.2 432.2 171.169 431.781 171.564C431.059 172.245 430.135 172.625 429.155 172.625C428.149 172.625 427.228 172.224 426.527 171.562H428.438L428.561 171.555C429.09 171.494 429.5 171.045 429.5 170.5C429.5 169.913 429.024 169.438 428.438 169.438H425.307C425.225 169.098 425.181 168.742 425.181 168.375H428.438L428.561 168.368C429.09 168.306 429.5 167.857 429.5 167.312C429.5 166.726 429.024 166.25 428.438 166.25H425.713C426.401 164.978 427.687 164.125 429.155 164.125C430.23 164.125 431.236 164.583 431.979 165.385C432.371 165.809 433.022 165.824 433.432 165.419C433.843 165.013 433.857 164.341 433.465 163.917Z" fill="#E1000F"/>
<path d="M383.812 132.25C384.357 132.25 384.806 132.623 384.868 133.103L384.875 133.216V152.534C384.875 153.068 384.399 153.5 383.812 153.5C383.268 153.5 382.819 153.127 382.757 152.647L382.75 152.534V133.216C382.75 132.682 383.226 132.25 383.812 132.25Z" fill="#E1000F"/>
<path d="M383.812 157.75C384.399 157.75 384.875 157.274 384.875 156.688C384.875 156.101 384.399 155.625 383.812 155.625C383.226 155.625 382.75 156.101 382.75 156.688C382.75 157.274 383.226 157.75 383.812 157.75Z" fill="#E1000F"/>
<path fill-rule="evenodd" clip-rule="evenodd" d="M433.75 140.75C433.534 140.75 433.32 140.752 433.109 140.757L432.482 140.777L431.87 140.81C431.568 140.83 431.273 140.854 430.985 140.884L430.419 140.951C427.36 141.351 425.25 142.351 425.25 143.938C425.25 145.524 427.36 146.524 430.419 146.924L430.985 146.991C431.273 147.021 431.568 147.045 431.87 147.065L432.482 147.098L433.109 147.118C433.32 147.123 433.534 147.125 433.75 147.125C433.966 147.125 434.18 147.123 434.391 147.118L435.018 147.098L435.63 147.065C435.932 147.045 436.227 147.021 436.515 146.991L437.081 146.924C438.259 146.77 439.295 146.527 440.125 146.196V150.312L440.132 150.436C440.194 150.965 440.643 151.375 441.188 151.375C441.774 151.375 442.25 150.899 442.25 150.312V143.938C442.25 142.351 440.14 141.351 437.081 140.951L436.515 140.884C436.227 140.854 435.932 140.83 435.63 140.81L435.018 140.777L434.391 140.757C434.285 140.754 434.179 140.753 434.072 140.752L433.75 140.75ZM439.973 144.021L440.125 143.938L440.102 143.923C439.861 143.786 439.52 143.647 439.098 143.52L438.881 143.457C437.555 143.09 435.719 142.875 433.751 142.875C431.782 142.875 429.946 143.09 428.62 143.457C428.172 143.581 427.802 143.717 427.528 143.854L427.375 143.938L427.556 144.035C427.78 144.144 428.065 144.253 428.403 144.355L428.62 144.418C429.946 144.785 431.782 145 433.751 145C435.719 145 437.555 144.785 438.881 144.418C439.329 144.294 439.699 144.158 439.973 144.021Z" fill="#E1000F"/>
<path d="M427.368 148.064C427.306 147.535 426.857 147.125 426.312 147.125C425.726 147.125 425.25 147.601 425.25 148.188V152.438L425.257 152.561C425.319 153.09 425.768 153.5 426.312 153.5C426.899 153.5 427.375 153.024 427.375 152.438V148.188L427.368 148.064Z" fill="#E1000F"/>
<path fill-rule="evenodd" clip-rule="evenodd" d="M408.953 134.375L408.244 134.388C408.126 134.391 408.01 134.395 407.893 134.399L407.203 134.431L406.526 134.475C406.192 134.5 405.863 134.53 405.541 134.564L404.905 134.639C404.8 134.652 404.697 134.666 404.594 134.68L403.986 134.773C400.199 135.397 397.625 136.731 397.625 138.624V143.482L397.63 143.64C397.633 143.678 397.636 143.717 397.641 143.755C397.63 143.814 397.625 143.875 397.625 143.938V148.795L397.63 148.952C397.633 148.991 397.636 149.029 397.641 149.067C397.63 149.127 397.625 149.188 397.625 149.25V154.107L397.63 154.265C397.633 154.303 397.636 154.341 397.641 154.379C397.63 154.439 397.625 154.499 397.625 154.562V159.419L397.63 159.576C397.64 159.725 397.664 159.871 397.701 160.014C397.543 160 397.384 159.987 397.224 159.975L396.547 159.931L395.857 159.899C395.74 159.895 395.624 159.891 395.506 159.888L394.797 159.875H394.078L393.369 159.888C393.251 159.891 393.135 159.895 393.018 159.899L392.328 159.931L391.651 159.975C391.317 160 390.988 160.03 390.666 160.064L390.03 160.139C389.925 160.152 389.822 160.166 389.719 160.18L389.111 160.273C385.324 160.897 382.75 162.231 382.75 164.124V168.982L382.755 169.139C382.758 169.178 382.761 169.216 382.766 169.254C382.755 169.314 382.75 169.375 382.75 169.437V174.294L382.755 174.452C382.893 176.537 385.765 178.029 389.817 178.662L390.433 178.75C390.641 178.778 390.853 178.803 391.066 178.826L391.714 178.888C392.588 178.962 393.5 179 394.437 179C395.375 179 396.287 178.962 397.161 178.888L397.809 178.826C398.022 178.803 398.233 178.778 398.442 178.75L399.058 178.662C403.03 178.041 405.868 176.596 406.108 174.575C407.122 174.69 408.18 174.75 409.259 174.75C411.905 174.75 415.146 174.412 416.946 173.904C419.005 178.177 423.377 181.125 428.437 181.125C435.479 181.125 441.187 175.416 441.187 168.375C441.187 161.333 435.479 155.624 428.437 155.624C425.662 155.624 423.093 156.511 421 158.017V154.562L420.993 154.438C420.992 154.428 420.99 154.418 420.989 154.408C420.988 154.399 420.986 154.389 420.984 154.379C420.995 154.29 421 154.199 421 154.107V149.25L420.993 149.126C420.991 149.106 420.988 149.087 420.984 149.067C420.995 148.978 421 148.887 421 148.795V143.938L420.993 143.814C420.991 143.794 420.988 143.774 420.984 143.755C420.995 143.665 421 143.574 421 143.482V138.625C421 136.781 418.559 135.468 414.935 134.824L414.338 134.725C414.135 134.694 413.929 134.666 413.72 134.639L413.084 134.564C412.762 134.53 412.433 134.5 412.099 134.475L411.422 134.431L410.732 134.399C410.615 134.395 410.499 134.391 410.381 134.388L409.672 134.375H408.953ZM416.814 163.127C415.951 163.401 414.981 163.622 413.933 163.786L413.317 163.875C413.108 163.902 412.897 163.927 412.684 163.95L412.036 164.012C411.162 164.086 410.25 164.124 409.312 164.124C408.375 164.124 407.463 164.086 406.589 164.012L406.119 163.967C406.123 164.019 406.125 164.071 406.125 164.124V166.88C407.138 167.006 408.207 167.072 409.302 167.072C411.464 167.072 414.042 166.823 415.833 166.442C416.01 165.278 416.344 164.165 416.814 163.127ZM415.697 168.872C413.812 169.223 411.385 169.438 409.302 169.438C408.208 169.438 407.136 169.376 406.11 169.258L406.113 169.278L406.116 169.299L406.118 169.313L406.125 169.437V172.206C407.126 172.328 408.18 172.392 409.259 172.392C411.598 172.392 414.463 172.107 416.125 171.697C415.881 170.791 415.734 169.846 415.697 168.872ZM399.75 143.482V141.223C400.773 141.742 402.121 142.146 403.69 142.425L404.287 142.523C404.49 142.554 404.696 142.583 404.905 142.61L405.541 142.684C405.863 142.719 406.192 142.749 406.526 142.774L407.203 142.818L407.893 142.849C408.01 142.854 408.126 142.857 408.244 142.861L408.953 142.873C409.073 142.874 409.192 142.875 409.312 142.875L409.672 142.873L410.381 142.861C410.499 142.857 410.615 142.854 410.732 142.849L411.422 142.818L412.099 142.774C412.433 142.749 412.762 142.719 413.084 142.684L413.72 142.61C413.825 142.596 413.928 142.582 414.031 142.568L414.639 142.475C416.335 142.196 417.788 141.774 418.875 141.223V143.482L418.868 143.547C418.783 143.929 417.984 144.538 416.481 145.053C414.62 145.691 412.058 146.063 409.312 146.063C406.567 146.063 404.005 145.691 402.144 145.053C400.553 144.508 399.75 143.857 399.75 143.482ZM400.571 139.339C400.044 139.09 399.75 138.842 399.75 138.625C399.75 138.409 400.044 138.161 400.571 137.912L400.854 137.788C400.954 137.746 401.061 137.705 401.174 137.664L401.53 137.543C401.654 137.502 401.784 137.463 401.919 137.423L402.341 137.308C402.414 137.289 402.488 137.27 402.564 137.251L403.031 137.142C403.191 137.107 403.356 137.072 403.526 137.039L404.048 136.942L404.594 136.852C404.687 136.838 404.781 136.824 404.876 136.81L405.456 136.733L406.057 136.666L406.677 136.608C406.887 136.591 407.099 136.576 407.314 136.562L407.967 136.528L408.634 136.507C408.746 136.505 408.859 136.503 408.972 136.502L409.312 136.5C409.541 136.5 409.767 136.502 409.991 136.507L410.658 136.528L411.311 136.562C411.526 136.576 411.738 136.591 411.948 136.608L412.568 136.666L413.169 136.733L413.749 136.81L414.307 136.896C414.398 136.911 414.488 136.926 414.577 136.942L415.099 137.039C415.184 137.056 415.267 137.073 415.35 137.09L415.831 137.196C415.987 137.232 416.138 137.27 416.284 137.308L416.706 137.423C416.773 137.443 416.84 137.463 416.905 137.483L417.278 137.603C417.455 137.664 417.62 137.726 417.771 137.788L418.054 137.912C418.581 138.161 418.875 138.409 418.875 138.625C418.875 138.842 418.581 139.09 418.054 139.339L417.771 139.463C417.671 139.504 417.564 139.546 417.451 139.587L417.095 139.708C416.971 139.748 416.841 139.788 416.706 139.827L416.284 139.943C416.211 139.962 416.137 139.981 416.061 140L415.594 140.109C415.434 140.144 415.269 140.179 415.099 140.212L414.577 140.309L414.031 140.399C413.938 140.413 413.844 140.427 413.749 140.441L413.169 140.518L412.568 140.585L411.948 140.643C411.738 140.66 411.526 140.675 411.311 140.689L410.658 140.723L409.991 140.744C409.767 140.748 409.541 140.751 409.312 140.751C409.084 140.751 408.858 140.748 408.634 140.744L407.967 140.723L407.314 140.689C407.099 140.675 406.887 140.66 406.677 140.643L406.057 140.585L405.456 140.518L404.876 140.441L404.318 140.355C404.227 140.34 404.137 140.325 404.048 140.309L403.526 140.212C403.441 140.195 403.358 140.178 403.275 140.161L402.794 140.055C402.638 140.018 402.487 139.981 402.341 139.943L401.919 139.827C401.852 139.808 401.785 139.788 401.72 139.768L401.347 139.648C401.17 139.587 401.005 139.525 400.854 139.463L400.571 139.339ZM399.75 148.795V146.321C400.988 147.018 402.697 147.538 404.692 147.85L405.308 147.938C405.516 147.966 405.728 147.991 405.941 148.014L406.589 148.076C407.463 148.15 408.375 148.188 409.312 148.188C410.25 148.188 411.162 148.15 412.036 148.076L412.684 148.014C412.897 147.991 413.108 147.966 413.317 147.938L413.933 147.85C415.928 147.538 417.637 147.018 418.875 146.321V148.795L418.868 148.86C418.783 149.241 417.984 149.85 416.481 150.366C414.62 151.004 412.058 151.375 409.312 151.375C406.567 151.375 404.005 151.004 402.144 150.366C400.553 149.82 399.75 149.169 399.75 148.795ZM404 171.821C402.762 172.517 401.053 173.037 399.058 173.349L398.442 173.438C398.233 173.465 398.022 173.49 397.809 173.513L397.161 173.575C396.287 173.649 395.375 173.687 394.437 173.687C393.5 173.687 392.588 173.649 391.714 173.575L391.066 173.513C390.853 173.49 390.641 173.465 390.433 173.438L389.817 173.349C387.822 173.037 386.113 172.517 384.875 171.821V174.294C384.875 174.669 385.678 175.32 387.269 175.865C389.13 176.503 391.692 176.875 394.437 176.875C397.183 176.875 399.745 176.503 401.606 175.865C403.109 175.35 403.908 174.741 403.993 174.359L404 174.294V171.821ZM399.75 151.634C400.988 152.33 402.697 152.85 404.692 153.162L405.308 153.251C405.516 153.278 405.728 153.303 405.941 153.326L406.589 153.388C407.463 153.462 408.375 153.5 409.312 153.5C410.25 153.5 411.162 153.462 412.036 153.388L412.684 153.326C412.897 153.303 413.108 153.278 413.317 153.251L413.933 153.162C415.928 152.85 417.637 152.33 418.875 151.634V154.107L418.868 154.172C418.783 154.554 417.984 155.163 416.481 155.678C414.62 156.316 412.058 156.688 409.312 156.688C406.567 156.688 404.005 156.316 402.144 155.678C400.553 155.133 399.75 154.482 399.75 154.107V151.634ZM418.875 159.419V156.946C417.637 157.643 415.928 158.163 413.933 158.475L413.317 158.563C413.108 158.591 412.897 158.616 412.684 158.639L412.036 158.701C411.162 158.775 410.25 158.813 409.312 158.813C408.375 158.813 407.463 158.775 406.589 158.701L405.941 158.639C405.728 158.616 405.516 158.591 405.308 158.563L404.692 158.475C402.697 158.163 400.988 157.643 399.75 156.946V159.419C399.75 159.687 400.16 160.096 400.975 160.506C402.098 160.756 403.08 161.077 403.878 161.464C405.468 161.808 407.343 161.999 409.312 161.999C412.058 161.999 414.62 161.628 416.481 160.99C417.984 160.474 418.783 159.865 418.868 159.484L418.875 159.419ZM403.467 163.561C402.279 163.307 401.223 162.972 400.347 162.563C400.306 162.555 400.265 162.547 400.224 162.539L399.702 162.442C399.613 162.426 399.523 162.411 399.432 162.396L398.874 162.31L398.294 162.233L397.693 162.166L397.073 162.108C396.863 162.091 396.651 162.076 396.436 162.062L395.783 162.028L395.116 162.007C394.892 162.002 394.666 162 394.437 162L394.097 162.002C393.984 162.003 393.871 162.005 393.759 162.007L393.092 162.028L392.439 162.062C392.224 162.076 392.012 162.091 391.802 162.108L391.182 162.166L390.581 162.233L390.001 162.31C389.906 162.324 389.812 162.338 389.719 162.352L389.173 162.442L388.651 162.539C388.481 162.572 388.316 162.607 388.156 162.642L387.689 162.751C387.613 162.77 387.539 162.789 387.466 162.808L387.044 162.923C386.909 162.963 386.779 163.002 386.655 163.043L386.299 163.164C386.186 163.205 386.079 163.246 385.979 163.288L385.696 163.412C385.169 163.661 384.875 163.909 384.875 164.125C384.875 164.342 385.169 164.59 385.696 164.839L385.979 164.963C386.13 165.025 386.295 165.087 386.472 165.148L386.845 165.268C386.91 165.288 386.977 165.308 387.044 165.327L387.466 165.443C387.612 165.481 387.763 165.518 387.919 165.555L388.4 165.661C388.483 165.678 388.566 165.695 388.651 165.712L389.173 165.809C389.262 165.825 389.352 165.84 389.443 165.855L390.001 165.941L390.581 166.018L391.182 166.085L391.802 166.143C392.012 166.16 392.224 166.175 392.439 166.189L393.092 166.223L393.759 166.244C393.983 166.248 394.209 166.251 394.437 166.251C394.666 166.251 394.892 166.248 395.116 166.244L395.783 166.223L396.436 166.189C396.651 166.175 396.863 166.16 397.073 166.143L397.693 166.085L398.294 166.018L398.874 165.941C398.969 165.927 399.063 165.913 399.156 165.899L399.702 165.809L400.224 165.712C400.394 165.679 400.559 165.644 400.719 165.609L401.186 165.5C401.262 165.481 401.336 165.462 401.409 165.443L401.831 165.327C401.966 165.288 402.096 165.248 402.22 165.208L402.576 165.087C402.689 165.046 402.796 165.004 402.896 164.963L403.179 164.839C403.706 164.59 404 164.342 404 164.125C404 163.952 403.812 163.759 403.467 163.561ZM404 168.982V166.723C402.913 167.274 401.46 167.696 399.764 167.975L399.156 168.068C399.053 168.082 398.95 168.096 398.845 168.11L398.209 168.184C397.887 168.219 397.558 168.249 397.224 168.274L396.547 168.318L395.857 168.349C395.74 168.354 395.624 168.357 395.506 168.361L394.797 168.373L394.437 168.375C394.317 168.375 394.198 168.374 394.078 168.373L393.369 168.361C393.251 168.357 393.135 168.354 393.018 168.349L392.328 168.318L391.651 168.274C391.317 168.249 390.988 168.219 390.666 168.184L390.03 168.11C389.821 168.083 389.615 168.054 389.412 168.023L388.815 167.925C387.246 167.646 385.898 167.242 384.875 166.723V168.982C384.875 169.356 385.678 170.007 387.269 170.553C389.13 171.191 391.692 171.562 394.437 171.562C397.183 171.562 399.745 171.191 401.606 170.553C403.109 170.037 403.908 169.428 403.993 169.047L404 168.982ZM428.437 157.749C434.306 157.749 439.062 162.506 439.062 168.375C439.062 174.243 434.306 179 428.437 179C422.569 179 417.812 174.243 417.812 168.375C417.812 162.506 422.569 157.749 428.437 157.749Z" fill="#000091"/>
<path d="M435.26 153.599C434.728 153.352 434.096 153.583 433.849 154.115C433.602 154.648 433.833 155.279 434.365 155.526C439.13 157.739 442.25 162.377 442.25 167.313C442.25 167.9 442.726 168.376 443.313 168.376C443.9 168.376 444.375 167.9 444.375 167.313C444.375 161.529 440.758 156.152 435.26 153.599Z" fill="#000091"/>
<line x1="365" y1="169.5" x2="303" y2="169.5" stroke="#F95C5E" stroke-width="3"/>
</svg>
