<svg width="56" height="56" viewBox="0 0 56 56" fill="none" xmlns="http://www.w3.org/2000/svg">
<path fill-rule="evenodd" clip-rule="evenodd" d="M39.9002 54.6001C39.5142 54.6001 39.2002 54.2861 39.2002 53.9001C39.2002 53.5141 39.5142 53.2001 39.9002 53.2001C40.2862 53.2001 40.6002 53.5141 40.6002 53.9001C40.6002 54.2861 40.2862 54.6001 39.9002 54.6001Z" fill="#CACAFB"/>
<path fill-rule="evenodd" clip-rule="evenodd" d="M42.7 4.20005C42.314 4.20005 42 3.88603 42 3.50005C42 3.11404 42.314 2.80005 42.7 2.80005C43.086 2.80005 43.4 3.11404 43.4 3.50005C43.4 3.88603 43.086 4.20005 42.7 4.20005Z" fill="#CACAFB"/>
<path fill-rule="evenodd" clip-rule="evenodd" d="M18.9002 54.6001C18.5142 54.6001 18.2002 54.2861 18.2002 53.9001C18.2002 53.5141 18.5142 53.2001 18.9002 53.2001C19.2862 53.2001 19.6002 53.5141 19.6002 53.9001C19.6002 54.2861 19.2862 54.6001 18.9002 54.6001Z" fill="#CACAFB"/>
<path d="M31.4957 6.91841C31.4552 6.57028 31.1594 6.30005 30.8004 6.30005C30.4138 6.30005 30.1004 6.61345 30.1004 7.00005V9.80005L30.1051 9.88168C30.1455 10.2298 30.4414 10.5 30.8004 10.5C31.187 10.5 31.5004 10.1866 31.5004 9.80005V7.00005L31.4957 6.91841Z" fill="#E1000F"/>
<path d="M14.0004 24.5C14.0004 24.1135 13.687 23.8001 13.3004 23.8001H9.10039L9.01876 23.8048C8.67062 23.8452 8.40039 24.1411 8.40039 24.5C8.40039 24.8866 8.71379 25.2001 9.10039 25.2001H13.3004L13.382 25.1953C13.7302 25.1549 14.0004 24.859 14.0004 24.5Z" fill="#E1000F"/>
<path fill-rule="evenodd" clip-rule="evenodd" d="M28.0004 23.8001C26.8406 23.8001 25.9004 24.7403 25.9004 25.9001C25.9004 27.0598 26.8406 28 28.0004 28C29.1602 28 30.1004 27.0598 30.1004 25.9001C30.1004 24.7403 29.1602 23.8001 28.0004 23.8001ZM28.0004 25.2001C28.387 25.2001 28.7004 25.5135 28.7004 25.9001C28.7004 26.2866 28.387 26.6 28.0004 26.6C27.6138 26.6 27.3004 26.2866 27.3004 25.9001C27.3004 25.5135 27.6138 25.2001 28.0004 25.2001Z" fill="#E1000F"/>
<path d="M13.3004 26.6C13.687 26.6 14.0004 26.9135 14.0004 27.3001C14.0004 27.659 13.7302 27.9549 13.382 27.9953L13.3004 28H9.10039C8.71379 28 8.40039 27.6866 8.40039 27.3001C8.40039 26.9411 8.67062 26.6452 9.01876 26.6048L9.10039 26.6H13.3004Z" fill="#E1000F"/>
<path d="M22.4004 24.5C22.4004 24.1135 22.087 23.8001 21.7004 23.8001H17.5004L17.4188 23.8048C17.0706 23.8452 16.8004 24.1411 16.8004 24.5C16.8004 24.8866 17.1138 25.2001 17.5004 25.2001H21.7004L21.782 25.1953C22.1302 25.1549 22.4004 24.859 22.4004 24.5Z" fill="#E1000F"/>
<path d="M21.7004 26.6C22.087 26.6 22.4004 26.9135 22.4004 27.3001C22.4004 27.659 22.1302 27.9549 21.782 27.9953L21.7004 28H17.5004C17.1138 28 16.8004 27.6866 16.8004 27.3001C16.8004 26.9411 17.0706 26.6452 17.4188 26.6048L17.5004 26.6H21.7004Z" fill="#E1000F"/>
<path d="M39.2004 24.5C39.2004 24.1135 38.887 23.8001 38.5004 23.8001H34.3004L34.2188 23.8048C33.8706 23.8452 33.6004 24.1411 33.6004 24.5C33.6004 24.8866 33.9138 25.2001 34.3004 25.2001H38.5004L38.582 25.1953C38.9302 25.1549 39.2004 24.859 39.2004 24.5Z" fill="#E1000F"/>
<path d="M38.5004 26.6C38.887 26.6 39.2004 26.9135 39.2004 27.3001C39.2004 27.659 38.9302 27.9549 38.582 27.9953L38.5004 28H34.3004C33.9138 28 33.6004 27.6866 33.6004 27.3001C33.6004 26.9411 33.8706 26.6452 34.2188 26.6048L34.3004 26.6H38.5004Z" fill="#E1000F"/>
<path d="M47.6004 24.5C47.6004 24.1135 47.287 23.8001 46.9004 23.8001H42.7004L42.6188 23.8048C42.2706 23.8452 42.0004 24.1411 42.0004 24.5C42.0004 24.8866 42.3138 25.2001 42.7004 25.2001H46.9004L46.982 25.1953C47.3302 25.1549 47.6004 24.859 47.6004 24.5Z" fill="#E1000F"/>
<path d="M46.9004 26.6C47.287 26.6 47.6004 26.9135 47.6004 27.3001C47.6004 27.659 47.3302 27.9549 46.982 27.9953L46.9004 28H42.7004C42.3138 28 42.0004 27.6866 42.0004 27.3001C42.0004 26.9411 42.2706 26.6452 42.6188 26.6048L42.7004 26.6H46.9004Z" fill="#E1000F"/>
<path d="M28.6957 6.91841C28.6552 6.57028 28.3594 6.30005 28.0004 6.30005C27.6138 6.30005 27.3004 6.61345 27.3004 7.00005V9.80005L27.3051 9.88168C27.3455 10.2298 27.6414 10.5 28.0004 10.5C28.387 10.5 28.7004 10.1866 28.7004 9.80005V7.00005L28.6957 6.91841Z" fill="#000091"/>
<path d="M28.6957 11.8184C28.6552 11.4703 28.3594 11.2 28.0004 11.2C27.6138 11.2 27.3004 11.5134 27.3004 11.9V14H11.9004L11.8188 14.0048C11.4706 14.0452 11.2004 14.3411 11.2004 14.7V18.2H2.10039L2.01876 18.2048C1.67062 18.2452 1.40039 18.5411 1.40039 18.9C1.40039 19.2866 1.71379 19.6 2.10039 19.6H53.9004L53.982 19.5953C54.3302 19.5549 54.6004 19.259 54.6004 18.9C54.6004 18.5134 54.287 18.2 53.9004 18.2H44.8004V14.7L44.7957 14.6184C44.7552 14.2703 44.4594 14 44.1004 14C43.7138 14 43.4004 14.3134 43.4004 14.7V18.2H12.6004V15.4H37.1004L37.182 15.3953C37.5302 15.3549 37.8004 15.059 37.8004 14.7C37.8004 14.3134 37.487 14 37.1004 14H28.7004V11.9L28.6957 11.8184Z" fill="#000091"/>
<path d="M17.5004 30.8C17.8594 30.8 18.1552 31.0703 18.1957 31.4184L18.2004 31.5V45.5C18.2004 45.8866 17.887 46.2 17.5004 46.2C17.1414 46.2 16.8455 45.9298 16.8051 45.5817L16.8004 45.5V31.5C16.8004 31.1134 17.1138 30.8 17.5004 30.8Z" fill="#000091"/>
<path d="M15.3957 34.2184C15.3552 33.8703 15.0594 33.6 14.7004 33.6C14.3138 33.6 14.0004 33.9135 14.0004 34.3V47.6H8.40039V34.3L8.39568 34.2184C8.35525 33.8703 8.05938 33.6 7.70039 33.6C7.31379 33.6 7.00039 33.9135 7.00039 34.3V47.6H4.90039L4.81876 47.6048C4.47062 47.6452 4.20039 47.9411 4.20039 48.3C4.20039 48.6866 4.51379 49 4.90039 49H14.7004C14.7487 49 14.7959 48.9952 14.8415 48.9858C15.1604 48.9206 15.4004 48.6383 15.4004 48.3V34.3L15.3957 34.2184Z" fill="#000091"/>
<path d="M10.5004 30.8C10.8594 30.8 11.1552 31.0703 11.1957 31.4184L11.2004 31.5V42.7C11.2004 43.0866 10.887 43.4 10.5004 43.4C10.1414 43.4 9.84554 43.1298 9.8051 42.7817L9.80039 42.7V31.5C9.80039 31.1134 10.1138 30.8 10.5004 30.8Z" fill="#000091"/>
<path d="M41.3004 14C41.687 14 42.0004 14.3134 42.0004 14.7C42.0004 15.059 41.7302 15.3549 41.382 15.3953L41.3004 15.4H39.9004C39.5138 15.4 39.2004 15.0866 39.2004 14.7C39.2004 14.3411 39.4706 14.0452 39.8188 14.0048L39.9004 14H41.3004Z" fill="#000091"/>
<path d="M4.90039 21C5.25938 21 5.55525 21.2703 5.59568 21.6184L5.60039 21.7V45.5C5.60039 45.8866 5.28699 46.2 4.90039 46.2C4.54141 46.2 4.24554 45.9298 4.2051 45.5817L4.20039 45.5V21.7C4.20039 21.3134 4.51379 21 4.90039 21Z" fill="#000091"/>
<path fill-rule="evenodd" clip-rule="evenodd" d="M33.5957 34.2184C33.5552 33.8703 33.2594 33.6 32.9004 33.6H23.1004L23.0188 33.6048C22.6706 33.6452 22.4004 33.9411 22.4004 34.3V44.8H20.3004L20.2188 44.8048C19.8706 44.8452 19.6004 45.1411 19.6004 45.5C19.6004 45.8866 19.9138 46.2 20.3004 46.2H35.7004L35.782 46.1953C36.1302 46.1549 36.4004 45.859 36.4004 45.5C36.4004 45.1134 36.087 44.8 35.7004 44.8H33.6004V34.3L33.5957 34.2184ZM27.3004 44.8H23.8004V34.9993H32.2004V44.8H28.7004V38.5L28.6957 38.4184C28.6552 38.0703 28.3594 37.8 28.0004 37.8C27.6138 37.8 27.3004 38.1134 27.3004 38.5V44.8Z" fill="#000091"/>
<path d="M31.5004 30.8C31.887 30.8 32.2004 31.1134 32.2004 31.5C32.2004 31.859 31.9302 32.1549 31.582 32.1953L31.5004 32.2H24.5004C24.1138 32.2 23.8004 31.8866 23.8004 31.5C23.8004 31.1411 24.0706 30.8452 24.4188 30.8048L24.5004 30.8H31.5004Z" fill="#000091"/>
<path d="M38.5004 30.8C38.1414 30.8 37.8455 31.0703 37.8051 31.4184L37.8004 31.5V45.5C37.8004 45.8866 38.1138 46.2 38.5004 46.2C38.8594 46.2 39.1552 45.9298 39.1957 45.5817L39.2004 45.5V31.5C39.2004 31.1134 38.887 30.8 38.5004 30.8Z" fill="#000091"/>
<path d="M40.6051 34.2184C40.6455 33.8703 40.9414 33.6 41.3004 33.6C41.687 33.6 42.0004 33.9135 42.0004 34.3V42.7L41.9957 42.7817C41.9552 43.1298 41.6594 43.4 41.3004 43.4C40.9138 43.4 40.6004 43.0866 40.6004 42.7V34.3L40.6051 34.2184Z" fill="#000091"/>
<path d="M45.5004 30.8C45.1414 30.8 44.8455 31.0703 44.8051 31.4184L44.8004 31.5V45.5C44.8004 45.8866 45.1138 46.2 45.5004 46.2C45.8594 46.2 46.1552 45.9298 46.1957 45.5817L46.2004 45.5V31.5C46.2004 31.1134 45.887 30.8 45.5004 30.8Z" fill="#000091"/>
<path d="M47.6051 34.2184C47.6455 33.8703 47.9414 33.6 48.3004 33.6C48.687 33.6 49.0004 33.9135 49.0004 34.3V48.3C49.0004 48.3277 48.9988 48.3549 48.9957 48.3817C48.9584 48.703 48.7034 48.958 48.3821 48.9953C48.3553 48.9984 48.328 49 48.3004 49H17.5004C17.1138 49 16.8004 48.6866 16.8004 48.3C16.8004 47.9411 17.0706 47.6452 17.4188 47.6048L17.5004 47.6H47.6004V34.3L47.6051 34.2184Z" fill="#000091"/>
<path d="M51.1004 21C51.4594 21 51.7552 21.2703 51.7957 21.6184L51.8004 21.7V48.3C51.8004 48.6866 51.487 49 51.1004 49C50.7414 49 50.4455 48.7298 50.4051 48.3817L50.4004 48.3V21.7C50.4004 21.3134 50.7138 21 51.1004 21Z" fill="#000091"/>
</svg>
