<?xml version="1.0" encoding="UTF-8"?>
<svg width="1200pt" height="1200pt" version="1.1" viewBox="0 0 1200 1200" xmlns="http://www.w3.org/2000/svg">
 <g fill="#000090">
  <path d="m209.64 798.48h44.039c8.5742 0 16.496-4.5742 20.785-12 4.2852-7.4258 4.2852-16.574 0-24-4.2891-7.4258-12.211-12-20.785-12h-44.039c-8.5742 0-16.5 4.5742-20.785 12-4.2891 7.4258-4.2891 16.574 0 24 4.2852 7.4258 12.211 12 20.785 12z"/>
  <path d="m253.56 870.48h-43.918c-8.5742 0-16.5 4.5742-20.785 12-4.2891 7.4258-4.2891 16.574 0 24 4.2852 7.4258 12.211 12 20.785 12h44.039c8.5742 0 16.496-4.5742 20.785-12 4.2852-7.4258 4.2852-16.574 0-24-4.2891-7.4258-12.211-12-20.785-12z"/>
  <path d="m253.56 990.48h-43.918c-8.5742 0-16.5 4.5742-20.785 12-4.2891 7.4258-4.2891 16.574 0 24 4.2852 7.4258 12.211 12 20.785 12h44.039c8.5742 0 16.496-4.5742 20.785-12 4.2852-7.4258 4.2852-16.574 0-24-4.2891-7.4258-12.211-12-20.785-12z"/>
  <path d="m447.6 498.96c0 8.5742 4.5742 16.496 12 20.785 7.4258 4.2852 16.574 4.2852 24 0 7.4258-4.2891 12-12.211 12-20.785v-75.961c0-8.5742-4.5742-16.496-12-20.785-7.4258-4.2852-16.574-4.2852-24 0-7.4258 4.2891-12 12.211-12 20.785z"/>
  <path d="m591.6 522.96c6.3633 0 12.469-2.5312 16.969-7.0312s7.0312-10.605 7.0312-16.969v-75.961c0-8.5742-4.5742-16.496-12-20.785-7.4258-4.2852-16.574-4.2852-24 0-7.4258 4.2891-12 12.211-12 20.785v75.961c0 6.3633 2.5273 12.469 7.0273 16.969s10.605 7.0312 16.973 7.0312z"/>
  <path d="m711.6 522.96c6.3633 0 12.469-2.5312 16.969-7.0312s7.0312-10.605 7.0312-16.969v-75.961c0-8.5742-4.5742-16.496-12-20.785-7.4258-4.2852-16.574-4.2852-24 0-7.4258 4.2891-12 12.211-12 20.785v75.961c0 6.3633 2.5273 12.469 7.0273 16.969s10.605 7.0312 16.973 7.0312z"/>
  <path d="m471.6 639c-6.3672 0-12.473 2.5273-16.973 7.0312-4.5 4.5-7.0273 10.605-7.0273 16.969v75.961c0 8.5742 4.5742 16.496 12 20.785 7.4258 4.2852 16.574 4.2852 24 0 7.4258-4.2891 12-12.211 12-20.785v-75.961c0-6.3633-2.5312-12.469-7.0312-16.969-4.5-4.5039-10.605-7.0312-16.969-7.0312z"/>
  <path d="m591.6 762.96c6.3633 0 12.469-2.5312 16.969-7.0312s7.0312-10.605 7.0312-16.969v-75.961c0-8.5742-4.5742-16.496-12-20.785-7.4258-4.2852-16.574-4.2852-24 0-7.4258 4.2891-12 12.211-12 20.785v75.961c0 6.3633 2.5273 12.469 7.0273 16.969s10.605 7.0312 16.973 7.0312z"/>
  <path d="m711.6 762.96c6.3633 0 12.469-2.5312 16.969-7.0312s7.0312-10.605 7.0312-16.969v-75.961c0-8.5742-4.5742-16.496-12-20.785-7.4258-4.2852-16.574-4.2852-24 0-7.4258 4.2891-12 12.211-12 20.785v75.961c0 6.3633 2.5273 12.469 7.0273 16.969s10.605 7.0312 16.973 7.0312z"/>
  <path d="m471.6 879c-6.3672 0-12.473 2.5273-16.973 7.0312-4.5 4.5-7.0273 10.605-7.0273 16.969v75.961c0 8.5742 4.5742 16.496 12 20.785 7.4258 4.2852 16.574 4.2852 24 0 7.4258-4.2891 12-12.211 12-20.785v-75.961c0-6.3633-2.5312-12.469-7.0312-16.969-4.5-4.5039-10.605-7.0312-16.969-7.0312z"/>
  <path d="m591.6 1003c6.3633 0 12.469-2.5312 16.969-7.0312s7.0312-10.605 7.0312-16.969v-75.961c0-8.5742-4.5742-16.496-12-20.785-7.4258-4.2852-16.574-4.2852-24 0-7.4258 4.2891-12 12.211-12 20.785v75.961c0 6.3633 2.5273 12.469 7.0273 16.969s10.605 7.0312 16.973 7.0312z"/>
  <path d="m711.6 1003c6.3633 0 12.469-2.5312 16.969-7.0312s7.0312-10.605 7.0312-16.969v-75.961c0-8.5742-4.5742-16.496-12-20.785-7.4258-4.2852-16.574-4.2852-24 0-7.4258 4.2891-12 12.211-12 20.785v75.961c0 6.3633 2.5273 12.469 7.0273 16.969s10.605 7.0312 16.973 7.0312z"/>
  <path d="m600 30.961c-6.3633 0-12.469 2.5273-16.969 7.0273-4.5039 4.5039-7.0312 10.605-7.0312 16.973v178.08h-124.2c-31.828 0-62.348 12.645-84.855 35.148-22.504 22.504-35.145 53.027-35.145 84.852v280.44h-132c-31.828 0-62.348 12.641-84.855 35.148-22.504 22.504-35.145 53.023-35.145 84.852v367.56h-19.801c-8.5742 0-16.496 4.5742-20.785 12-4.2852 7.4258-4.2852 16.574 0 24 4.2891 7.4258 12.211 12 20.785 12h1080c8.5742 0 16.496-4.5742 20.785-12 4.2852-7.4258 4.2852-16.574 0-24-4.2891-7.4258-12.211-12-20.785-12h-31.801v-480c0-19.094-7.5859-37.406-21.086-50.91-13.504-13.504-31.816-21.09-50.914-21.09h-49.199v-60c0-19.094-7.5859-37.406-21.09-50.91-13.5-13.504-31.816-21.09-50.91-21.09h-67.199v-84c0-31.824-12.645-62.348-35.148-84.852s-53.027-35.148-84.852-35.148h-103.8v-178.08c0-6.3672-2.5273-12.469-7.0312-16.973-4.5-4.5-10.605-7.0273-16.969-7.0273zm-472.2 722.52c0-19.098 7.5859-37.41 21.086-50.914 13.504-13.5 31.816-21.086 50.914-21.086h132v439.56h-204zm787.2-268.44c6.3633 0 12.469 2.5312 16.969 7.0312 4.5039 4.5 7.0312 10.605 7.0312 16.969v84c0 6.3672 2.5273 12.469 7.0312 16.973 4.5 4.5 10.605 7.0273 16.969 7.0273h73.199c6.3672 0 12.469 2.5312 16.973 7.0312 4.5 4.5 7.0273 10.605 7.0273 16.969v480h-212.4v-90h97.801c8.5742 0 16.496-4.5742 20.781-12 4.2891-7.4258 4.2891-16.574 0-24-4.2852-7.4258-12.207-12-20.781-12h-97.801v-72h97.801c8.5742 0 16.496-4.5742 20.781-12 4.2891-7.4258 4.2891-16.574 0-24-4.2852-7.4258-12.207-12-20.781-12h-97.801v-72h97.801c8.5742 0 16.496-4.5742 20.781-12 4.2891-7.4258 4.2891-16.574 0-24-4.2852-7.4258-12.207-12-20.781-12h-97.801v-258zm-115.2-132v768h-420v-768c0-19.094 7.5859-37.406 21.086-50.91 13.504-13.504 31.816-21.09 50.914-21.09h276c19.094 0 37.41 7.5859 50.91 21.09 13.504 13.504 21.09 31.816 21.09 50.91z"/>
 </g>
</svg>
