<?xml version="1.0" encoding="UTF-8"?>
<svg width="1200pt" height="1200pt" version="1.1" viewBox="0 0 1200 1200" xmlns="http://www.w3.org/2000/svg">
 <g fill="#000090">
  <path d="m976.98 644.06v-341.58c59.004-8.4961 104.51-59.242 104.51-120.54 0.011719-67.215-54.695-121.95-121.92-121.95-67.234 0-121.95 54.73-121.95 121.95h-719.12v696.76h406.48c9.0586 145.56 130.03 261.3 277.81 261.3 153.67 0 278.7-125.04 278.7-278.7 0.011719-87.781-40.871-166.08-104.51-217.24zm-17.414-549.21c48.023 0 87.098 39.07 87.098 87.098 0 48.023-39.059 87.109-87.098 87.109-48.035 0-87.098-39.086-87.098-87.109 0.003906-48.023 39.062-87.098 87.098-87.098zm-806.23 121.93h689.43c4.1641 13.906 10.789 26.711 19.297 38.051l-106.55 106.55c-6.8281-3.2773-14.34-5.2578-22.402-5.2578-8.0391 0-15.562 1.9688-22.379 5.2578l-35.102-35.102c3.2539-6.8281 5.2305-14.352 5.2305-22.391 0-28.824-23.449-52.273-52.262-52.273s-52.246 23.449-52.246 52.273c0 8.0391 1.9688 15.562 5.2422 22.344l-87.371 87.371c-6.8164-3.2539-14.34-5.2188-22.391-5.2188-28.801 0-52.246 23.438-52.246 52.246 0 28.801 23.449 52.246 52.246 52.246 28.812 0 52.262-23.438 52.262-52.246 0-8.0391-1.9688-15.59-5.2422-22.379l87.371-87.359c6.8164 3.2539 14.352 5.2305 22.391 5.2305 8.0508 0 15.574-1.9688 22.367-5.2422l35.113 35.113c-3.2539 6.8047-5.2305 14.328-5.2305 22.391 0 28.801 23.438 52.246 52.246 52.246 28.812 0 52.262-23.449 52.262-52.246 0-8.0625-1.9688-15.59-5.2422-22.391l106.55-106.52c15.949 11.953 34.859 20.039 55.465 23.027v317.79c-41.051-23.832-88.547-37.715-139.36-37.715-83.258 0-157.92 36.863-209.03 94.98l-0.011718-77.547h-104.51v209.03h39.926c-2.1602 11.363-3.4688 23.027-4.1992 34.836h-371.64zm579.78 174.19c9.6016 0 17.41 7.8008 17.41 17.426 0 9.6016-7.8125 17.398-17.41 17.398-9.6016 0-17.426-7.8008-17.426-17.398 0-9.625 7.8242-17.426 17.426-17.426zm-121.95-87.086c0-9.6367 7.8242-17.438 17.426-17.438 9.6016 0 17.426 7.8008 17.426 17.438 0 9.6016-7.8242 17.41-17.426 17.41-9.6016 0.003906-17.426-7.8086-17.426-17.41zm-121.93 156.77c0 9.6133-7.8125 17.41-17.41 17.41-9.6016 0-17.41-7.8008-17.41-17.41 0-9.6133 7.8125-17.41 17.41-17.41 9.6016-0.003906 17.41 7.7969 17.41 17.41zm313.55 540c-76.836 0-139.36-62.543-139.36-139.34 0-76.848 62.508-139.34 139.36-139.34 76.836 0 139.36 62.496 139.36 139.34 0 76.801-62.52 139.34-139.36 139.34zm-243.88-274c-8.3398 15.059-15.227 30.938-20.699 47.543h-14.137v-139.36h34.824v91.812zm226.45-108.35v69.66c-87.898 8.7969-156.77 83.148-156.77 173.33 0 25.477 5.6523 49.621 15.527 71.484l-60.434 34.883c-15.707-32.195-24.758-68.219-24.758-106.37-0.003907-128.62 100.1-234 226.43-242.99zm17.426 486.84c-83.855 0-157.96-42.551-201.85-107.21l60.684-35.039c31.668 43.836 83.074 72.551 141.19 72.551 58.105 0 109.51-28.715 141.18-72.551l60.684 35.039c-43.906 64.656-118 107.21-201.85 107.21zm219.11-137.47-60.434-34.906c9.875-21.84 15.527-45.984 15.527-71.484 0-90.168-68.867-164.54-156.77-173.3v-69.684c126.35 8.9883 226.45 114.38 226.45 242.96 0 38.16-9.0586 74.195-24.77 106.39l0.003906 0.023438z"/>
  <path d="m802.79 756.77c-57.648 0-104.51 46.871-104.51 104.53 0 57.613 46.871 104.5 104.51 104.5 57.637 0 104.51-46.883 104.51-104.5 0-57.648-46.859-104.53-104.51-104.53zm0 174.18c-38.426 0-69.672-31.234-69.672-69.648 0-38.438 31.246-69.707 69.672-69.707 38.426 0 69.672 31.262 69.672 69.707 0.011718 38.422-31.238 69.648-69.672 69.648z"/>
  <path d="m210.53 251.62h34.836v34.836h-34.836z"/>
  <path d="m280.21 251.62h174.19v34.836h-174.19z"/>
  <path d="m210.53 321.3h34.836v34.824h-34.836z"/>
  <path d="m280.21 321.3h174.19v34.824h-174.19z"/>
  <path d="m210.53 809.05h104.52v-139.37h-104.52zm34.848-104.55h34.836v69.707h-34.836z"/>
  <path d="m349.89 809.05h104.52v-278.73h-104.52zm34.836-243.9h34.836v209.05h-34.836z"/>
 </g>
</svg>
