<svg width="69" height="66" viewBox="0 0 69 66" fill="none" xmlns="http://www.w3.org/2000/svg">
<path fill-rule="evenodd" clip-rule="evenodd" d="M64.6867 51.15C64.2111 51.15 63.8242 50.7799 63.8242 50.325C63.8242 49.8701 64.2111 49.5 64.6867 49.5C65.1623 49.5 65.5492 49.8701 65.5492 50.325C65.5492 50.7799 65.1623 51.15 64.6867 51.15Z" fill="#CACAFB"/>
<path fill-rule="evenodd" clip-rule="evenodd" d="M47.4367 3.2999C46.9611 3.2999 46.5742 2.92981 46.5742 2.4749C46.5742 2.01996 46.9611 1.6499 47.4367 1.6499C47.9123 1.6499 48.2992 2.01996 48.2992 2.4749C48.2992 2.92981 47.9123 3.2999 47.4367 3.2999Z" fill="#CACAFB"/>
<path fill-rule="evenodd" clip-rule="evenodd" d="M2.58711 44.5499C2.11153 44.5499 1.72461 44.1798 1.72461 43.7249C1.72461 43.27 2.11153 42.8999 2.58711 42.8999C3.06269 42.8999 3.44961 43.27 3.44961 43.7249C3.44961 44.1798 3.06269 44.5499 2.58711 44.5499Z" fill="#CACAFB"/>
<path d="M35.3627 14.8501C35.839 14.8501 36.2252 15.2195 36.2252 15.6751C36.2252 16.0982 35.8922 16.4469 35.4633 16.4945L35.3627 16.5001H21.5627C21.0863 16.5001 20.7002 16.1307 20.7002 15.6751C20.7002 15.252 21.0332 14.9033 21.4621 14.8556L21.5627 14.8501H35.3627Z" fill="#E1000F"/>
<path d="M43.9877 19.8001C44.464 19.8001 44.8502 20.1695 44.8502 20.6251C44.8502 21.0482 44.5172 21.3969 44.0883 21.4445L43.9877 21.4501H21.5627C21.0863 21.4501 20.7002 21.0807 20.7002 20.6251C20.7002 20.202 21.0332 19.8533 21.4621 19.8056L21.5627 19.8001H43.9877Z" fill="#E1000F"/>
<path d="M39.6752 25.5751C39.6752 25.1195 39.289 24.7501 38.8127 24.7501H21.5627L21.4621 24.7556C21.0332 24.8033 20.7002 25.152 20.7002 25.5751C20.7002 26.0307 21.0863 26.4001 21.5627 26.4001H38.8127L38.9133 26.3945C39.3422 26.3469 39.6752 25.9982 39.6752 25.5751Z" fill="#E1000F"/>
<path d="M43.9879 29.6999C44.4642 29.6999 44.8504 30.0693 44.8504 30.5249C44.8504 30.948 44.5174 31.2967 44.0885 31.3444L43.9879 31.3499H21.5629C21.0865 31.3499 20.7004 30.9805 20.7004 30.5249C20.7004 30.1018 21.0333 29.7531 21.4623 29.7055L21.5629 29.6999H43.9879Z" fill="#000091"/>
<path d="M44.8504 40.4249C44.8504 39.9693 44.4642 39.5999 43.9879 39.5999H21.5629L21.4623 39.6055C21.0333 39.6531 20.7004 40.0018 20.7004 40.4249C20.7004 40.8805 21.0865 41.2499 21.5629 41.2499H43.9879L44.0885 41.2444C44.5174 41.1967 44.8504 40.848 44.8504 40.4249Z" fill="#000091"/>
<path d="M39.6754 35.4749C39.6754 35.0193 39.2892 34.6499 38.8129 34.6499H21.5629L21.4623 34.6555C21.0333 34.7031 20.7004 35.0518 20.7004 35.4749C20.7004 35.9305 21.0865 36.2999 21.5629 36.2999H38.8129L38.9135 36.2944C39.3424 36.2467 39.6754 35.898 39.6754 35.4749Z" fill="#000091"/>
<path d="M38.8129 49.4999C39.2892 49.4999 39.6754 49.8693 39.6754 50.3249C39.6754 50.748 39.3424 51.0967 38.9135 51.1444L38.8129 51.1499H21.5629C21.0865 51.1499 20.7004 50.7805 20.7004 50.3249C20.7004 49.9018 21.0333 49.5531 21.4623 49.5055L21.5629 49.4999H38.8129Z" fill="#000091"/>
<path d="M34.5004 45.3749C34.5004 44.9193 34.1142 44.5499 33.6379 44.5499H21.5629L21.4623 44.5555C21.0333 44.6031 20.7004 44.9518 20.7004 45.3749C20.7004 45.8305 21.0865 46.1999 21.5629 46.1999H33.6379L33.7385 46.1944C34.1674 46.1467 34.5004 45.798 34.5004 45.3749Z" fill="#000091"/>
<path fill-rule="evenodd" clip-rule="evenodd" d="M16.3879 9.8999H49.1629C49.6392 9.8999 50.0254 10.2693 50.0254 10.7249V55.2749C50.0254 55.7305 49.6392 56.0999 49.1629 56.0999H16.3879C15.9115 56.0999 15.5254 55.7305 15.5254 55.2749V10.7249C15.5254 10.2693 15.9115 9.8999 16.3879 9.8999ZM48.3004 54.4499V11.5499H17.2504V54.4499H48.3004Z" fill="#000091"/>
<path d="M52.6129 16.4999C53.0552 16.4999 53.4198 16.8184 53.4696 17.2287L53.4754 17.3249V58.5749C53.4754 58.998 53.1424 59.3467 52.7135 59.3944L52.6129 59.3999H23.2879C22.8115 59.3999 22.4254 59.0305 22.4254 58.5749C22.4254 58.1518 22.7583 57.8031 23.1873 57.7555L23.2879 57.7499H51.7504V17.3249C51.7504 16.9018 52.0833 16.5531 52.5123 16.5055L52.6129 16.4999Z" fill="#000091"/>
</svg>
