<?xml version="1.0" encoding="UTF-8"?>
<svg width="1200pt" height="1200pt" version="1.1" viewBox="0 0 1200 1200" xmlns="http://www.w3.org/2000/svg">
 <g fill="#000090">
  <path d="m497.26 394.8c-1.0781-36.711-16.406-71.555-42.734-97.16s-61.586-39.953-98.312-40.012c-35.992-0.03125-70.613 13.82-96.645 38.68l-25.477-26.77c33.395-31.691 77.781-49.191 123.82-48.816 46.035 0.37109 90.133 18.586 123.01 50.816 32.875 32.227 51.969 75.949 53.262 121.97z"/>
  <path d="m534.83 412.62h-531.51l-2.2148-15.879c-0.68359-4.5547-1.0547-9.1484-1.1094-13.754-0.14062-24.02 8.4023-47.285 24.062-65.5 15.656-18.219 37.367-30.164 61.137-33.637 16.699-50.215 58.012-88.332 109.4-100.95 51.391-12.613 105.66 2.0469 143.71 38.82 5.9453-0.64453 11.926-0.98438 17.906-1.0156 46.305 0.027344 90.777 18.082 124 50.34 33.223 32.254 52.578 76.176 53.969 122.46zm-497.91-36.926h458.4c-5.4648-32.957-22.441-62.91-47.914-84.531-25.473-21.617-57.785-33.5-91.195-33.531-7.3008 0.066406-14.586 0.71484-21.785 1.9414l-9.7852 1.4766-6.7383-7.293c-22.02-24.516-53.445-38.48-86.398-38.398-26.43 0.042969-52.074 8.9805-72.801 25.375-20.73 16.395-35.34 39.285-41.477 64.992l-3.4141 14.031h-15.602c-15.301 0.16797-30.008 5.9648-41.312 16.281-11.305 10.316-18.414 24.434-19.98 39.656z"/>
  <path d="m500.03 1096.9c-4.2695 0.10547-8.4414-1.2734-11.805-3.8984-3.3672-2.625-5.7188-6.3359-6.6562-10.5l-19.754-87.047c-1.2539-4.8359-0.48828-9.9727 2.1133-14.238 2.6016-4.2656 6.8203-7.293 11.695-8.3945 4.875-1.0977 9.9844-0.17578 14.168 2.5586 4.1797 2.7344 7.0742 7.0469 8.0234 11.953l19.754 86.953c1.1055 4.7734 0.26563 9.793-2.332 13.945-2.5977 4.1562-6.7383 7.1094-11.516 8.207-1.2148 0.26172-2.4492 0.41797-3.6914 0.46094z"/>
  <path d="m574.15 1096.9c-1.3789 0.13672-2.7695 0.13672-4.1523 0-4.7734-1.0781-8.9219-4.0078-11.535-8.1445-2.6133-4.1367-3.4766-9.1406-2.4023-13.914l19.848-87.047h-0.003906c0.94922-4.9062 3.8438-9.2188 8.0234-11.953 4.1836-2.7344 9.293-3.6562 14.168-2.5586 4.875 1.1016 9.0938 4.1289 11.695 8.3945 2.6016 4.2656 3.3672 9.4023 2.1133 14.238l-19.848 87.047h0.003906c-1.0078 3.9844-3.3164 7.5195-6.5586 10.047-3.2461 2.5234-7.2383 3.8945-11.352 3.8906z"/>
  <path d="m620.86 1195.3h-164.31v-132.46h164.31zm-127.38-36.922h90.461v-58.801h-90.461z"/>
  <path d="m390.37 925.2c-4.3594 0.003906-8.5781-1.5312-11.91-4.3359-182.59-152.4-277.57-350.77-254.03-529.66v-0.003906c0.85937-6.5938 5.168-12.23 11.309-14.789 6.1406-2.5547 13.18-1.6406 18.465 2.4023 5.2812 4.0391 8.0078 10.594 7.1523 17.188-21.875 166.62 68.309 352.25 241.11 496.52h-0.003906c3.9258 3.2539 6.332 7.9883 6.6484 13.078 0.3125 5.0898-1.4922 10.082-4.9883 13.797-3.4961 3.7109-8.375 5.8125-13.477 5.8008z"/>
  <path d="m222.18 209.36c-4.582 0.003906-9.0039-1.6953-12.406-4.7695-3.3984-3.0742-5.5312-7.3047-5.9883-11.867-0.45312-4.5586 0.80469-9.125 3.5352-12.812 81.137-109.84 205.02-175.38 331.38-175.38 6.5977 0 12.691 3.5195 15.988 9.2305 3.2969 5.7109 3.2969 12.75 0 18.461-3.2969 5.7109-9.3906 9.2305-15.988 9.2305-114.74 0-227.45 59.91-301.66 160.34-3.4688 4.7422-8.9844 7.5547-14.863 7.5703z"/>
  <path d="m936.37 427.75c-4.6094 0.019532-9.0586-1.6836-12.473-4.7734-3.418-3.0898-5.5547-7.3477-5.9922-11.934 0-5.0781-1.0156-10.062-1.6602-15.047-19.848-195.69-189.23-354.55-377.54-354.55-6.5938 0-12.691-3.5195-15.988-9.2305-3.2969-5.7109-3.2969-12.75 0-18.461 3.2969-5.7109 9.3945-9.2305 15.988-9.2305 206.68 0 392.49 173.72 414.28 387.69 0.64453 4.8906 1.293 10.43 1.7539 15.875v0.003906c0.46094 4.8828-1.0391 9.7539-4.1758 13.527-3.1367 3.7773-7.6445 6.1484-12.531 6.5938z"/>
  <path d="m684.09 928.71c-5.0352-0.027343-9.8398-2.1094-13.301-5.7656-3.4609-3.6562-5.2812-8.5664-5.0352-13.594 0.24609-5.0273 2.5352-9.7383 6.3359-13.039 98.398-84.555 168.74-175.38 209.17-269.54 1.9023-4.5586 5.5508-8.168 10.133-10.016s9.7109-1.7812 14.246 0.18359c4.5312 1.9609 8.0898 5.6602 9.875 10.266 1.7852 4.6094 1.6484 9.7383-0.37891 14.242-42.555 99.508-116.31 194.68-218.95 282.92v0.003906c-3.3789 2.8438-7.6719 4.3867-12.09 4.3359z"/>
  <path d="m431.72 921.97c-5.4102-0.023438-10.539-2.418-14.031-6.5547-136.52-161.45-193.2-347.17-159.23-523.2 1.2383-6.4805 5.8359-11.809 12.066-13.977 6.2305-2.168 13.145-0.85156 18.141 3.4609 4.9922 4.3125 7.3086 10.961 6.0703 17.438-31.848 164.86 21.969 339.7 151.11 492.46 3.043 3.6055 4.5898 8.2383 4.3242 12.949-0.26953 4.7109-2.3281 9.1406-5.7578 12.379-3.4336 3.2422-7.9727 5.043-12.691 5.0391z"/>
  <path d="m336.92 251.63c-3.2422-0.003906-6.4258-0.86328-9.2305-2.4922-4.2461-2.4336-7.3516-6.457-8.6328-11.184s-0.63281-9.7656 1.8047-14.016c51.41-87.391 122.61-161.5 207.88-216.37 5.5078-3.6445 12.539-4.0742 18.449-1.125 5.9102 2.9453 9.8008 8.8203 10.199 15.414 0.40234 6.5898-2.7422 12.898-8.25 16.539-80.445 51.676-147.63 121.52-196.15 203.91-1.6133 2.832-3.9531 5.1914-6.7734 6.8281-2.8203 1.6367-6.0273 2.4961-9.2891 2.4922z"/>
  <path d="m502.62 917.82c-3.9961 0-7.8828-1.2969-11.078-3.6914-3.1953-2.3984-5.5273-5.7656-6.6484-9.6016-49.25-166.01-66.57-339.85-51.043-512.31 0.4375-4.8945 2.8086-9.418 6.582-12.566 3.7734-3.1523 8.6445-4.6719 13.539-4.2344 4.8984 0.44141 9.418 2.8086 12.566 6.582 3.1523 3.7734 4.6758 8.6445 4.2344 13.543-15.113 167.79 1.707 336.93 49.57 498.46 1.4219 4.7383 0.88672 9.8477-1.4922 14.188-2.375 4.3359-6.3945 7.5391-11.156 8.8906-1.6523 0.46875-3.3594 0.71875-5.0742 0.73828z"/>
  <path d="m574.98 918.37c-1.6523 0.003906-3.2969-0.21484-4.8906-0.64844-4.7266-1.293-8.7461-4.4141-11.172-8.6758-2.4219-4.2578-3.0547-9.3047-1.7539-14.031 74.699-267.85 68.562-551.81-17.629-816.18-22.699 66.117-40.41 133.85-52.984 202.61-1.1875 6.4961-5.75 11.867-11.973 14.086-6.2188 2.2227-13.148 0.95703-18.184-3.3203-5.0312-4.2773-7.4023-10.914-6.2148-17.41 16.227-88.203 40.543-174.72 72.648-258.46 1.7578-4.7422 5.3828-8.5508 10.031-10.543 4.6445-1.9922 9.9062-1.9922 14.551 0 4.6484 1.9922 8.2734 5.8008 10.031 10.543 104.77 293.35 116.4 592.25 35.355 888.64-1.1055 3.8672-3.4453 7.2656-6.6602 9.6836-3.2188 2.4141-7.1328 3.7148-11.156 3.7031z"/>
  <path d="m806.68 481.94c-4.7109 0.007812-9.2461-1.7812-12.676-5.0078-3.4336-3.2266-5.5039-7.6445-5.7852-12.344-9.6914-168.09-101.54-319.48-259.66-426.28-4.0664-2.7539-6.8672-7.0117-7.793-11.832-0.92578-4.8203 0.097656-9.8125 2.8555-13.875 2.7539-4.0664 7.0078-6.8672 11.828-7.7969 4.8203-0.92578 9.8125 0.10156 13.879 2.8555 167.54 113.54 265.48 274.98 275.82 454.8h-0.003906c0.27734 4.8828-1.3906 9.6758-4.6445 13.328-3.2539 3.6523-7.8242 5.8633-12.707 6.1484z"/>
  <path d="m645.51 921.14c-4.7539 0.050781-9.3398-1.7383-12.809-4.9844-3.4688-3.25-5.5508-7.7109-5.8125-12.457-0.26172-4.7422 1.3164-9.4062 4.4062-13.02 68.863-83.078 115.94-170.59 139.94-261.51 2.043-5.9023 6.9297-10.375 12.996-11.883 6.0625-1.5078 12.477 0.15234 17.047 4.4141 4.5664 4.2617 6.6719 10.547 5.5898 16.699-25.293 96.555-74.863 189.32-147.14 276.09-3.5156 4.2188-8.7227 6.6562-14.215 6.6445z"/>
  <path d="m597.23 1009.8h-117.23c-4.6953 0.003906-9.2188-1.7773-12.645-4.9844l-91.293-85.477v-0.003907c-3.6289-3.3945-5.7344-8.1094-5.8398-13.078-0.10938-4.9688 1.793-9.7734 5.2734-13.32 3.4805-3.5508 8.2422-5.5469 13.211-5.5391h299.82c5.0117-0.10937 9.8555 1.8242 13.41 5.3594 3.5586 3.5312 5.5273 8.3594 5.4531 13.375-0.078125 5.0117-2.1875 9.7812-5.8477 13.203l-91.293 85.477v0.003906c-3.5195 3.2969-8.1914 5.0859-13.016 4.9844zm-109.66-36.922 102.37-0.003906 51.875-48.555-206.12 0.003906z"/>
  <path d="m1199.4 651.32-17.816-0.64844h-504l2.8633-20.953h-0.003906c2.7969-20.473 11.535-39.676 25.137-55.23 13.605-15.555 31.469-26.777 51.387-32.277 4.125-50.953 32.25-96.906 75.742-123.77 43.496-26.859 97.176-31.426 144.58-12.293 47.406 19.129 82.883 59.672 95.555 109.2 3.8594-0.44531 7.7422-0.66406 11.629-0.64844 30.742 0.12109 60.18 12.438 81.848 34.246 21.668 21.805 33.797 51.32 33.723 82.062v2.3984zm-476.03-37.57h437.91c-3.8047-17.566-13.488-33.305-27.453-44.617s-31.375-17.523-49.348-17.598c-7.1523 0.023438-14.27 1.0469-21.137 3.0469l-20.492 5.7227-2.8633-21.047c-5.4141-42.215-32.117-78.691-70.719-96.609-38.605-17.914-83.703-14.762-119.44 8.3555-35.734 23.117-57.098 62.961-56.582 105.52v16.43l-16.34 2.8633h0.003906c-23.145 2.6992-43.32 16.996-53.539 37.938z"/>
 </g>
</svg>
