<svg width="147" height="74" viewBox="0 0 147 74" fill="none" xmlns="http://www.w3.org/2000/svg">
<path fill-rule="evenodd" clip-rule="evenodd" d="M28.9 45.525C28.6657 45.525 28.475 45.3343 28.475 45.1C28.475 44.8656 28.6657 44.675 28.9 44.675C29.1343 44.675 29.325 44.8656 29.325 45.1C29.325 45.3343 29.1343 45.525 28.9 45.525ZM17.425 72.3C17.1907 72.3 17 72.1093 17 71.875C17 71.6406 17.1907 71.45 17.425 71.45C17.6593 71.45 17.85 71.6406 17.85 71.875C17.85 72.1093 17.6593 72.3 17.425 72.3ZM6.375 44.25C6.14066 44.25 5.95 44.0593 5.95 43.825C5.95 43.5906 6.14066 43.4 6.375 43.4C6.60935 43.4 6.8 43.5906 6.8 43.825C6.8 44.0593 6.60935 44.25 6.375 44.25Z" fill="#CACAFB"/>
<path fill-rule="evenodd" clip-rule="evenodd" d="M22.525 58.7C22.7597 58.7 22.95 58.8903 22.95 59.125V63.375C22.95 63.6097 22.7597 63.8 22.525 63.8H18.275C18.0403 63.8 17.85 63.6097 17.85 63.375V59.125C17.85 58.8903 18.0403 58.7 18.275 58.7H22.525ZM19.975 61.675H18.7V62.95H19.975V61.675ZM22.1 61.675H20.825V62.95H22.1V61.675ZM19.975 59.55H18.7V60.825H19.975V59.55ZM22.1 59.55H20.825V60.825H22.1V59.55ZM19.125 53.6C19.3597 53.6 19.55 53.7903 19.55 54.025C19.55 54.2597 19.3597 54.45 19.125 54.45H14.875C14.6403 54.45 14.45 54.2597 14.45 54.025C14.45 53.7903 14.6403 53.6 14.875 53.6H19.125Z" fill="#E1000F"/>
<path fill-rule="evenodd" clip-rule="evenodd" d="M12.325 47.65C12.5597 47.65 12.75 47.8403 12.75 48.075C12.75 48.3097 12.5597 48.5 12.325 48.5H9.35V49.35H10.625C10.843 49.35 11.0226 49.5141 11.0471 49.7254L11.05 49.775C11.05 50.0097 10.8597 50.2 10.625 50.2H10.2V51.3569L16.8131 48.1183L16.8588 48.0991C16.8659 48.0967 16.8696 48.0955 16.8733 48.0943C16.9152 48.0811 16.9578 48.0749 16.9999 48.0749C17.0422 48.0749 17.0848 48.0811 17.1264 48.0942L17.1322 48.0961L17.1412 48.0991L17.1869 48.1183L27.5994 53.2183C27.806 53.3195 27.8946 53.5665 27.7994 53.7759L26.7369 56.1134C26.636 56.3354 26.3693 56.4271 26.1531 56.3141L25.5 55.9728V58.05C25.5 58.2847 25.3097 58.475 25.075 58.475C24.8403 58.475 24.65 58.2847 24.65 58.05V55.5758L17 51.5307L9.35 55.5754V65.5H11.05V59.125C11.05 58.8903 11.2403 58.7 11.475 58.7H15.725C15.9597 58.7 16.15 58.8903 16.15 59.125V65.5H20.825C21.0597 65.5 21.25 65.6903 21.25 65.925C21.25 66.1597 21.0597 66.35 20.825 66.35H3.825C3.59028 66.35 3.4 66.1597 3.4 65.925C3.4 65.6903 3.59028 65.5 3.825 65.5H5.1L5.10015 64.6233C4.00112 64.478 3.4 63.7441 3.4 62.525C3.4 61.309 3.98428 59.5561 5.14487 57.2349L5.15058 57.2236L5.16205 57.2036L5.17735 57.1804C5.18217 57.1735 5.18725 57.1667 5.19254 57.1601C5.19779 57.1535 5.20324 57.1471 5.20885 57.1408C5.21374 57.1354 5.21895 57.1299 5.22431 57.1245C5.22986 57.1189 5.23535 57.1137 5.24097 57.1087C5.24706 57.1032 5.2535 57.0978 5.26012 57.0925L5.28045 57.0773L5.30315 57.0621L5.33494 57.0449L5.33994 57.0424C5.34904 57.038 5.35838 57.0339 5.36785 57.0301L5.37648 57.0268L5.38521 57.0236C5.39212 57.0212 5.39889 57.0191 5.40571 57.0171C5.41503 57.0143 5.42444 57.0119 5.43388 57.0098L5.44227 57.0081C5.46864 57.0028 5.49511 57.0001 5.52143 56.9999H5.52858C5.54428 57 5.56004 57.001 5.57578 57.0029L5.60774 57.0081L5.61616 57.0099C5.62556 57.0119 5.63497 57.0143 5.64434 57.017L5.65449 57.0202L5.66459 57.0236C5.67063 57.0256 5.67645 57.0278 5.68224 57.0301C5.69162 57.0339 5.70096 57.038 5.71015 57.0424L5.71507 57.0449L5.746 57.0621L5.76957 57.0774C5.77648 57.0822 5.78327 57.0872 5.78991 57.0925C5.7965 57.0978 5.80294 57.1032 5.80919 57.1088C5.81465 57.1137 5.82015 57.1189 5.82551 57.1243C5.83106 57.1299 5.83626 57.1354 5.8413 57.141C5.84677 57.1471 5.85221 57.1535 5.85748 57.1601L5.87269 57.1804L5.88753 57.2032L5.899 57.2236L5.90513 57.2349C7.06572 59.5561 7.65 61.309 7.65 62.525C7.65 63.744 7.04904 64.4778 5.95028 64.6232L5.95 65.5H8.5V55.9728L7.84688 56.3141C7.63073 56.4271 7.36403 56.3354 7.2631 56.1134L6.2006 53.7759C6.10544 53.5665 6.19405 53.3195 6.40056 53.2183L9.43595 51.7313C9.38201 51.66 9.35 51.5713 9.35 51.475V50.2H8.925C8.69028 50.2 8.5 50.0097 8.5 49.775V48.075C8.5 47.8403 8.69028 47.65 8.925 47.65H12.325ZM27.6501 59.5507C27.7503 59.5566 27.8489 59.5979 27.9255 59.6745C28.5807 60.3297 28.9 61.2876 28.9 62.525C28.9 63.6244 28.6343 64.3519 28.0504 64.5763L28.05 65.5H29.325C29.5597 65.5 29.75 65.6903 29.75 65.925C29.75 66.1597 29.5597 66.35 29.325 66.35H23.375C23.1403 66.35 22.95 66.1597 22.95 65.925C22.95 65.6903 23.1403 65.5 23.375 65.5H24.65V60.825C24.65 60.5903 24.8403 60.4 25.075 60.4C25.3097 60.4 25.5 60.5903 25.5 60.825V65.5H27.2L27.2 64.5765C26.6159 64.3522 26.35 63.6247 26.35 62.525C26.35 61.2876 26.6693 60.3297 27.3245 59.6745C27.4011 59.5979 27.4997 59.5566 27.5999 59.5507H27.6501ZM15.3 59.55H11.9V65.5H15.3V59.55ZM27.6253 60.6602L27.6104 60.684C27.3391 61.1427 27.2 61.7531 27.2 62.525C27.2 63.418 27.3601 63.7725 27.5963 63.7985L27.625 63.8L27.6537 63.7985C27.8899 63.7725 28.05 63.418 28.05 62.525C28.05 61.7397 27.906 61.1215 27.6253 60.6602ZM5.52495 58.3997L5.4407 58.5816C4.64528 60.3127 4.25 61.6336 4.25 62.525C4.25 63.4236 4.62639 63.8 5.525 63.8L5.61313 63.7987C6.44829 63.7743 6.8 63.3937 6.8 62.525C6.8 61.6026 6.37678 60.2204 5.52495 58.3997ZM14.025 61.25C14.2597 61.25 14.45 61.4403 14.45 61.675V62.525C14.45 62.7597 14.2597 62.95 14.025 62.95C13.7903 62.95 13.6 62.7597 13.6 62.525V61.675C13.6 61.4403 13.7903 61.25 14.025 61.25ZM16.9996 48.973L7.1451 53.7998L7.8506 55.3523L16.8031 50.6734L16.8193 50.6653L16.8262 50.662L16.8316 50.6598L16.836 50.6577L16.8606 50.6485C16.8682 50.6459 16.8757 50.6435 16.8833 50.6413C16.887 50.6402 16.8908 50.6391 16.8947 50.6382L16.9091 50.6348C16.9158 50.6333 16.9226 50.632 16.9294 50.6309C16.935 50.6298 16.9405 50.629 16.9459 50.6283L16.9558 50.6273C16.9623 50.6266 16.9688 50.626 16.9754 50.6257L16.9822 50.6253L17.0112 50.6251L17.0212 50.6255C17.0294 50.6259 17.0375 50.6265 17.0455 50.6274C17.0472 50.6276 17.0491 50.6278 17.0511 50.6281C17.0593 50.629 17.0648 50.6298 17.0704 50.6307C17.0744 50.6315 17.0782 50.6322 17.0819 50.633L17.0896 50.6344L17.0955 50.6358C17.0974 50.6363 17.0995 50.6368 17.1016 50.6373C17.1093 50.6392 17.1133 50.6403 17.1173 50.6414C17.1204 50.6424 17.1238 50.6434 17.1271 50.6445L17.1394 50.6485L17.1684 50.6598L17.176 50.6633L17.1833 50.6665L17.1969 50.6734L26.1494 55.3523L26.8549 53.7998L16.9996 48.973Z" fill="#000091"/>
<path fill-rule="evenodd" clip-rule="evenodd" d="M141.9 5.525C141.666 5.525 141.475 5.33435 141.475 5.1C141.475 4.86564 141.666 4.675 141.9 4.675C142.134 4.675 142.325 4.86564 142.325 5.1C142.325 5.33435 142.134 5.525 141.9 5.525ZM130.425 32.3C130.191 32.3 130 32.1093 130 31.875C130 31.6406 130.191 31.45 130.425 31.45C130.659 31.45 130.85 31.6406 130.85 31.875C130.85 32.1093 130.659 32.3 130.425 32.3ZM119.375 4.25C119.141 4.25 118.95 4.05935 118.95 3.825C118.95 3.59064 119.141 3.4 119.375 3.4C119.609 3.4 119.8 3.59064 119.8 3.825C119.8 4.05935 119.609 4.25 119.375 4.25Z" fill="#CACAFB"/>
<path fill-rule="evenodd" clip-rule="evenodd" d="M135.525 18.7C135.76 18.7 135.95 18.8903 135.95 19.125V23.375C135.95 23.6097 135.76 23.8 135.525 23.8H131.275C131.04 23.8 130.85 23.6097 130.85 23.375V19.125C130.85 18.8903 131.04 18.7 131.275 18.7H135.525ZM132.975 21.675H131.7V22.95H132.975V21.675ZM135.1 21.675H133.825V22.95H135.1V21.675ZM132.975 19.55H131.7V20.825H132.975V19.55ZM135.1 19.55H133.825V20.825H135.1V19.55ZM132.125 13.6C132.36 13.6 132.55 13.7903 132.55 14.025C132.55 14.2597 132.36 14.45 132.125 14.45H127.875C127.64 14.45 127.45 14.2597 127.45 14.025C127.45 13.7903 127.64 13.6 127.875 13.6H132.125Z" fill="#E1000F"/>
<path fill-rule="evenodd" clip-rule="evenodd" d="M125.325 7.65C125.56 7.65 125.75 7.84028 125.75 8.075C125.75 8.30972 125.56 8.5 125.325 8.5H122.35V9.35H123.625C123.843 9.35 124.023 9.51407 124.047 9.72544L124.05 9.775C124.05 10.0097 123.86 10.2 123.625 10.2H123.2V11.3569L129.813 8.11833L129.859 8.09909C129.866 8.09668 129.87 8.09548 129.873 8.09433C129.915 8.08115 129.958 8.07488 130 8.07491C130.042 8.07488 130.085 8.08115 130.126 8.09417L130.132 8.09607L130.141 8.09909L130.187 8.11833L140.599 13.2183C140.806 13.3195 140.895 13.5665 140.799 13.7759L139.737 16.1134C139.636 16.3354 139.369 16.4271 139.153 16.3141L138.5 15.9728V18.05C138.5 18.2847 138.31 18.475 138.075 18.475C137.84 18.475 137.65 18.2847 137.65 18.05V15.5758L130 11.5307L122.35 15.5754V25.5H124.05V19.125C124.05 18.8903 124.24 18.7 124.475 18.7H128.725C128.96 18.7 129.15 18.8903 129.15 19.125V25.5H133.825C134.06 25.5 134.25 25.6903 134.25 25.925C134.25 26.1597 134.06 26.35 133.825 26.35H116.825C116.59 26.35 116.4 26.1597 116.4 25.925C116.4 25.6903 116.59 25.5 116.825 25.5H118.1L118.1 24.6233C117.001 24.478 116.4 23.7441 116.4 22.525C116.4 21.309 116.984 19.5561 118.145 17.2349L118.151 17.2236L118.162 17.2036L118.177 17.1804C118.182 17.1735 118.187 17.1667 118.193 17.1601C118.198 17.1535 118.203 17.1471 118.209 17.1408C118.214 17.1354 118.219 17.1299 118.224 17.1245C118.23 17.1189 118.235 17.1137 118.241 17.1087C118.247 17.1032 118.253 17.0978 118.26 17.0925L118.28 17.0773L118.303 17.0621L118.335 17.0449L118.34 17.0424C118.349 17.038 118.358 17.0339 118.368 17.0301L118.376 17.0268L118.385 17.0236C118.392 17.0212 118.399 17.0191 118.406 17.0171C118.415 17.0143 118.424 17.0119 118.434 17.0098L118.442 17.0081C118.469 17.0028 118.495 17.0001 118.521 16.9999H118.529C118.544 17 118.56 17.001 118.576 17.0029L118.608 17.0081L118.616 17.0099C118.626 17.0119 118.635 17.0143 118.644 17.017L118.654 17.0202L118.665 17.0236C118.671 17.0256 118.676 17.0278 118.682 17.0301C118.692 17.0339 118.701 17.038 118.71 17.0424L118.715 17.0449L118.746 17.0621L118.77 17.0774C118.776 17.0822 118.783 17.0872 118.79 17.0925C118.797 17.0978 118.803 17.1032 118.809 17.1088C118.815 17.1137 118.82 17.1189 118.826 17.1243C118.831 17.1299 118.836 17.1354 118.841 17.141C118.847 17.1471 118.852 17.1535 118.857 17.1601L118.873 17.1804L118.888 17.2032L118.899 17.2236L118.905 17.2349C120.066 19.5561 120.65 21.309 120.65 22.525C120.65 23.744 120.049 24.4778 118.95 24.6232L118.95 25.5H121.5V15.9728L120.847 16.3141C120.631 16.4271 120.364 16.3354 120.263 16.1134L119.201 13.7759C119.105 13.5665 119.194 13.3195 119.401 13.2183L122.436 11.7313C122.382 11.6601 122.35 11.5713 122.35 11.475V10.2H121.925C121.69 10.2 121.5 10.0097 121.5 9.775V8.075C121.5 7.84028 121.69 7.65 121.925 7.65H125.325ZM140.65 19.5507C140.75 19.5566 140.849 19.5979 140.926 19.6745C141.581 20.3297 141.9 21.2876 141.9 22.525C141.9 23.6244 141.634 24.3519 141.05 24.5763L141.05 25.5H142.325C142.56 25.5 142.75 25.6903 142.75 25.925C142.75 26.1597 142.56 26.35 142.325 26.35H136.375C136.14 26.35 135.95 26.1597 135.95 25.925C135.95 25.6903 136.14 25.5 136.375 25.5H137.65V20.825C137.65 20.5903 137.84 20.4 138.075 20.4C138.31 20.4 138.5 20.5903 138.5 20.825V25.5H140.2L140.2 24.5765C139.616 24.3522 139.35 23.6247 139.35 22.525C139.35 21.2876 139.669 20.3297 140.324 19.6745C140.401 19.5979 140.5 19.5566 140.6 19.5507H140.65ZM128.3 19.55H124.9V25.5H128.3V19.55ZM140.625 20.6602L140.61 20.684C140.339 21.1427 140.2 21.7531 140.2 22.525C140.2 23.418 140.36 23.7725 140.596 23.7985L140.625 23.8L140.654 23.7985C140.89 23.7725 141.05 23.418 141.05 22.525C141.05 21.7397 140.906 21.1215 140.625 20.6602ZM118.525 18.3997L118.441 18.5816C117.645 20.3127 117.25 21.6336 117.25 22.525C117.25 23.4236 117.626 23.8 118.525 23.8L118.613 23.7987C119.448 23.7743 119.8 23.3937 119.8 22.525C119.8 21.6026 119.377 20.2204 118.525 18.3997ZM127.025 21.25C127.26 21.25 127.45 21.4403 127.45 21.675V22.525C127.45 22.7597 127.26 22.95 127.025 22.95C126.79 22.95 126.6 22.7597 126.6 22.525V21.675C126.6 21.4403 126.79 21.25 127.025 21.25ZM130 8.97303L120.145 13.7998L120.851 15.3523L129.803 10.6734L129.819 10.6653L129.826 10.662L129.832 10.6598L129.836 10.6577L129.861 10.6485C129.868 10.6459 129.876 10.6435 129.883 10.6413C129.887 10.6402 129.891 10.6391 129.895 10.6382L129.909 10.6348C129.916 10.6333 129.923 10.632 129.929 10.6309C129.935 10.6298 129.94 10.629 129.946 10.6283L129.956 10.6273C129.962 10.6266 129.969 10.626 129.975 10.6257L129.982 10.6253L130.011 10.6251L130.021 10.6255C130.029 10.6259 130.037 10.6265 130.046 10.6274C130.047 10.6276 130.049 10.6278 130.051 10.6281C130.059 10.629 130.065 10.6298 130.07 10.6308C130.074 10.6315 130.078 10.6322 130.082 10.633L130.09 10.6344L130.096 10.6358C130.097 10.6363 130.1 10.6368 130.102 10.6373C130.109 10.6392 130.113 10.6403 130.117 10.6414C130.12 10.6424 130.124 10.6434 130.127 10.6445L130.139 10.6485L130.168 10.6598L130.176 10.6633L130.183 10.6665L130.197 10.6734L139.149 15.3523L139.855 13.7998L130 8.97303Z" fill="#000091"/>
<path fill-rule="evenodd" clip-rule="evenodd" d="M85.3392 27.1063C85.4776 27.2492 85.7021 27.2525 85.8407 27.1136C89.2679 23.6802 93.3793 21.0326 97.9052 19.3447C102.431 17.6568 107.269 16.9666 112.102 17.3195C112.298 17.3337 112.466 17.1841 112.477 16.9853C112.489 16.7865 112.339 16.6138 112.144 16.5995C107.211 16.2394 102.273 16.9438 97.6535 18.6666C93.0341 20.3894 88.8378 23.0916 85.3398 26.596C85.2012 26.7348 85.2009 26.9633 85.3392 27.1063Z" fill="#000091"/>
<path fill-rule="evenodd" clip-rule="evenodd" d="M109.366 18.4752C109.461 18.6509 109.677 18.7169 109.848 18.6227L112.295 17.2775C112.406 17.2166 112.475 17.0997 112.478 16.9708C112.48 16.8419 112.415 16.7207 112.306 16.6528L109.91 15.153C109.742 15.048 109.524 15.1002 109.423 15.2696C109.322 15.439 109.376 15.6614 109.544 15.7664L111.414 16.9368L109.505 17.9866C109.333 18.0808 109.271 18.2996 109.366 18.4752Z" fill="#000091"/>
<path fill-rule="evenodd" clip-rule="evenodd" d="M66.9934 49.2054C66.8632 49.055 66.6392 49.0392 66.4931 49.1702C62.8802 52.4077 58.6279 54.8225 54.0151 56.2561C49.4023 57.6897 44.5332 58.1097 39.7273 57.4885C39.5328 57.4634 39.357 57.6035 39.3346 57.8013C39.312 57.9992 39.4515 58.1799 39.6458 58.2051C44.5511 58.839 49.5207 58.4103 54.2287 56.9472C58.9368 55.484 63.2769 53.0193 66.9644 49.7149C67.1105 49.584 67.1235 49.3559 66.9934 49.2054Z" fill="#000091"/>
<path fill-rule="evenodd" clip-rule="evenodd" d="M42.5235 56.4868C42.4387 56.3061 42.2269 56.2282 42.0505 56.3127L39.5327 57.5197C39.4187 57.5744 39.3426 57.6873 39.3331 57.8158C39.3237 57.9443 39.3823 58.069 39.487 58.1429L41.7961 59.7736C41.9578 59.8878 42.1782 59.8478 42.2885 59.6843C42.3987 59.5208 42.3569 59.2957 42.1952 59.1815L40.3932 57.9089L42.358 56.9669C42.5344 56.8824 42.6085 56.6674 42.5235 56.4868Z" fill="#000091"/>
<path d="M41.03 40.82C40.7367 40.7933 40.54 40.7233 40.44 40.61C40.34 40.49 40.29 40.3667 40.29 40.24C40.29 40.16 40.3067 40.07 40.34 39.97C40.3733 39.87 40.4067 39.8 40.44 39.76C40.7533 39.3733 41.34 38.6933 42.2 37.72C43.06 36.7467 43.6367 36.0967 43.93 35.77L43.54 35.75C43.1867 35.73 42.89 35.72 42.65 35.72C42.5633 35.72 42.3433 35.7367 41.99 35.77C41.77 35.8033 41.57 35.82 41.39 35.82C41.13 35.82 40.94 35.7967 40.82 35.75C40.7067 35.6967 40.6367 35.6367 40.61 35.57C40.59 35.5033 40.58 35.41 40.58 35.29C40.58 35.2033 40.6133 35.1167 40.68 35.03C40.7533 34.9367 40.84 34.8833 40.94 34.87C41.2067 34.8367 41.5633 34.8067 42.01 34.78C42.4567 34.7467 42.82 34.73 43.1 34.73C43.9467 34.73 44.5433 34.7733 44.89 34.86C44.9767 34.8867 45.05 34.9533 45.11 35.06C45.17 35.1667 45.2 35.25 45.2 35.31C45.2 35.39 45.1867 35.4733 45.16 35.56C45.14 35.6467 45.11 35.72 45.07 35.78C44.9833 35.9333 44.7833 36.2133 44.47 36.62C44.1567 37.02 43.8233 37.4233 43.47 37.83C43.0967 38.27 42.7133 38.7067 42.32 39.14C41.9333 39.5733 41.6833 39.85 41.57 39.97C41.7567 39.9633 42.0433 39.9467 42.43 39.92C43.0567 39.88 43.5267 39.86 43.84 39.86C44.0867 39.86 44.36 39.8767 44.66 39.91C44.9667 39.9433 45.1967 40.01 45.35 40.11C45.3967 40.1367 45.44 40.2133 45.48 40.34C45.5267 40.4667 45.55 40.57 45.55 40.65C45.55 40.7367 45.5067 40.8133 45.42 40.88C45.34 40.9467 45.2267 40.98 45.08 40.98C45.0667 40.98 44.92 40.9667 44.64 40.94C44.06 40.8733 43.6767 40.84 43.49 40.84L42.78 40.85C42.46 40.8633 42.2167 40.87 42.05 40.87C41.6433 40.87 41.3033 40.8533 41.03 40.82ZM50.8234 37.42C50.8167 37.3133 50.8134 37.1533 50.8134 36.94V36.56C50.8134 36.3067 50.8067 36.1167 50.7934 35.99C50.78 35.8833 50.7734 35.6067 50.7734 35.16C50.7734 35 50.82 34.8767 50.9134 34.79C51.0134 34.6967 51.1467 34.65 51.3134 34.65C51.5267 34.65 51.67 34.6967 51.7434 34.79C51.8167 34.8833 51.8534 35.0367 51.8534 35.25V35.63L51.8434 36.73C51.8367 36.9433 51.8334 37.2633 51.8334 37.69L51.8434 38.51C51.85 38.6367 51.8534 38.8133 51.8534 39.04C51.8534 39.22 51.86 39.4767 51.8734 39.81C51.8867 40.1167 51.8934 40.3467 51.8934 40.5C51.8934 40.6267 51.8567 40.7433 51.7834 40.85C51.7167 40.9567 51.6234 41.01 51.5034 41.01C51.0367 41.01 50.8034 40.8533 50.8034 40.54C50.8034 40.3667 50.81 40.1733 50.8234 39.96C50.8367 39.8067 50.8434 39.5733 50.8434 39.26C50.8434 39.04 50.8367 38.7233 50.8234 38.31C50.51 38.3367 49.97 38.35 49.2034 38.35C48.7234 38.35 48.35 38.35 48.0834 38.35C47.8167 38.3433 47.6234 38.3267 47.5034 38.3L47.4934 39.45C47.4934 39.5233 47.51 39.72 47.5434 40.04C47.5767 40.2533 47.5934 40.44 47.5934 40.6C47.5934 40.7 47.5334 40.7967 47.4134 40.89C47.3 40.9767 47.1934 41.02 47.0934 41.02C46.8534 41.02 46.69 40.9633 46.6034 40.85C46.5167 40.73 46.4734 40.55 46.4734 40.31L46.4634 39.52C46.4567 39.4267 46.4534 39.2967 46.4534 39.13C46.4534 38.8833 46.4467 38.5467 46.4334 38.12C46.42 37.7333 46.4134 37.4533 46.4134 37.28C46.4134 37.02 46.42 36.6567 46.4334 36.19C46.4467 35.75 46.4534 35.4233 46.4534 35.21C46.4534 34.9967 46.5067 34.8533 46.6134 34.78C46.72 34.7067 46.84 34.67 46.9734 34.67C47.3467 34.67 47.5334 34.7933 47.5334 35.04C47.5334 35.48 47.5234 35.9 47.5034 36.3C47.49 36.8067 47.4834 37.1767 47.4834 37.41C47.6767 37.4567 47.88 37.4867 48.0934 37.5C48.3067 37.5133 48.6067 37.52 48.9934 37.52C49.78 37.52 50.39 37.4867 50.8234 37.42ZM54.5172 35.76C54.4705 35.9467 54.4405 36.1933 54.4272 36.5C54.4139 36.7667 54.3939 36.9667 54.3672 37.1C54.5605 37.02 54.7439 36.97 54.9172 36.95C55.0905 36.9233 55.3105 36.91 55.5772 36.91C55.9905 36.91 56.3505 37.0067 56.6572 37.2C56.9639 37.3867 57.1972 37.64 57.3572 37.96C57.5172 38.2733 57.5972 38.61 57.5972 38.97C57.5972 39.11 57.5505 39.3 57.4572 39.54C57.3639 39.7733 57.2672 39.9533 57.1672 40.08C56.9339 40.3867 56.6639 40.6233 56.3572 40.79C56.0505 40.95 55.7172 41.03 55.3572 41.03C55.0839 41.03 54.8339 40.9933 54.6072 40.92C54.3872 40.84 54.1505 40.7333 53.8972 40.6C53.6372 40.46 53.4472 40.3167 53.3272 40.17C53.2139 40.0167 53.1572 39.8267 53.1572 39.6C53.1572 39.48 53.2072 39.3833 53.3072 39.31C53.4139 39.23 53.5139 39.19 53.6072 39.19C53.6672 39.19 53.7205 39.2067 53.7672 39.24C53.8139 39.2733 53.8905 39.34 53.9972 39.44L54.2472 39.68C54.4072 39.8133 54.5639 39.9133 54.7172 39.98C54.8772 40.0467 55.0705 40.08 55.2972 40.08C55.5039 40.08 55.6705 40.0533 55.7972 40C56.0505 39.9 56.2472 39.77 56.3872 39.61C56.5339 39.45 56.6072 39.1933 56.6072 38.84C56.6072 38.5 56.4939 38.2367 56.2672 38.05C56.0405 37.8567 55.6572 37.76 55.1172 37.76C55.0439 37.76 54.9372 37.78 54.7972 37.82C54.6572 37.86 54.5205 37.9033 54.3872 37.95C54.0672 38.0567 53.8705 38.11 53.7972 38.11C53.7039 38.11 53.6105 38.07 53.5172 37.99C53.4239 37.91 53.3772 37.8033 53.3772 37.67C53.4972 36.8633 53.5572 36.1933 53.5572 35.66L53.5472 35.41C53.5339 35.29 53.5272 35.19 53.5272 35.11C53.5272 34.99 53.5905 34.9 53.7172 34.84C53.8505 34.7733 53.9872 34.74 54.1272 34.74C54.2472 34.74 54.5072 34.76 54.9072 34.8L55.3872 34.84C55.4472 34.8467 55.5372 34.85 55.6572 34.85L56.0272 34.84C56.1005 34.8333 56.2072 34.83 56.3472 34.83C56.5472 34.83 56.7139 34.86 56.8472 34.92C56.9805 34.98 57.0472 35.0767 57.0472 35.21C57.0472 35.4167 57.0139 35.5667 56.9472 35.66C56.8805 35.7533 56.8039 35.8 56.7172 35.8C56.6372 35.8 56.5039 35.7867 56.3172 35.76C56.0705 35.7333 55.7805 35.72 55.4472 35.72C55.2139 35.72 54.9039 35.7333 54.5172 35.76ZM63.0911 36.19C63.0578 36.1633 62.9511 36.0867 62.7711 35.96C62.5911 35.8267 62.4178 35.7333 62.2511 35.68C62.0844 35.62 61.9078 35.59 61.7211 35.59C61.4344 35.59 61.1611 35.6267 60.9011 35.7C60.6411 35.7667 60.4178 35.87 60.2311 36.01C59.6844 36.41 59.4111 37.0933 59.4111 38.06C59.4111 38.48 59.5111 38.85 59.7111 39.17C59.9111 39.4833 60.1678 39.7233 60.4811 39.89C60.7944 40.0567 61.1178 40.14 61.4511 40.14C61.7844 40.14 62.0744 40.09 62.3211 39.99C62.5678 39.8833 62.7644 39.7467 62.9111 39.58C63.0311 39.4267 63.1111 39.2567 63.1511 39.07C63.1911 38.8767 63.2111 38.6667 63.2111 38.44C63.2111 38.3733 63.1578 38.3267 63.0511 38.3C62.9444 38.2733 62.7911 38.26 62.5911 38.26C62.4911 38.26 62.3144 38.2667 62.0611 38.28L61.6011 38.3C61.4078 38.3 61.2544 38.2633 61.1411 38.19C61.0278 38.1167 60.9711 38.02 60.9711 37.9C60.9711 37.5933 61.1678 37.44 61.5611 37.44C61.8811 37.44 62.2178 37.45 62.5711 37.47C63.0111 37.4833 63.3111 37.49 63.4711 37.49C63.7044 37.49 63.8911 37.5633 64.0311 37.71C64.1778 37.8567 64.2511 38.07 64.2511 38.35C64.2511 38.6167 64.1944 38.9233 64.0811 39.27C63.9678 39.61 63.8111 39.9167 63.6111 40.19C63.4111 40.4567 63.1211 40.66 62.7411 40.8C62.3611 40.9333 61.9311 41 61.4511 41C61.0578 41 60.6711 40.9367 60.2911 40.81C59.9178 40.6833 59.6078 40.5067 59.3611 40.28C59.0544 39.9933 58.8111 39.6533 58.6311 39.26C58.4578 38.86 58.3711 38.4633 58.3711 38.07C58.3711 37.4833 58.4944 36.9233 58.7411 36.39C58.9878 35.85 59.3378 35.43 59.7911 35.13C59.9911 34.9967 60.2811 34.8867 60.6611 34.8C61.0478 34.7133 61.3944 34.67 61.7011 34.67C62.6144 34.67 63.2644 34.9467 63.6511 35.5C63.7311 35.62 63.7711 35.7267 63.7711 35.82C63.7711 35.9267 63.7244 36.0267 63.6311 36.12C63.5378 36.2133 63.4444 36.26 63.3511 36.26C63.3111 36.26 63.2644 36.2533 63.2111 36.24C63.1578 36.2267 63.1178 36.21 63.0911 36.19ZM67.9654 38.35C68.2721 38.35 68.4254 38.5233 68.4254 38.87C68.4254 39.05 68.3621 39.18 68.2354 39.26C68.1154 39.34 67.9654 39.38 67.7854 39.38C67.7321 39.38 67.6754 39.3767 67.6154 39.37C67.5554 39.3633 67.4921 39.3567 67.4254 39.35C67.2254 39.3167 67.0454 39.3 66.8854 39.3C66.7721 39.3 66.6021 39.3133 66.3754 39.34C66.1354 39.3667 65.9521 39.38 65.8254 39.38C65.6454 39.38 65.4854 39.3467 65.3454 39.28C65.2054 39.2067 65.1354 39.0867 65.1354 38.92C65.1354 38.6867 65.2221 38.5367 65.3954 38.47C65.5687 38.3967 65.8121 38.36 66.1254 38.36L66.4554 38.37C66.6154 38.3833 66.7387 38.39 66.8254 38.39L67.5554 38.37L67.9654 38.35ZM69.8191 40.82C69.5257 40.7933 69.3291 40.7233 69.2291 40.61C69.1291 40.49 69.0791 40.3667 69.0791 40.24C69.0791 40.16 69.0957 40.07 69.1291 39.97C69.1624 39.87 69.1957 39.8 69.2291 39.76C69.5424 39.3733 70.1291 38.6933 70.9891 37.72C71.8491 36.7467 72.4257 36.0967 72.7191 35.77L72.3291 35.75C71.9757 35.73 71.6791 35.72 71.4391 35.72C71.3524 35.72 71.1324 35.7367 70.7791 35.77C70.5591 35.8033 70.3591 35.82 70.1791 35.82C69.9191 35.82 69.7291 35.7967 69.6091 35.75C69.4957 35.6967 69.4257 35.6367 69.3991 35.57C69.3791 35.5033 69.3691 35.41 69.3691 35.29C69.3691 35.2033 69.4024 35.1167 69.4691 35.03C69.5424 34.9367 69.6291 34.8833 69.7291 34.87C69.9957 34.8367 70.3524 34.8067 70.7991 34.78C71.2457 34.7467 71.6091 34.73 71.8891 34.73C72.7357 34.73 73.3324 34.7733 73.6791 34.86C73.7657 34.8867 73.8391 34.9533 73.8991 35.06C73.9591 35.1667 73.9891 35.25 73.9891 35.31C73.9891 35.39 73.9757 35.4733 73.9491 35.56C73.9291 35.6467 73.8991 35.72 73.8591 35.78C73.7724 35.9333 73.5724 36.2133 73.2591 36.62C72.9457 37.02 72.6124 37.4233 72.2591 37.83C71.8857 38.27 71.5024 38.7067 71.1091 39.14C70.7224 39.5733 70.4724 39.85 70.3591 39.97C70.5457 39.9633 70.8324 39.9467 71.2191 39.92C71.8457 39.88 72.3157 39.86 72.6291 39.86C72.8757 39.86 73.1491 39.8767 73.4491 39.91C73.7557 39.9433 73.9857 40.01 74.1391 40.11C74.1857 40.1367 74.2291 40.2133 74.2691 40.34C74.3157 40.4667 74.3391 40.57 74.3391 40.65C74.3391 40.7367 74.2957 40.8133 74.2091 40.88C74.1291 40.9467 74.0157 40.98 73.8691 40.98C73.8557 40.98 73.7091 40.9667 73.4291 40.94C72.8491 40.8733 72.4657 40.84 72.2791 40.84L71.5691 40.85C71.2491 40.8633 71.0057 40.87 70.8391 40.87C70.4324 40.87 70.0924 40.8533 69.8191 40.82ZM79.3824 35.38C79.3824 35.1867 79.4258 35.02 79.5124 34.88C79.6058 34.7333 79.7424 34.66 79.9224 34.66C80.0758 34.66 80.2124 34.69 80.3324 34.75C80.4524 34.81 80.5124 34.91 80.5124 35.05C80.5124 35.3233 80.4991 35.7067 80.4724 36.2C80.4458 36.68 80.4324 37.0367 80.4324 37.27C80.4324 37.6367 80.4458 38.1267 80.4724 38.74C80.4991 39.3267 80.5124 39.7567 80.5124 40.03C80.5124 40.25 80.5091 40.4133 80.5024 40.52C80.5024 40.6267 80.4424 40.7333 80.3224 40.84C80.2091 40.94 80.0324 40.99 79.7924 40.99C79.6658 40.99 79.5558 40.97 79.4624 40.93C79.3758 40.8833 79.3158 40.8333 79.2824 40.78C78.9691 40.4 78.5124 39.7533 77.9124 38.84C77.2391 37.82 76.6891 37.04 76.2624 36.5C76.3158 36.98 76.3424 37.5667 76.3424 38.26C76.3424 38.5667 76.3358 38.9667 76.3224 39.46C76.3158 39.9467 76.3024 40.2667 76.2824 40.42C76.2558 40.6133 76.1958 40.7633 76.1024 40.87C76.0158 40.97 75.8758 41.02 75.6824 41.02C75.5358 41.02 75.4258 40.98 75.3524 40.9C75.2858 40.8133 75.2458 40.6667 75.2324 40.46C75.2258 40.1867 75.2424 39.7767 75.2824 39.23C75.2891 39.1433 75.2991 38.9933 75.3124 38.78C75.3258 38.5667 75.3324 38.3767 75.3324 38.21C75.3324 37.75 75.3091 37.2233 75.2624 36.63C75.2224 35.9767 75.2024 35.4933 75.2024 35.18C75.2024 35.02 75.2591 34.8967 75.3724 34.81C75.4924 34.7233 75.6291 34.68 75.7824 34.68C75.9158 34.68 76.0558 34.7133 76.2024 34.78C76.7758 35.5 77.5524 36.5733 78.5324 38L79.4724 39.44C79.4791 39.3333 79.4824 39.1833 79.4824 38.99C79.4824 38.65 79.4758 38.2833 79.4624 37.89C79.4491 37.4967 79.4391 37.23 79.4324 37.09C79.3991 36.4433 79.3824 35.8733 79.3824 35.38ZM83.1405 39.96C83.3671 39.9733 83.5171 39.98 83.5905 39.98C83.8171 39.98 84.0171 39.9767 84.1905 39.97C84.3705 39.9633 84.5238 39.9567 84.6505 39.95C84.9771 39.93 85.2705 39.92 85.5305 39.92C85.7838 39.92 85.9705 39.9867 86.0905 40.12C86.2105 40.2533 86.2705 40.43 86.2705 40.65C86.2705 40.7567 86.2005 40.8433 86.0605 40.91C85.9205 40.97 85.7771 41 85.6305 41C85.5038 41 85.2405 40.9867 84.8405 40.96C84.3605 40.92 83.9838 40.9 83.7105 40.9C83.5638 40.9 83.3905 40.91 83.1905 40.93C83.1105 40.9367 83.0138 40.9433 82.9005 40.95C82.7871 40.9567 82.6605 40.96 82.5205 40.96C82.2538 40.96 82.0505 40.9233 81.9105 40.85C81.7705 40.7767 81.7005 40.6433 81.7005 40.45C81.7005 40.2833 81.7671 40.1133 81.9005 39.94C82.0338 39.7667 82.2205 39.56 82.4605 39.32L82.7005 39.08C82.8071 38.9667 83.0038 38.7733 83.2905 38.5C83.7638 38.0733 84.1305 37.6967 84.3905 37.37C84.6571 37.0433 84.7905 36.72 84.7905 36.4C84.7905 36.1933 84.6905 36.0267 84.4905 35.9C84.2971 35.7667 84.0738 35.7 83.8205 35.7C83.4338 35.7 83.1538 35.7867 82.9805 35.96C82.8138 36.1267 82.7305 36.37 82.7305 36.69C82.7305 36.77 82.6838 36.8433 82.5905 36.91C82.5038 36.97 82.3938 37 82.2605 37C82.0738 37 81.9438 36.9333 81.8705 36.8C81.7971 36.6667 81.7605 36.5033 81.7605 36.31C81.7605 36.0033 81.8538 35.7333 82.0405 35.5C82.2271 35.26 82.4805 35.0733 82.8005 34.94C83.1271 34.8067 83.4871 34.74 83.8805 34.74C84.1605 34.74 84.4505 34.81 84.7505 34.95C85.0571 35.0833 85.3105 35.2667 85.5105 35.5C85.7171 35.7267 85.8205 35.9767 85.8205 36.25C85.8205 36.6633 85.7171 37.0567 85.5105 37.43C85.3038 37.8033 85.0605 38.1367 84.7805 38.43C84.5071 38.7167 84.1505 39.0567 83.7105 39.45C83.4971 39.63 83.3071 39.8 83.1405 39.96ZM89.9541 34.64C90.3941 34.64 90.7975 34.6967 91.1641 34.81C91.5308 34.9167 91.8308 35.0767 92.0641 35.29C92.4841 35.67 92.7775 36.0867 92.9441 36.54C93.1175 36.9867 93.2041 37.56 93.2041 38.26C93.2041 38.4067 93.1708 38.5867 93.1041 38.8C93.0375 39.0133 92.9641 39.2133 92.8841 39.4C92.7641 39.6333 92.6375 39.8167 92.5041 39.95C92.3775 40.0833 92.1808 40.2433 91.9141 40.43H91.9241C92.1441 40.79 92.3175 41.0367 92.4441 41.17C92.5775 41.31 92.7275 41.38 92.8941 41.38C92.9475 41.38 92.9875 41.3767 93.0141 41.37C93.0341 41.3633 93.0641 41.36 93.1041 41.36C93.2041 41.36 93.2808 41.39 93.3341 41.45C93.3875 41.5167 93.4141 41.5933 93.4141 41.68C93.4141 41.7333 93.4008 41.7833 93.3741 41.83C93.3541 41.8833 93.3208 41.9233 93.2741 41.95C93.1408 42.03 93.0275 42.08 92.9341 42.1C92.8408 42.1267 92.6708 42.14 92.4241 42.14C92.1641 42.14 91.9308 42.0233 91.7241 41.79C91.5241 41.5633 91.3141 41.2467 91.0941 40.84C90.8075 40.9467 90.5175 41 90.2241 41C88.9508 41 88.0341 40.56 87.4741 39.68C87.3208 39.4333 87.2008 39.1767 87.1141 38.91C87.0341 38.6433 86.9941 38.3833 86.9941 38.13C86.9941 37.45 87.1141 36.8567 87.3541 36.35C87.6008 35.8433 87.9408 35.4533 88.3741 35.18C88.6275 35.02 88.8941 34.89 89.1741 34.79C89.4608 34.69 89.7208 34.64 89.9541 34.64ZM90.1041 38.71C90.4308 38.71 90.6775 38.7767 90.8441 38.91C91.0175 39.0367 91.1508 39.1733 91.2441 39.32C91.3441 39.4667 91.4108 39.5633 91.4441 39.61C91.9175 39.23 92.1541 38.6933 92.1541 38C92.1541 37.48 92.0975 37.0767 91.9841 36.79C91.8775 36.5033 91.6741 36.2367 91.3741 35.99C91.2141 35.8567 91.0141 35.7567 90.7741 35.69C90.5408 35.6233 90.2941 35.59 90.0341 35.59C89.6208 35.59 89.2608 35.7167 88.9541 35.97C88.6475 36.2167 88.4141 36.5367 88.2541 36.93C88.0941 37.3167 88.0141 37.7167 88.0141 38.13C88.0141 38.3767 88.0508 38.5967 88.1241 38.79C88.2041 38.9767 88.3175 39.1533 88.4641 39.32C88.8841 39.8467 89.3808 40.11 89.9541 40.11C90.1608 40.11 90.3975 40.0733 90.6641 40C90.5708 39.8467 90.4775 39.73 90.3841 39.65C90.2975 39.57 90.1941 39.5167 90.0741 39.49C90.0275 39.4767 89.9441 39.46 89.8241 39.44C89.7041 39.42 89.6075 39.3867 89.5341 39.34C89.4675 39.2933 89.4341 39.2233 89.4341 39.13C89.4341 38.95 89.4908 38.8367 89.6041 38.79C89.7175 38.7367 89.8841 38.71 90.1041 38.71ZM96.9205 38.35C97.2271 38.35 97.3805 38.5233 97.3805 38.87C97.3805 39.05 97.3171 39.18 97.1905 39.26C97.0705 39.34 96.9205 39.38 96.7405 39.38C96.6871 39.38 96.6305 39.3767 96.5705 39.37C96.5105 39.3633 96.4471 39.3567 96.3805 39.35C96.1805 39.3167 96.0005 39.3 95.8405 39.3C95.7271 39.3 95.5571 39.3133 95.3305 39.34C95.0905 39.3667 94.9071 39.38 94.7805 39.38C94.6005 39.38 94.4405 39.3467 94.3005 39.28C94.1605 39.2067 94.0905 39.0867 94.0905 38.92C94.0905 38.6867 94.1771 38.5367 94.3505 38.47C94.5238 38.3967 94.7671 38.36 95.0805 38.36L95.4105 38.37C95.5705 38.3833 95.6938 38.39 95.7805 38.39L96.5105 38.37L96.9205 38.35ZM102.474 35.16C102.387 35.5667 102.277 35.97 102.144 36.37C102.017 36.77 101.854 37.23 101.654 37.75C101.314 38.6633 101.074 39.4 100.934 39.96C100.821 40.34 100.714 40.6133 100.614 40.78C100.514 40.9467 100.397 41.03 100.264 41.03C100.157 41.03 100.014 40.9667 99.8341 40.84C99.7875 40.78 99.7641 40.6967 99.7641 40.59C99.7641 40.5033 99.7875 40.3767 99.8341 40.21C99.8808 40.0367 99.9375 39.8467 100.004 39.64L100.124 39.28C100.211 38.9933 100.357 38.6067 100.564 38.12C100.717 37.7467 100.854 37.3867 100.974 37.04C101.101 36.6933 101.224 36.28 101.344 35.8C100.997 35.9067 100.654 35.96 100.314 35.96C100.147 35.96 99.8941 35.9367 99.5541 35.89C99.2741 35.85 99.0741 35.83 98.9541 35.83C98.9608 35.93 99.0108 36.12 99.1041 36.4C99.2175 36.6867 99.2741 36.9033 99.2741 37.05C99.2741 37.1367 99.2441 37.21 99.1841 37.27C99.1241 37.33 99.0275 37.36 98.8941 37.36C98.7208 37.36 98.5875 37.3067 98.4941 37.2C98.4075 37.0867 98.3341 36.96 98.2741 36.82C98.2208 36.6733 98.1808 36.5733 98.1541 36.52C98.0608 36.3067 97.9875 36.0867 97.9341 35.86C97.8808 35.6267 97.8541 35.42 97.8541 35.24C97.8541 35.1333 97.8808 35.04 97.9341 34.96C97.9941 34.88 98.0608 34.84 98.1341 34.84C98.2341 34.8533 98.3841 34.88 98.5841 34.92C98.9041 34.9733 99.1708 35.0167 99.3841 35.05C99.6041 35.0767 99.8375 35.09 100.084 35.09C100.691 35.09 101.157 34.9833 101.484 34.77C101.531 34.7433 101.601 34.73 101.694 34.73C101.867 34.73 102.041 34.7733 102.214 34.86C102.387 34.94 102.474 35.04 102.474 35.16ZM103.815 39.34C103.815 39.6467 103.858 39.87 103.945 40.01C104.032 40.1433 104.168 40.21 104.355 40.21C104.822 40.21 105.138 40.02 105.305 39.64C105.478 39.26 105.565 38.74 105.565 38.08C105.565 37.76 105.545 37.3133 105.505 36.74C105.465 36.1933 105.445 35.7867 105.445 35.52C104.732 35.52 104.375 35.38 104.375 35.1C104.375 34.9333 104.402 34.8233 104.455 34.77C104.515 34.7167 104.605 34.69 104.725 34.69C104.798 34.69 104.878 34.6967 104.965 34.71C105.052 34.7167 105.115 34.72 105.155 34.72C105.288 34.74 105.415 34.75 105.535 34.75C105.755 34.75 105.958 34.74 106.145 34.72C106.385 34.7067 106.565 34.7 106.685 34.7C106.925 34.7 107.092 34.7233 107.185 34.77C107.285 34.8167 107.335 34.9067 107.335 35.04C107.335 35.18 107.298 35.28 107.225 35.34C107.158 35.3933 107.058 35.4333 106.925 35.46L106.465 35.51C106.458 35.95 106.485 36.4767 106.545 37.09C106.552 37.1833 106.565 37.36 106.585 37.62C106.605 37.8733 106.615 38.1067 106.615 38.32C106.615 39.1867 106.432 39.8567 106.065 40.33C105.698 40.7967 105.152 41.03 104.425 41.03C103.972 41.03 103.592 40.9 103.285 40.64C102.985 40.3733 102.835 39.9767 102.835 39.45C102.835 39.3033 102.888 39.1867 102.995 39.1C103.102 39.0067 103.245 38.96 103.425 38.96C103.552 38.96 103.648 39.0033 103.715 39.09C103.782 39.1767 103.815 39.26 103.815 39.34ZM110.747 35.7C110.521 35.7867 110.327 35.9 110.167 36.04C110.007 36.1733 109.864 36.3367 109.737 36.53L109.577 36.78C109.457 36.96 109.367 37.1067 109.307 37.22C109.247 37.3333 109.207 37.4533 109.187 37.58C109.514 37.2467 109.981 37.08 110.587 37.08C110.847 37.08 111.121 37.1533 111.407 37.3C111.701 37.4467 111.937 37.6167 112.117 37.81C112.231 37.9367 112.324 38.13 112.397 38.39C112.477 38.65 112.517 38.9267 112.517 39.22C112.517 39.4533 112.447 39.6933 112.307 39.94C112.167 40.18 111.994 40.39 111.787 40.57C111.587 40.75 111.401 40.8633 111.227 40.91C110.961 40.9767 110.731 41.01 110.537 41.01C110.097 41.01 109.691 40.89 109.317 40.65C108.944 40.41 108.647 40.09 108.427 39.69C108.207 39.2833 108.097 38.8433 108.097 38.37C108.097 37.7167 108.254 37.0933 108.567 36.5C108.887 35.9 109.307 35.4133 109.827 35.04C109.914 34.98 110.067 34.9167 110.287 34.85C110.514 34.7767 110.714 34.74 110.887 34.74C111.214 34.74 111.377 34.87 111.377 35.13C111.377 35.2833 111.321 35.4033 111.207 35.49C111.101 35.5767 110.947 35.6467 110.747 35.7ZM110.347 40.09C110.501 40.09 110.631 40.0833 110.737 40.07C110.844 40.05 110.941 40.0133 111.027 39.96C111.161 39.8667 111.277 39.7567 111.377 39.63C111.484 39.4967 111.537 39.37 111.537 39.25C111.537 38.79 111.424 38.4667 111.197 38.28C110.977 38.0933 110.717 37.9967 110.417 37.99C110.264 37.99 110.087 38.0333 109.887 38.12C109.694 38.2 109.527 38.3067 109.387 38.44C109.254 38.5733 109.187 38.7033 109.187 38.83C109.187 39.1167 109.247 39.3567 109.367 39.55C109.494 39.7367 109.647 39.8733 109.827 39.96C110.007 40.0467 110.181 40.09 110.347 40.09ZM117.8 35.38C117.8 35.1867 117.844 35.02 117.93 34.88C118.024 34.7333 118.16 34.66 118.34 34.66C118.494 34.66 118.63 34.69 118.75 34.75C118.87 34.81 118.93 34.91 118.93 35.05C118.93 35.3233 118.917 35.7067 118.89 36.2C118.864 36.68 118.85 37.0367 118.85 37.27C118.85 37.6367 118.864 38.1267 118.89 38.74C118.917 39.3267 118.93 39.7567 118.93 40.03C118.93 40.25 118.927 40.4133 118.92 40.52C118.92 40.6267 118.86 40.7333 118.74 40.84C118.627 40.94 118.45 40.99 118.21 40.99C118.084 40.99 117.974 40.97 117.88 40.93C117.794 40.8833 117.734 40.8333 117.7 40.78C117.387 40.4 116.93 39.7533 116.33 38.84C115.657 37.82 115.107 37.04 114.68 36.5C114.734 36.98 114.76 37.5667 114.76 38.26C114.76 38.5667 114.754 38.9667 114.74 39.46C114.734 39.9467 114.72 40.2667 114.7 40.42C114.674 40.6133 114.614 40.7633 114.52 40.87C114.434 40.97 114.294 41.02 114.1 41.02C113.954 41.02 113.844 40.98 113.77 40.9C113.704 40.8133 113.664 40.6667 113.65 40.46C113.644 40.1867 113.66 39.7767 113.7 39.23C113.707 39.1433 113.717 38.9933 113.73 38.78C113.744 38.5667 113.75 38.3767 113.75 38.21C113.75 37.75 113.727 37.2233 113.68 36.63C113.64 35.9767 113.62 35.4933 113.62 35.18C113.62 35.02 113.677 34.8967 113.79 34.81C113.91 34.7233 114.047 34.68 114.2 34.68C114.334 34.68 114.474 34.7133 114.62 34.78C115.194 35.5 115.97 36.5733 116.95 38L117.89 39.44C117.897 39.3333 117.9 39.1833 117.9 38.99C117.9 38.65 117.894 38.2833 117.88 37.89C117.867 37.4967 117.857 37.23 117.85 37.09C117.817 36.4433 117.8 35.8733 117.8 35.38Z" fill="#000091"/>
</svg>
