<?xml version="1.0" encoding="UTF-8"?>
<svg width="1200pt" height="1200pt" version="1.1" viewBox="0 0 1200 1200" xmlns="http://www.w3.org/2000/svg">
 <path d="m80 1040v-920h1e3v608.85l-40-40v-368.85h-920v680h608.91l40 40zm960-880v120h-920v-120zm-840 40v40h-40v-40zm80 0v40h-40v-40zm80 0v40h-40v-40zm505.42 879.95-105.43-105.43v-149.1l105.43-105.43h149.16l105.43 105.43v149.1l-105.43 105.43zm16.574-39.984-82-82v-115.96l82-82h116.02l82 82v115.96l-82 82zm-12.703-174.11 56.57 56.566 84.852-84.852 28.285 28.285-113.14 113.14-84.855-84.855z" fill="#000090" fill-rule="evenodd"/>
</svg>
