<?xml version="1.0" encoding="UTF-8"?>
<svg width="1200pt" height="1200pt" version="1.1" viewBox="0 0 1200 1200" xmlns="http://www.w3.org/2000/svg">
 <g fill="#000090">
  <path d="m375 93.75h37.5v37.5h-37.5z"/>
  <path d="m600 93.75h37.5v37.5h-37.5z"/>
  <path d="m243.75 431.25h525v37.5h-525z"/>
  <path d="m243.75 506.25h525v37.5h-525z"/>
  <path d="m243.75 581.25h525v37.5h-525z"/>
  <path d="m243.75 656.25h525v37.5h-525z"/>
  <path d="m918.75 700.55v-588.05c0-4.9727-1.9766-9.7422-5.4922-13.258-3.5156-3.5156-8.2852-5.4922-13.258-5.4922h-187.5v-56.25c0-4.9727-1.9766-9.7422-5.4922-13.258-3.5156-3.5156-8.2852-5.4922-13.258-5.4922h-375c-4.9727 0-9.7422 1.9766-13.258 5.4922-3.5156 3.5156-5.4922 8.2852-5.4922 13.258v56.25h-187.5c-4.9727 0-9.7422 1.9766-13.258 5.4922-3.5156 3.5156-5.4922 8.2852-5.4922 13.258v1012.5c0 4.9727 1.9766 9.7422 5.4922 13.258 3.5156 3.5156 8.2852 5.4922 13.258 5.4922h620.62c40.035 25.148 86.523 38.098 133.79 37.273 47.27-0.82813 93.273-15.395 132.41-41.926 39.129-26.531 69.691-63.879 87.953-107.48 18.266-43.609 23.441-91.586 14.898-138.09s-30.438-89.504-63.008-123.77c-32.57-34.27-74.414-58.312-120.42-69.203zm-206.25-513.05v-56.25h168.75v563.46c-6.207-0.48828-12.414-0.95703-18.75-0.95703s-12.543 0.46875-18.75 0.95703v-432.21c0-4.9727-1.9766-9.7422-5.4922-13.258-3.5156-3.5156-8.2852-5.4922-13.258-5.4922h-189c0.94531-6.207 1.4492-12.473 1.5-18.75v-18.75h56.25c4.9727 0 9.7422-1.9766 13.258-5.4922 3.5156-3.5156 5.4922-8.2852 5.4922-13.258zm20.625 543.75h-489.38v37.5h443.27c-11.062 11.504-20.973 24.066-29.59 37.5h-413.68v37.5h393.75c-5.0039 12.156-9.0195 24.695-12 37.5h-381.75v37.5h375.96c-0.48828 6.207-0.95703 12.414-0.95703 18.75 0.066406 18.953 2.3516 37.828 6.8047 56.25h-419.3v-712.5h181.59c14.215 30.07 39.336 53.602 70.266 65.828s65.352 12.227 96.281 0 56.051-35.758 70.266-65.828h181.59v419.3c-25.895 6.1484-50.602 16.52-73.125 30.695zm-320.62-506.25v-18.75h187.5v18.75c0.007812 6.2969-0.62109 12.578-1.875 18.75h-183.75c-1.2539-6.1719-1.8828-12.453-1.875-18.75zm168.26 56.25c-17.5 23.59-45.137 37.504-74.512 37.504s-57.012-13.914-74.512-37.504zm-243.26-225h337.5v112.5h-337.5zm-206.25 75h168.75v56.25c0 4.9727 1.9766 9.7422 5.4922 13.258 3.5156 3.5156 8.2852 5.4922 13.258 5.4922h56.25v18.75c0.050781 6.2773 0.55469 12.543 1.5 18.75h-189c-4.9727 0-9.7422 1.9766-13.258 5.4922-3.5156 3.5156-5.4922 8.2852-5.4922 13.258v750c0 4.9727 1.9766 9.7422 5.4922 13.258 3.5156 3.5156 8.2852 5.4922 13.258 5.4922h450c11.703 27.848 28.477 53.277 49.461 75h-555.71zm731.25 1012.5c-54.699 0-107.16-21.73-145.84-60.41-38.68-38.68-60.41-91.141-60.41-145.84s21.73-107.16 60.41-145.84c38.68-38.68 91.141-60.41 145.84-60.41s107.16 21.73 145.84 60.41c38.68 38.68 60.41 91.141 60.41 145.84-0.066406 54.68-21.816 107.11-60.48 145.77-38.664 38.664-91.09 60.414-145.77 60.48z"/>
  <path d="m900 881.25c16.246 0.042969 31.719-6.918 42.461-19.105 10.742-12.184 15.707-28.41 13.625-44.52-2.0781-16.113-11.008-30.543-24.492-39.598-13.488-9.0547-30.223-11.855-45.922-7.6875-15.699 4.1719-28.84 14.91-36.055 29.465-7.2109 14.555-7.8008 31.512-1.6094 46.531l-52.5 42c-8.1797-4.582-17.383-7.0195-26.758-7.0859-20.098 0-38.664 10.723-48.715 28.125-10.047 17.402-10.047 38.848 0 56.25 10.051 17.402 28.617 28.125 48.715 28.125 9.375-0.066406 18.578-2.5039 26.758-7.0859l52.5 42c-7.2031 16.824-5.9688 36.074 3.3164 51.848 9.2852 15.77 25.52 26.188 43.727 28.055 18.207 1.8711 36.219-5.0312 48.516-18.59 12.297-13.555 17.41-32.152 13.781-50.09-3.6328-17.941-15.578-33.082-32.18-40.793-16.602-7.707-35.879-7.0586-51.926 1.7422l-52.5-42c5.6758-13.656 5.6758-29.016 0-42.672l52.5-42c8.1797 4.582 17.383 7.0195 26.758 7.0859zm0-75c4.9727 0 9.7422 1.9766 13.258 5.4922 3.5156 3.5156 5.4922 8.2852 5.4922 13.258s-1.9766 9.7422-5.4922 13.258c-3.5156 3.5156-8.2852 5.4922-13.258 5.4922s-9.7422-1.9766-13.258-5.4922c-3.5156-3.5156-5.4922-8.2852-5.4922-13.258s1.9766-9.7422 5.4922-13.258c3.5156-3.5156 8.2852-5.4922 13.258-5.4922zm-150 131.25c0-4.9727 1.9766-9.7422 5.4922-13.258 3.5156-3.5156 8.2852-5.4922 13.258-5.4922s9.7422 1.9766 13.258 5.4922c3.5156 3.5156 5.4922 8.2852 5.4922 13.258s-1.9766 9.7422-5.4922 13.258c-3.5156 3.5156-8.2852 5.4922-13.258 5.4922s-9.7422-1.9766-13.258-5.4922c-3.5156-3.5156-5.4922-8.2852-5.4922-13.258zm168.75 112.5c0 4.9727-1.9766 9.7422-5.4922 13.258-3.5156 3.5156-8.2852 5.4922-13.258 5.4922s-9.7422-1.9766-13.258-5.4922c-3.5156-3.5156-5.4922-8.2852-5.4922-13.258s1.9766-9.7422 5.4922-13.258c3.5156-3.5156 8.2852-5.4922 13.258-5.4922s9.7422 1.9766 13.258 5.4922c3.5156 3.5156 5.4922 8.2852 5.4922 13.258z"/>
 </g>
</svg>
