<?xml version="1.0" encoding="UTF-8"?>
<svg width="1200pt" height="1200pt" version="1.1" viewBox="0 0 1200 1200" xmlns="http://www.w3.org/2000/svg">
 <path d="m600 965.6c22.406 0 42.734 9.0977 57.418 23.781l1.0352 1.1328c2.4531 2.5508 4.7344 5.2422 6.8477 8.0938l247.25-142.77c-1.6172-3.7148-2.9492-7.5391-3.9961-11.453-5.2422-19.531-3.1875-41.059 7.3281-60.152l1.8008-3.0312c11.27-18.523 28.844-30.984 48.273-36.199 3.8828-1.0352 7.8516-1.7852 11.863-2.2383v-285.52c-4.0117-0.45313-7.9805-1.2031-11.863-2.2539-20.027-5.3594-38.07-18.41-49.254-37.785l-0.32422-0.63672c-10.926-19.277-13.125-41.145-7.8242-60.961 1.0469-3.8984 2.3945-7.7383 4.0117-11.453l-247.25-142.77c-2.4102 3.2461-5.0469 6.3203-7.8945 9.1719-14.684 14.754-35.008 23.855-57.418 23.855-22.406 0-42.734-9.0977-57.418-23.781l-1.0352-1.1328c-2.4531-2.5508-4.75-5.2578-6.8594-8.1055l-247.25 142.77c1.6172 3.7148 2.9609 7.5547 4.0117 11.453 5.3008 19.812 3.1055 41.684-7.8242 60.961l-0.35547 0.625c-11.156 19.391-29.195 32.441-49.223 37.801-3.8828 1.0469-7.8672 1.8008-11.863 2.2539v285.52c4.0117 0.45312 7.9805 1.2031 11.863 2.2383 19.434 5.2148 37.008 17.676 48.273 36.199l1.8008 3.0312c10.516 19.09 12.57 40.621 7.3281 60.152-1.0469 3.9102-2.3828 7.7383-3.9961 11.453l247.25 142.77c2.3945-3.2461 5.0312-6.3086 7.8789-9.1562 14.684-14.754 35.008-23.855 57.418-23.855zm53.488-342.95c9.9766-14.172 22.945-26.121 37.957-34.84 17.59-10.219 38-16.102 59.629-16.102h54.977c32.855 0 62.719 13.438 84.332 35.051l0.99219 1.0781c21.047 21.559 34.059 50.996 34.059 83.254v38.012c0 9.9336-8.0664 18-18 18h-160.55v30.062c0 9.9336-8.0664 18-18 18h-257.74c-9.9336 0-18-8.0664-18-18v-30.062h-160.57c-9.9336 0-18-8.0664-18-18v-38.012c0-32.781 13.438-62.645 35.094-84.289 21.57-21.656 51.434-35.094 84.289-35.094h54.977c21.629 0 42.051 5.8828 59.656 16.102 14.996 8.7148 28.008 20.637 37.969 34.824 8.375-1.8711 17.051-2.8633 25.965-2.8633h54.977c8.9141 0 17.617 1.0078 25.992 2.8789zm90.027 88.457h145.91v-20.012c0-22.535-9.0273-43.059-23.629-58.055l-0.87891-0.82031c-15.109-15.109-35.957-24.504-58.875-24.504h-54.977c-15.18 0-29.426 4.082-41.629 11.168-8.0234 4.6641-15.223 10.617-21.273 17.547 8.6445 5.1289 16.598 11.34 23.656 18.398l0.99219 1.0781c14.754 15.109 25.555 34.086 30.699 55.207zm35.035-330.28c24.207 0 46.148 9.8359 62.008 25.695s25.695 37.801 25.695 62.008c0 24.207-9.8359 46.148-25.695 62.008s-37.801 25.684-62.008 25.684c-24.137 0-46.078-9.8359-61.938-25.684-15.918-15.93-25.754-37.871-25.754-62.008 0-24.207 9.8359-46.148 25.695-62.008l1.1211-1.0195c15.773-15.266 37.277-24.676 60.875-24.676zm36.555 51.152c-9.3398-9.3398-22.281-15.152-36.555-15.152-13.891 0-26.52 5.457-35.746 14.301l-0.79297 0.85156c-9.3398 9.3398-15.152 22.281-15.152 36.555s5.7812 27.242 15.109 36.582c9.3398 9.3242 22.309 15.109 36.582 15.109 14.273 0 27.211-5.7969 36.555-15.137 9.3398-9.3398 15.152-22.281 15.152-36.555s-5.8125-27.211-15.152-36.555zm-303.24 204.46c-6.0664-6.9453-13.266-12.898-21.289-17.562-12.219-7.0859-26.477-11.168-41.656-11.168h-54.977c-22.918 0-43.766 9.3984-58.875 24.504-15.137 15.066-24.504 35.93-24.504 58.875v20.012h145.93c5.2578-21.602 16.457-40.961 31.734-56.238 7.0586-7.0742 14.996-13.281 23.641-18.426zm-90.426-255.62c24.137 0 46.09 9.8516 61.953 25.738 15.902 15.816 25.738 37.758 25.738 61.965 0 24.137-9.8359 46.078-25.684 61.938-15.93 15.918-37.871 25.754-62.008 25.754-24.207 0-46.148-9.8203-62.008-25.684-15.859-15.859-25.695-37.801-25.695-62.008 0-24.207 9.8359-46.148 25.695-62.008s37.801-25.695 62.008-25.695zm36.539 51.125c-9.2852-9.3398-22.254-15.121-36.539-15.121-14.273 0-27.211 5.8125-36.555 15.152-9.3398 9.3398-15.152 22.281-15.152 36.555 0 14.273 5.8125 27.211 15.152 36.555 9.3398 9.3398 22.281 15.137 36.555 15.137 14.273 0 27.242-5.7812 36.582-15.109 9.3242-9.3398 15.109-22.309 15.109-36.582 0-14.273-5.8125-27.211-15.152-36.582zm169.51 223.82h-54.977c-22.918 0-43.766 9.3984-58.875 24.504-15.137 15.066-24.504 35.93-24.504 58.875v20.012h221.74v-20.012c0-22.535-9.0273-43.059-23.629-58.055l-0.87891-0.82031c-15.109-15.109-35.957-24.504-58.875-24.504zm-27.48-226.87c24.207 0 46.148 9.8203 62.008 25.684 15.859 15.859 25.684 37.801 25.684 62.008s-9.8203 46.148-25.684 62.008c-15.859 15.859-37.801 25.695-62.008 25.695s-46.164-9.8359-62.023-25.695c-15.859-15.859-25.684-37.801-25.684-62.008s9.8359-46.148 25.695-62.008c15.859-15.859 37.801-25.684 62.008-25.684zm36.555 51.137c-9.3398-9.3398-22.281-15.137-36.555-15.137-14.273 0-27.211 5.7969-36.555 15.137-9.3398 9.3398-15.152 22.281-15.152 36.555s5.7969 27.211 15.137 36.555c9.3398 9.3398 22.293 15.152 36.566 15.152 14.273 0 27.211-5.8125 36.555-15.152 9.3398-9.3398 15.137-22.281 15.137-36.555s-5.7969-27.211-15.137-36.555zm43.215 551.67c0.93359 4.9023 1.418 9.9492 1.418 15.109 0 22.406-9.0977 42.734-23.781 57.418-14.684 14.684-35.008 23.781-57.418 23.781-22.406 0-42.734-9.0977-57.418-23.781-14.684-14.684-23.781-35.008-23.781-57.418 0-5.1602 0.49609-10.219 1.418-15.109l-254.24-146.79c-3.4141 2.9336-7.1133 5.6133-11.098 8.0078l-2.6914 1.543c-19.051 10.516-40.605 12.57-60.125 7.3281-20.055-5.3594-38.07-18.398-49.254-37.773-11.238-19.461-13.52-41.586-8.1641-61.598 5.3594-20.055 18.398-38.07 37.773-49.254l0.63672-0.32422c4.2656-2.4219 8.6602-4.3945 13.125-5.9805v-293.7c-4.6641-1.6445-9.2422-3.7266-13.676-6.293-19.418-11.227-32.473-29.238-37.828-49.281-5.3438-20-3.0625-42.109 8.1367-61.512 11.211-19.445 29.254-32.5 49.266-37.871 20-5.3438 42.094-3.0625 61.5 8.1367 4.4648 2.5781 8.6016 5.5117 12.387 8.7578l254.24-146.82c-0.92188-4.8906-1.4023-9.9219-1.4023-15.082 0-22.406 9.0977-42.734 23.781-57.418 14.684-14.684 35.008-23.781 57.418-23.781 22.406 0 42.734 9.0977 57.418 23.781s23.781 35.008 23.781 57.418c0 5.1445-0.49609 10.191-1.418 15.082l254.25 146.82c3.7852-3.2461 7.9219-6.1797 12.387-8.7578 19.402-11.195 41.5-13.48 61.5-8.1367 20.012 5.3711 38.055 18.426 49.266 37.871 11.195 19.402 13.48 41.516 8.1367 61.512-5.3594 20.043-18.41 38.055-37.801 49.266-4.4492 2.5664-9.0273 4.6641-13.707 6.3203v293.69c4.4648 1.5859 8.8594 3.5586 13.125 5.9805l0.625 0.35547c19.391 11.156 32.43 29.168 37.785 49.223 5.3594 20.012 3.0742 42.137-8.1367 61.539-11.211 19.434-29.227 32.473-49.281 37.828-19.516 5.2422-41.074 3.1875-60.125-7.3281l-2.6914-1.543c-3.9844-2.3945-7.6836-5.0742-11.098-8.0078l-254.24 146.79zm-47.82-910.47c-8.1641-8.1641-19.488-13.238-31.961-13.238s-23.797 5.0742-31.961 13.238c-8.1641 8.1641-13.238 19.488-13.238 31.961 0 12.105 4.75 23.117 12.445 31.223l0.79297 0.75c8.1641 8.1641 19.488 13.238 31.961 13.238s23.797-5.0742 31.961-13.238c8.1797-8.1367 13.238-19.473 13.238-31.977 0-12.473-5.0742-23.797-13.238-31.961zm394.16 232.7c-6.1953-10.742-16.285-18-27.469-21.004-11.227-3.0039-23.586-1.7422-34.371 4.4805-10.742 6.1953-18 16.285-21.004 27.469-3.0039 11.211-1.7422 23.57 4.4648 34.344 6.2656 10.785 16.328 18.07 27.48 21.047 11.168 3.0039 23.527 1.7422 34.27-4.4648 10.855-6.293 18.113-16.344 21.105-27.48 3.0039-11.227 1.7422-23.598-4.4805-34.383zm-774.39 445.95c-6.2227-10.277-16.059-17.234-26.957-20.156-11.211-3.0039-23.586-1.7422-34.371 4.4805-10.785 6.2656-18.043 16.312-21.035 27.48-2.9922 11.168-1.7422 23.5 4.4805 34.27l0.11328 0.19922c6.2344 10.73 16.258 17.93 27.367 20.906 11.168 3.0039 23.512 1.7422 34.27-4.4648l0.42578-0.24219c10.586-6.25 17.73-16.199 20.691-27.242 3.0039-11.184 1.7422-23.512-4.4805-34.301l-0.51172-0.93359zm-50.387-466.95c-11.184 3.0039-21.273 10.262-27.469 21.004-6.2227 10.785-7.4844 23.16-4.4805 34.383 2.9922 11.141 10.246 21.188 21.004 27.426 10.844 6.2656 23.203 7.5273 34.371 4.5195 11.156-2.9766 21.219-10.262 27.453-21.062 6.2344-10.758 7.4961-23.117 4.4922-34.328-3.0039-11.184-10.262-21.273-21.004-27.469-10.785-6.2227-23.145-7.4844-34.371-4.4805zm773.88 446.8c-10.898 2.918-20.734 9.8789-26.957 20.156l-0.51172 0.93359c-6.2227 10.785-7.4844 23.117-4.4805 34.301 2.9609 11.043 10.105 20.992 20.691 27.242l0.42578 0.24219c10.758 6.207 23.102 7.4688 34.27 4.4648 11.113-2.9766 21.133-10.176 27.367-20.906l0.11328-0.19922c6.2227-10.773 7.4688-23.102 4.4805-34.27-2.9922-11.168-10.246-21.219-21.047-27.453-10.773-6.25-23.145-7.5117-34.355-4.5078zm-343.27 235.11c-8.1641-8.1641-19.488-13.238-31.961-13.238s-23.797 5.0742-31.961 13.238c-8.1797 8.1367-13.238 19.473-13.238 31.977 0 12.473 5.0742 23.797 13.238 31.961 8.1641 8.1641 19.488 13.238 31.961 13.238s23.797-5.0742 31.961-13.238c8.1641-8.1641 13.238-19.488 13.238-31.961 0-12.105-4.75-23.117-12.445-31.223l-0.79297-0.75z" fill="#000090"/>
</svg>
