<?xml version="1.0" encoding="UTF-8"?>
<svg width="1200pt" height="1200pt" version="1.1" viewBox="0 0 1200 1200" xmlns="http://www.w3.org/2000/svg">
 <g fill="#000090">
  <path d="m56.25 1106.2h900c4.9727 0 9.7422-1.9766 13.258-5.4922 3.5156-3.5156 5.4922-8.2852 5.4922-13.258v-345.35c27.938-12.242 48.207-37.273 54.375-67.148h114.38c4.9727 0 9.7422-1.9766 13.258-5.4922 3.5156-3.5156 5.4922-8.2852 5.4922-13.258v-75c0-6.2695-3.1328-12.121-8.3477-15.602-39.148-26.098-47.852-105.88-47.902-134.4 0-86.383-23.145-146.72-68.789-179.32-37.703-26.93-79.754-26.93-99.961-26.93s-62.258 0-99.961 26.93c-45.645 32.602-68.789 92.938-68.789 179.3-0.17578 12.562-1.2109 25.094-3.0977 37.516h-709.4c-4.9727 0-9.7422 1.9766-13.258 5.4922-3.5156 3.5156-5.4922 8.2852-5.4922 13.258v600c0 4.9727 1.9766 9.7422 5.4922 13.258 3.5156 3.5156 8.2852 5.4922 13.258 5.4922zm881.25-131.25-250-187.5 150-112.5h8.1367c4.3477 21.16 15.859 40.172 32.594 53.836 16.734 13.66 37.668 21.137 59.27 21.164zm0-262.5c-11.629-0.015625-22.965-3.6289-32.461-10.34-9.4922-6.7148-16.676-16.203-20.562-27.16h106.05-0.003906c-3.8867 10.957-11.07 20.445-20.562 27.16-9.4961 6.7109-20.832 10.324-32.461 10.34zm-131.25-281.25c0-73.578 17.863-123.64 53.086-148.8 27.922-19.945 60.605-19.945 78.164-19.945s50.242 0 78.164 19.945c35.223 25.16 53.086 75.227 53.086 148.8 0.41016 21.809 2.9062 43.531 7.4492 64.867 5.6953 26.57 14.016 48.699 24.969 66.383h-32.418c-6.6992 0-12.887 3.5742-16.238 9.375-3.3477 5.8008-3.3477 12.949 0 18.75 3.3516 5.8008 9.5391 9.375 16.238 9.375h56.25v37.5h-375v-37.5h243.75c6.6992 0 12.887-3.5742 16.238-9.375 3.3477-5.8008 3.3477-12.949 0-18.75-3.3516-5.8008-9.5391-9.375-16.238-9.375h-219.92c10.914-17.656 19.238-39.785 24.969-66.383 4.543-21.336 7.0391-43.059 7.4492-64.867zm-731.25 75h682.5c-7.2656 24.332-18.77 47.473-36.66 59.398-5.2109 3.4805-8.3438 9.3359-8.3398 15.602v75c0 4.9727 1.9766 9.7422 5.4922 13.258 3.5156 3.5156 8.2852 5.4922 13.258 5.4922h43.75l-235 176.25c-9.7539 7.2578-21.59 11.18-33.75 11.18s-23.996-3.9219-33.75-11.18l-375-281.25c-14.129-10.652-22.457-27.305-22.5-45zm0 93.75 250 187.5-250 187.5zm22.5 405 258.75-194.06 93.75 70.312c16.258 12.098 35.984 18.629 56.25 18.629s39.992-6.5312 56.25-18.629l93.75-70.312 258.75 194.06c14.129 10.652 22.457 27.305 22.5 45v18.75h-862.5v-18.75c0.042969-17.695 8.3711-34.348 22.5-45z"/>
  <path d="m918.75 112.5v56.25c0 6.6992 3.5742 12.887 9.375 16.238 5.8008 3.3477 12.949 3.3477 18.75 0 5.8008-3.3516 9.375-9.5391 9.375-16.238v-56.25c0-6.6992-3.5742-12.887-9.375-16.238-5.8008-3.3477-12.949-3.3477-18.75 0-5.8008 3.3516-9.375 9.5391-9.375 16.238z"/>
  <path d="m774.24 136.74c-3.5156 3.5156-5.4922 8.2852-5.4922 13.258s1.9766 9.7422 5.4922 13.258l37.5 37.5c4.7344 4.7383 11.641 6.5859 18.109 4.8555 6.4727-1.7344 11.527-6.7891 13.262-13.262 1.7305-6.4688-0.11719-13.375-4.8555-18.109l-37.5-37.5c-3.5156-3.5156-8.2852-5.4922-13.258-5.4922s-9.7422 1.9766-13.258 5.4922z"/>
  <path d="m1074.2 136.74-37.5 37.5c-4.7383 4.7344-6.5859 11.641-4.8555 18.109 1.7344 6.4727 6.7891 11.527 13.262 13.262 6.4688 1.7305 13.375-0.11719 18.109-4.8555l37.5-37.5c4.7383-4.7344 6.5859-11.641 4.8555-18.109-1.7344-6.4727-6.7891-11.527-13.262-13.262-6.4688-1.7305-13.375 0.11719-18.109 4.8555z"/>
  <path d="m862.5 506.25c4.9727 0 9.7422-1.9766 13.258-5.4922 3.5156-3.5156 5.4922-8.2852 5.4922-13.258 0-85.953 16.406-122.05 16.84-123 2.9727-6.0039 2.5156-13.137-1.1953-18.715-3.7148-5.5742-10.121-8.7461-16.805-8.3203-6.6875 0.42969-12.637 4.3906-15.609 10.395-0.58594 1.1719-5.8594 12.098-10.91 34.789-6.5156 29.332-9.8203 64.609-9.8203 104.86 0 4.9727 1.9766 9.7422 5.4922 13.258 3.5156 3.5156 8.2852 5.4922 13.258 5.4922z"/>
 </g>
</svg>
