<svg fill="none" height="31" viewBox="0 0 206 31" width="206" xmlns="http://www.w3.org/2000/svg"><g clip-rule="evenodd" fill="#1e64e6" fill-rule="evenodd"><path d="m.753169 1.90393c.605351-1.240931 2.102061-1.756173 3.342991-1.150822 30.67814 14.965392 64.17344 23.275992 98.28884 24.386692 34.116 1.1107 68.081-5.0035 99.667-17.9416 1.278-.52335 2.738.08815 3.261 1.36584.524 1.27768-.088 2.73766-1.365 3.26106-32.239 13.2053-66.905 19.4457-101.725 18.3121-34.8205-1.1337-69.0075-9.6159-100.31901-24.89027-1.24093-.60535-1.756172-2.10206-1.150821-3.343z"/><path d="m181.123 5.64017c.24-1.35959 1.537-2.26671 2.897-2.02613l19.416 3.43577c.879.15563 1.609.76865 1.914 1.60814s.139 1.77795-.436 2.46175l-12.683 15.0967c-.888 1.0571-2.465 1.1941-3.522.306-1.057-.8882-1.194-2.4651-.306-3.5223l9.898-11.7813-15.152-2.68125c-1.36-.24059-2.267-1.53779-2.026-2.89738z"/></g></svg>