<svg width="61" height="56" viewBox="0 0 61 56" fill="none" xmlns="http://www.w3.org/2000/svg">
<path d="M31 5.00001L5.1951 6.01452L7.4262 38.9652L47.2606 33.931L31 5.00001Z" fill="#EFEFEF" stroke="#B8B5B5" stroke-width="2"/>
<circle cx="5.5" cy="5.5" r="4.5" fill="#EFEFEF" stroke="#B8B5B5" stroke-width="2"/>
<circle cx="30.5" cy="5.5" r="4.5" fill="#EFEFEF" stroke="#B8B5B5" stroke-width="2"/>
<circle cx="6.5" cy="37.5" r="4.5" fill="#EFEFEF" stroke="#B8B5B5" stroke-width="2"/>
<path d="M41.4524 51.1154L37.1836 39.4231L38.6066 37.2308L41.4524 38.6923V32.1154L45.7212 30.6538V29.9231L48.5671 28.4615L51.4129 29.1923L52.8359 29.9231L54.2588 29.1923L58.5276 32.1154L59.2391 43.0769L55.6817 51.8462L48.5671 54.0385L41.4524 51.1154Z" fill="white"/>
<path d="M51.3636 31.3849L51.3671 38.9231H49.5215V30.6538C49.5215 29.9868 48.9916 29.4231 48.31 29.4231C47.6285 29.4231 47.0986 29.9868 47.0986 30.6538V38.9231H45.2527V33.2243C45.2527 32.5572 44.7228 31.9935 44.0412 31.9935C43.3596 31.9935 42.8298 32.5572 42.8298 33.2243V41.8462H42.8242H42.8178H42.8114H42.805H42.7986H42.7922H42.7857H42.7793H42.7727H42.7662H42.7597H42.7531H42.7465H42.7399H42.7333H42.7267H42.72H42.7133H42.7066H42.6999H42.6931H42.6864H42.6796H42.6728H42.666H42.6592H42.6523H42.6454H42.6386H42.6317H42.6247H42.6178H42.6108H42.6039H42.5969H42.5899H42.5829H42.5758H42.5688H42.5617H42.5546H42.5475H42.5404H42.5333H42.5262H42.519H42.5118H42.5047H42.4975H42.4903H42.483H42.4758H42.4686H42.4613H42.454H42.4467H42.4394H42.4321H42.4248H42.4175H42.4101H42.4028H42.3954H42.388H42.3806H42.3732H42.3658H42.3584H42.351H42.3435H42.3361H42.3286H42.3212H42.3137H42.3062H42.2987H42.2912H42.2837H42.2762H42.2687H42.2611H42.2536H42.246H42.2385H42.2309H42.2233H42.2158H42.2082H42.2006H42.193H42.1854H42.1778H42.1702H42.1626H42.1549H42.1473H42.1397H42.1321H42.1244H42.1168H42.1091H42.1015H42.0938H42.0861H42.0785H42.0708H42.0632H42.0555H42.0478H42.0401H42.0325H42.0248H42.0171H42.0094H42.0017H41.994H41.9864H41.9787H41.971H41.9633H41.9556H41.9479H41.9402H41.9325H41.9248H41.9172H41.9095H41.9018H41.8941H41.8864H41.8787H41.8711H41.8634H41.8557H41.848H41.8404H41.8327H41.825H41.8174H41.8097H41.8021H41.7944H41.7868H41.7791H41.7715H41.7639H41.7562H41.7486H41.741H41.7334H41.7258H41.7182H41.7106H41.703H41.6954H41.6878H41.6802H41.6727H41.6651H41.6576H41.65H41.6425H41.6349H41.6274H41.6199H41.6124H41.6049H41.5974H41.5899H41.5825H41.575H41.5676H41.5601H41.5527H41.5453H41.5378H41.5304H41.523H41.5157H41.5083H41.5009H41.4936H41.4862H41.4789H41.4716H41.4643H41.457H41.4497H41.4425H41.4352H41.428H41.4207H41.4135H41.4063H41.3991H41.392H41.3848H41.3777H41.3705H41.3634H41.3563H41.3492H41.3422H41.3351H41.3281H41.321H41.314H41.307H41.3001H41.2931H41.2862H41.2792H41.2723H41.2654H41.2586H41.2517H41.2449H41.238H41.2312H41.2245H41.2177H41.2109H41.2042H41.1975H41.1908H41.1841H41.1775H41.1709H41.1642H41.1576H41.1511H41.1445H41.138H41.1315H41.125H41.1185H41.1121H41.1057H41.0993H41.0929H41.0865H41.0802H41.0739H41.0676H41.0613H41.0551H41.0488H41.0426H41.0365H41.0303H41.0242H41.0181H41.012H41.006H40.9999H40.9939H40.988H40.982H40.9761H40.9702H40.9643H40.9585H40.9526H40.9468H40.9411H40.9353H40.9296H40.9239H40.9183H40.9126H40.907H40.9014H40.8959H40.8925C40.7813 41.217 40.7728 40.7121 40.7654 40.2641C40.7618 40.0525 40.7585 39.8537 40.7447 39.6605C40.7221 39.3453 40.6648 38.9768 40.4184 38.6825C40.1609 38.3751 39.7834 38.2457 39.3554 38.1957L39.1063 38.1666L38.934 38.3488C38.05 39.284 37.6521 41.3665 38.8374 44.1491L39.2974 43.9531L38.8374 44.1491C40.0668 47.0351 41.3339 49.2513 42.9999 50.7539L43 50.7539C44.6319 52.2255 46.7199 53.0769 49.733 53.0769C54.3439 53.0769 58.0591 49.2416 58.0591 44.5388V33.5038C58.0591 32.8368 57.5291 32.2731 56.8476 32.2731C56.1661 32.2731 55.6362 32.8368 55.6362 33.5038V38.9231H53.7901L53.7865 31.3846C53.7865 31.3845 53.7865 31.3845 53.7865 31.3844C53.7864 30.7174 53.2565 30.1538 52.5751 30.1538C51.8935 30.1538 51.3636 30.7176 51.3636 31.3846V31.3849ZM40.0213 37.0677L40.9839 36.8781V33.2243C40.9839 31.4697 42.3653 30.0704 44.0412 30.0704C44.2672 30.0704 44.4869 30.0956 44.698 30.1432L45.2108 30.259L45.3007 29.741C45.5458 28.3291 46.7384 27.5 48.31 27.5C49.0342 27.5 49.5095 27.5022 49.9501 27.5968C50.3697 27.6869 50.779 27.867 51.3259 28.2672L51.5232 28.4115L51.7583 28.3445C52.0177 28.2705 52.2916 28.2308 52.5751 28.2308C53.5942 28.2308 54.0206 28.2381 54.383 28.3729C54.7088 28.4942 55.0132 28.7323 55.6362 29.3312V29.9231V30.538L56.2382 30.4126C56.4348 30.3716 56.6386 30.35 56.8476 30.35C58.5236 30.35 59.9049 31.7493 59.9049 33.5038V44.5388C59.9049 50.3293 55.3382 55 49.733 55C46.3424 55 43.8062 54.0244 41.792 52.2078C39.8117 50.4219 38.4108 47.8881 37.1502 44.9289C36.5224 43.455 36.4432 42.2964 36.5283 41.4129C36.5713 40.9673 36.6568 40.5832 36.7431 40.2503C36.7658 40.1627 36.7903 40.0731 36.8146 39.9839C36.8758 39.7597 36.9362 39.5385 36.9655 39.3613C36.9943 39.187 37.0188 39.0027 37.0426 38.8207L37.0479 38.7797C37.0703 38.609 37.0925 38.4394 37.1185 38.2692C37.175 37.8996 37.2459 37.554 37.3577 37.2537C37.469 36.9548 37.612 36.7251 37.7978 36.5643C37.9743 36.4116 38.2197 36.2944 38.5904 36.2647C38.9524 36.2659 39.196 36.2673 39.3796 36.2828C39.5656 36.2986 39.6285 36.3254 39.6525 36.3393C39.6658 36.3471 39.699 36.3675 39.7614 36.4798C39.8303 36.6039 39.9031 36.7793 40.0213 37.0677Z" fill="#B8B5B5" stroke="#B8B5B5"/>
</svg>
