<svg width="61" height="56" viewBox="0 0 61 56" fill="none" xmlns="http://www.w3.org/2000/svg">
<path d="M31 5L5.1951 6.01451L7.4262 38.9652L47.2606 33.931L31 5Z" fill="#CAC6E3" stroke="#120090" stroke-width="2"/>
<circle cx="5.5" cy="5.5" r="4.5" fill="#CAC6E3" stroke="#120090" stroke-width="2"/>
<circle cx="30.5" cy="5.5" r="4.5" fill="#CAC6E3" stroke="#120090" stroke-width="2"/>
<circle cx="6.5" cy="37.5" r="4.5" fill="#CAC6E3" stroke="#120090" stroke-width="2"/>
<path d="M41.4524 51.1154L37.1836 39.4231L38.6066 37.2308L41.4524 38.6923V32.1154L45.7212 30.6538V29.9231L48.5671 28.4615L51.4129 29.1923L52.8359 29.9231L54.2588 29.1923L58.5276 32.1154L59.2391 43.0769L55.6817 51.8462L48.5671 54.0385L41.4524 51.1154Z" fill="white"/>
<path d="M48.31 29.9231C47.9172 29.9231 47.5986 30.2503 47.5986 30.6538V39.4231H44.7527V33.2243C44.7527 32.8207 44.4342 32.4935 44.0412 32.4935C43.6483 32.4935 43.3298 32.8207 43.3298 33.2243V42.3462C42.8265 42.3462 40.484 42.3462 40.484 42.3462C39.9416 39.9773 40.7871 38.8664 39.2974 38.6923C38.6066 39.4231 38.1517 41.2634 39.2974 43.9531C40.5194 46.8217 41.7519 48.9549 43.3348 50.3826C44.8638 51.7614 46.8279 52.5769 49.733 52.5769C54.0553 52.5769 57.5591 48.9782 57.5591 44.5388V33.5038C57.5591 33.1002 57.2405 32.7731 56.8476 32.7731C56.4548 32.7731 56.1362 33.1002 56.1362 33.5038V39.4231H53.2903L53.2865 31.3846C53.2865 30.981 52.9679 30.6538 52.5751 30.6538C52.1822 30.6538 51.8636 30.981 51.8636 31.3846L51.8674 39.4231H49.0215V30.6538C49.0215 30.2503 48.7029 29.9231 48.31 29.9231ZM60.4049 44.5388C60.4049 50.5927 55.6269 55.5 49.733 55.5C46.2347 55.5 43.5744 54.4886 41.4571 52.5791C39.3938 50.7183 37.9583 48.1018 36.6902 45.1248C35.3667 42.0177 36.3276 40.1538 36.4722 39.2797C36.6902 37.9615 36.666 35.9015 38.5723 35.7646C40.0295 35.7692 40.0295 35.7692 40.4839 36.8781V33.2243C40.4839 31.2063 42.0766 29.5704 44.0412 29.5704C44.3045 29.5704 44.5611 29.5998 44.8081 29.6555C45.1049 27.9455 46.5598 27 48.31 27C49.7292 27 50.4407 27 51.6211 27.8636C51.9246 27.7771 52.2447 27.7308 52.5751 27.7308C54.5397 27.7308 54.7095 27.7308 56.1362 29.1192V29.9231C56.3661 29.8752 56.604 29.85 56.8476 29.85C58.8123 29.85 60.4049 31.4859 60.4049 33.5038V44.5388Z" fill="black"/>
</svg>
